<svg width="430" height="165" viewBox="0 0 430 165" fill="none" xmlns="http://www.w3.org/2000/svg">
<g clip-path="url(#clip0_0_2259)">
<path d="M0.17865 0V165H424.49V0H0.17865ZM383.501 124.404H40.8789V40.758H383.513L383.501 124.404Z" fill="#022133" fill-opacity="0.2" style="mix-blend-mode:screen"/>
<path d="M81.279 50.9611C81.2813 54.937 80.4998 58.8744 78.9794 62.5481C77.4589 66.2218 75.2292 69.5598 72.4178 72.3712C69.6064 75.1826 66.2685 77.4122 62.5948 78.9327C58.9211 80.4531 54.9837 81.2346 51.0078 81.2323C50.5287 81.2323 50.0554 81.2323 49.5879 81.2323C48.6876 81.1919 47.7988 81.1111 46.9157 80.9899C45.9521 80.858 45.0261 80.5288 44.1954 80.0229C43.3647 79.517 42.6472 78.8453 42.0877 78.0497C41.5283 77.2541 41.1388 76.3517 40.9437 75.3989C40.7486 74.446 40.7521 73.4631 40.9539 72.5116C42.6404 64.7656 46.5204 57.6686 52.1306 52.0676C57.7407 46.4666 64.8442 42.5984 72.5929 40.9245C73.5331 40.7252 74.5042 40.7212 75.446 40.9128C76.3877 41.1045 77.28 41.4877 78.0675 42.0386C78.8549 42.5896 79.5208 43.2965 80.0236 44.1156C80.5264 44.9346 80.8555 45.8483 80.9904 46.7999C81.1817 48.1787 81.2781 49.569 81.279 50.9611Z" fill="#18A0ED"/>
<path d="M124.3 72.5467C124.498 73.4865 124.501 74.457 124.309 75.3981C124.117 76.3391 123.734 77.2307 123.183 78.0176C122.632 78.8044 121.925 79.4696 121.107 79.972C120.288 80.4745 119.375 80.8034 118.424 80.9384C117.036 81.131 115.636 81.2274 114.234 81.2269C113.565 81.2269 112.913 81.227 112.26 81.1692C105.293 80.7138 98.6976 77.8639 93.5911 73.1023C88.4845 68.3407 85.1809 61.9603 84.24 55.0419C84.0539 53.6878 83.9613 52.3225 83.963 50.9557C83.9625 49.554 84.0589 48.154 84.2515 46.7656C84.3865 45.8141 84.7156 44.9004 85.2184 44.0814C85.7212 43.2624 86.3869 42.5554 87.1744 42.0045C87.9619 41.4535 88.8542 41.0703 89.7959 40.8786C90.7377 40.687 91.7088 40.691 92.649 40.8903C100.409 42.568 107.52 46.4459 113.134 52.06C118.747 57.6742 122.623 64.7868 124.3 72.5467Z" fill="#18A0ED"/>
<path d="M81.279 114.165C81.2804 115.496 81.1937 116.827 81.0193 118.147V118.222C80.8968 119.195 80.5721 120.132 80.0662 120.972C79.5603 121.812 78.8844 122.538 78.0817 123.101C77.279 123.665 76.3673 124.054 75.4052 124.245C74.4431 124.435 73.4517 124.422 72.4949 124.207C64.7658 122.518 57.6845 118.645 52.0939 113.047C46.5032 107.449 42.6385 100.363 40.9597 92.6315C40.7597 91.6808 40.7576 90.6992 40.9535 89.7477C41.1495 88.7962 41.5392 87.8952 42.0985 87.101C42.6578 86.3067 43.3747 85.6361 44.2045 85.1309C45.0343 84.6257 45.9591 84.2969 46.9215 84.1648C47.7988 84.0494 48.6934 83.9685 49.5937 83.9224C50.067 83.9224 50.5402 83.9224 51.0193 83.9224C59.0402 83.9269 66.7317 87.1141 72.405 92.7842C78.0783 98.4543 81.2698 106.144 81.279 114.165Z" fill="#18A0ED"/>
<path d="M124.3 92.5786C122.63 100.318 118.77 107.415 113.179 113.022C107.589 118.63 100.505 122.512 92.7705 124.206C91.8102 124.42 90.8157 124.432 89.8508 124.239C88.8859 124.047 87.9718 123.655 87.1671 123.089C86.3624 122.523 85.6849 121.795 85.1779 120.952C84.6709 120.108 84.3456 119.168 84.2229 118.192V118.117C84.0505 116.807 83.9657 115.486 83.969 114.164C83.9691 106.474 86.8956 99.0726 92.1544 93.4622C97.4132 87.8518 104.61 84.4531 112.284 83.9561C112.93 83.9099 113.582 83.8926 114.24 83.8926C115.642 83.8921 117.042 83.9885 118.43 84.1812C119.381 84.3168 120.294 84.6463 121.113 85.1494C121.931 85.6526 122.637 86.3185 123.188 87.1058C123.738 87.8932 124.121 88.7853 124.312 89.7267C124.503 90.6681 124.499 91.6388 124.3 92.5786Z" fill="#18A0ED"/>
<path d="M173.78 63.4218C171.395 62.3031 168.785 61.7426 166.151 61.7828C164.042 61.7703 161.947 62.1218 159.958 62.8217C158.035 63.4995 156.308 64.6368 154.925 66.1345C153.993 67.1482 153.215 68.2936 152.617 69.5339L152.241 62.6081H144.652V102.558H153.205V81.3076C153.205 78.2718 153.75 75.8478 154.839 74.0356C155.8 72.3484 157.229 70.9754 158.954 70.0821C160.537 69.2725 162.289 68.8474 164.067 68.8412C166.329 68.7767 168.525 69.6062 170.179 71.1498C171.807 72.6658 172.618 75.3957 172.615 79.3396V102.587H181.168V76.6443C181.168 73.2853 180.502 70.515 179.171 68.3334C177.895 66.203 176.02 64.495 173.78 63.4218Z" fill="white"/>
<path d="M217.124 64.1789C214.404 62.5821 211.102 61.7837 207.22 61.7837C203.68 61.7235 200.183 62.5762 197.068 64.2597C194.089 65.9077 191.658 68.3941 190.079 71.4106C188.401 74.5271 187.563 78.242 187.563 82.5552C187.563 86.8684 188.401 90.5833 190.079 93.6999C191.674 96.7321 194.135 99.2212 197.149 100.851C200.4 102.553 204.03 103.405 207.699 103.327C210.192 103.354 212.673 102.978 215.046 102.213C217.165 101.525 219.126 100.424 220.818 98.9749C222.426 97.5833 223.742 95.8865 224.69 93.9827L217.903 90.7853C217.005 92.5262 215.65 93.9904 213.984 95.0215C212.334 96.0334 210.177 96.5394 207.515 96.5394C205.329 96.595 203.171 96.0415 201.281 94.9407C199.476 93.8184 198.055 92.174 197.207 90.2255C196.49 88.6054 196.047 86.8773 195.897 85.112H225.169C225.29 84.3704 225.371 83.6229 225.412 82.8726C225.464 82.0242 225.493 81.1412 225.493 80.16C225.548 76.8881 224.807 73.6518 223.334 70.7295C221.933 67.9972 219.778 65.7239 217.124 64.1789ZM197.149 74.9254C197.931 72.9722 199.3 71.3103 201.068 70.1697C202.872 69.0779 204.95 68.5233 207.059 68.571C210.198 68.571 212.674 69.5444 214.486 71.4913C216.079 73.1996 216.972 75.5563 217.164 78.5613H196.11C196.31 77.3122 196.659 76.0916 197.149 74.9254Z" fill="white"/>
<path d="M262.782 64.2355C260.132 62.5963 257.073 61.7381 253.957 61.7595C251.303 61.6722 248.676 62.3175 246.364 63.6247C244.052 64.9319 242.144 66.8505 240.85 69.1701V44.6125H232.303V102.541H239.806L240.25 94.8473C240.816 96.0427 241.526 97.1647 242.363 98.1889C243.694 99.8087 245.375 101.105 247.28 101.981C249.296 102.902 251.492 103.366 253.709 103.337C256.88 103.373 259.996 102.515 262.701 100.861C265.457 99.1391 267.672 96.6746 269.09 93.7507C270.66 90.6726 271.445 86.9712 271.445 82.6464C271.445 78.2255 270.675 74.4702 269.136 71.3805C267.742 68.4424 265.537 65.9635 262.782 64.2355ZM259.988 92.7176C258.042 95.1916 255.348 96.4306 251.908 96.4344C249.86 96.4675 247.848 95.8822 246.137 94.7549C244.412 93.5793 243.066 91.9268 242.264 89.9992C240.434 85.2536 240.449 79.9945 242.305 75.2589C243.122 73.3205 244.463 71.6479 246.177 70.4282C247.894 69.2561 249.934 68.6507 252.012 68.6968C255.475 68.6968 258.169 69.9223 260.092 72.3732C262.016 74.8242 262.978 78.2063 262.978 82.5195C262.928 86.875 261.932 90.282 259.988 92.7407V92.7176Z" fill="white"/>
<path d="M305.906 84.2338C305.944 86.079 305.661 87.9167 305.069 89.6648C304.581 91.0934 303.774 92.3921 302.709 93.4624C301.746 94.4175 300.589 95.1538 299.315 95.6209C298.073 96.069 296.763 96.2975 295.443 96.2962C292.672 96.2962 290.514 95.6171 288.967 94.2588C287.42 92.9006 286.651 90.4112 286.659 86.7906V62.5793H278.105V88.9491C278.105 92.3542 278.773 95.1226 280.108 97.2542C281.354 99.3083 283.21 100.922 285.418 101.871C287.703 102.844 290.165 103.334 292.649 103.308C295.517 103.387 298.363 102.794 300.96 101.577C303.349 100.362 305.303 98.4363 306.553 96.0653L306.951 102.535H314.454V62.5851H305.906V84.2338Z" fill="white"/>
<path d="M329.298 44.6013H320.75V102.529H329.298V44.6013Z" fill="white"/>
<path d="M373.173 96.7754C372.4 96.7618 371.663 96.4439 371.123 95.8907C370.583 95.3375 370.282 94.5936 370.287 93.8205V76.004C370.287 72.7527 369.581 70.0902 368.169 68.0163C366.744 65.9266 364.737 64.301 362.397 63.3414C359.709 62.2567 356.829 61.7267 353.931 61.7831C349.244 61.7831 345.422 62.7681 342.463 64.7381C339.618 66.565 337.51 69.3391 336.513 72.5699L343.704 75.6057C344.5 73.1009 345.751 71.2887 347.455 70.1691C349.296 69.0167 351.437 68.4343 353.608 68.4953C356.166 68.4953 358.179 69.2264 359.644 70.6885C361.11 72.1506 361.841 74.2148 361.838 76.8813V78.4107L347.617 81.1983C344.05 81.8909 341.293 83.1952 339.346 85.1114C338.38 86.0701 337.623 87.2181 337.121 88.4834C336.62 89.7487 336.385 91.1039 336.432 92.4642C336.33 94.5511 336.899 96.6157 338.056 98.3554C339.213 100.095 340.897 101.418 342.861 102.131C345.015 102.956 347.307 103.361 349.614 103.326C351.652 103.326 353.676 102.989 355.604 102.328C357.53 101.693 359.3 100.658 360.799 99.2918C361.384 98.7622 361.899 98.1611 362.334 97.5026C362.605 98.5482 363.109 99.5189 363.808 100.342C364.508 101.164 365.385 101.818 366.374 102.253C367.83 102.885 369.404 103.198 370.991 103.17C372.577 103.222 374.154 102.921 375.608 102.287L376.087 96.3772C375.141 96.6541 374.159 96.7883 373.173 96.7754ZM360.978 91.8639C360.442 92.9796 359.632 93.9408 358.623 94.6573C357.597 95.3839 356.444 95.9124 355.223 96.2156C353.958 96.5384 352.657 96.6993 351.351 96.6946C349.708 96.7841 348.083 96.3208 346.734 95.3787C346.178 94.9713 345.73 94.4347 345.428 93.8152C345.127 93.1958 344.98 92.5122 345.002 91.8236C344.963 91.1436 345.097 90.4648 345.39 89.8503C345.684 89.2358 346.128 88.7055 346.682 88.3087C347.801 87.5065 349.475 86.8947 351.714 86.4676L361.78 84.4014V87.7489C361.83 89.1638 361.555 90.5714 360.978 91.8639Z" fill="white"/>
<path opacity="0.15" d="M1.63395 93.4237C0.515819 91.0377 -0.0446758 88.4285 -0.0051232 85.7938C-0.0180816 83.6851 0.333332 81.5901 1.0337 79.6011C1.71236 77.6777 2.85174 75.9498 4.35228 74.5684C5.36256 73.6346 6.50632 72.8565 7.74589 72.2598L0.820155 71.8846V64.2952H40.7644V72.8427H19.5254C16.4897 72.8427 14.0657 73.3891 12.2534 74.4818C10.5675 75.4449 9.19487 76.8737 8.3 78.5968C7.48978 80.18 7.06462 81.9319 7.05913 83.7103C6.9965 85.9717 7.8257 88.167 9.36771 89.8223C10.8875 91.446 13.6174 92.2579 17.5574 92.2579H40.8048V100.805H14.9198C11.5647 100.805 8.79439 100.14 6.60894 98.8085C4.45526 97.5442 2.72417 95.6705 1.63395 93.4237Z" fill="#18A0ED"/>
<path opacity="0.15" d="M422.967 93.4237C424.086 91.0377 424.646 88.4285 424.606 85.7938C424.619 83.6851 424.268 81.5901 423.568 79.6011C422.891 77.6781 421.754 75.9501 420.255 74.5684C419.243 73.6341 418.097 72.856 416.855 72.2598L423.781 71.8846V64.2952H383.831V72.8427H405.082C408.117 72.8427 410.541 73.3891 412.354 74.4818C414.041 75.4434 415.414 76.8725 416.307 78.5968C417.117 80.18 417.543 81.9319 417.548 83.7103C417.611 85.9717 416.781 88.167 415.239 89.8223C413.723 91.446 410.994 92.2579 407.05 92.2579H383.802V100.805H409.687C413.046 100.805 415.811 100.142 417.998 98.8085C420.15 97.5433 421.879 95.6697 422.967 93.4237Z" fill="#18A0ED"/>
<path opacity="0.15" d="M225.567 1.64018C223.181 0.521473 220.572 -0.0391215 217.937 0.00103854C215.83 -0.0119496 213.737 0.339545 211.75 1.03993C209.825 1.71839 208.095 2.85773 206.711 4.35851C205.781 5.37157 205.003 6.51479 204.403 7.75213L204.033 0.826387H196.438V40.7706H204.992V19.5201C204.992 16.4843 205.538 14.0603 206.631 12.2481C207.592 10.5626 209.019 9.18984 210.74 8.29461C212.323 7.485 214.075 7.05995 215.853 7.0538C218.111 6.98151 220.307 7.80037 221.965 9.3335C223.593 10.8533 224.407 13.5832 224.407 17.5232V40.7706H232.954V14.8856C232.954 11.5343 232.289 8.76403 230.957 6.57473C229.686 4.43452 227.811 2.71779 225.567 1.64018Z" fill="#18A0ED"/>
<path opacity="0.15" d="M225.567 125.807C223.181 124.688 220.572 124.127 217.937 124.168C215.83 124.155 213.737 124.506 211.75 125.206C209.825 125.883 208.095 127.02 206.711 128.519C205.781 129.534 205.003 130.68 204.403 131.919L204.033 124.993H196.438V164.943H204.992V143.692C204.992 140.657 205.538 138.233 206.631 136.42C207.59 134.734 209.017 133.361 210.74 132.467C212.323 131.657 214.075 131.232 215.853 131.226C218.115 131.162 220.311 131.991 221.965 133.535C223.593 135.051 224.407 137.78 224.407 141.724V164.972H232.954V139.087C232.954 135.728 232.285 132.963 230.957 130.776C229.691 128.623 227.816 126.894 225.567 125.807Z" fill="#18A0ED"/>
</g>
<defs>
<clipPath id="clip0_0_2259">
<rect width="429.863" height="165" fill="white"/>
</clipPath>
</defs>
</svg>
