<svg width="163" height="182" viewBox="0 0 163 182" fill="none" xmlns="http://www.w3.org/2000/svg">
<path opacity="0.15" d="M35.3801 77.8359L70.76 97.8003V158.704H35.3801V77.8359Z" fill="#18A0ED"/>
<path d="M49.9484 181.846L51.6951 178.983L49.9322 176.185H50.9107L52.245 178.304L53.4904 176.185H54.4527L52.6979 179.023L54.477 181.846H53.4985L52.1561 179.711L50.9107 181.846H49.9484Z" fill="#FBFBFB"/>
<path d="M69.874 164L69.874 168.802L34.9996 168.802L34.9996 164" stroke="white" stroke-width="0.505426"/>
<g clip-path="url(#clip0_0_2281)">
<path d="M70.828 44.839C70.83 48.3208 70.1456 51.7689 68.8141 54.9861C67.4826 58.2033 65.53 61.1265 63.068 63.5885C60.6059 66.0506 57.6827 68.0032 54.4655 69.3347C51.2483 70.6662 47.8002 71.3506 44.3184 71.3486C43.8989 71.3486 43.4844 71.3486 43.075 71.3486C42.2865 71.3132 41.5082 71.2425 40.7349 71.1363C39.891 71.0208 39.08 70.7325 38.3525 70.2895C37.6251 69.8464 36.9967 69.2582 36.5068 68.5614C36.0169 67.8647 35.6758 67.0744 35.505 66.24C35.3341 65.4056 35.3371 64.5448 35.5138 63.7116C36.9908 56.9281 40.3886 50.713 45.3017 45.808C50.2147 40.903 56.4354 37.5154 63.2213 36.0496C64.0446 35.875 64.8951 35.8715 65.7198 36.0394C66.5445 36.2072 67.3259 36.5428 68.0156 37.0253C68.7052 37.5078 69.2883 38.1269 69.7286 38.8441C70.1689 39.5614 70.4571 40.3616 70.5753 41.1949C70.7428 42.4024 70.8272 43.6199 70.828 44.839Z" fill="#21A8F4"/>
<path d="M108.502 63.7424C108.676 64.5654 108.679 65.4153 108.511 66.2395C108.343 67.0636 108.007 67.8444 107.524 68.5334C107.042 69.2225 106.423 69.805 105.706 70.245C104.989 70.6851 104.19 70.9731 103.357 71.0913C102.141 71.26 100.915 71.3444 99.6876 71.344C99.1014 71.344 98.5303 71.344 97.9591 71.2935C91.8577 70.8946 86.0817 68.3989 81.6097 64.229C77.1377 60.0591 74.2447 54.4715 73.4207 48.4128C73.2577 47.227 73.1766 46.0314 73.1781 44.8344C73.1776 43.6069 73.2621 42.3809 73.4308 41.165C73.5489 40.3317 73.8371 39.5316 74.2774 38.8143C74.7178 38.0971 75.3008 37.478 75.9904 36.9955C76.68 36.513 77.4615 36.1774 78.2862 36.0096C79.1109 35.8417 79.9614 35.8452 80.7847 36.0198C87.5801 37.489 93.8082 40.885 98.7238 45.8015C103.639 50.718 107.034 56.9468 108.502 63.7424Z" fill="#21A8F4"/>
<path d="M70.828 100.188C70.8292 101.355 70.7533 102.52 70.6005 103.676V103.742C70.4933 104.594 70.2089 105.414 69.7659 106.15C69.3229 106.886 68.7309 107.521 68.0279 108.014C67.325 108.508 66.5266 108.849 65.6841 109.016C64.8415 109.183 63.9734 109.171 63.1354 108.983C56.3667 107.504 50.1654 104.112 45.2695 99.2094C40.3736 94.3072 36.9891 88.1015 35.5189 81.331C35.3438 80.4985 35.3419 79.6388 35.5135 78.8056C35.6851 77.9723 36.0264 77.1833 36.5162 76.4877C37.006 75.7921 37.6338 75.2048 38.3605 74.7625C39.0872 74.3201 39.8971 74.0321 40.7399 73.9164C41.5082 73.8153 42.2916 73.7445 43.08 73.7041C43.4945 73.7041 43.9089 73.7041 44.3284 73.7041C51.3527 73.7081 58.0883 76.4993 63.0567 81.4647C68.025 86.4302 70.8199 93.1642 70.828 100.188Z" fill="#21A8F4"/>
<path d="M108.502 81.2861C107.039 88.064 103.659 94.2786 98.7632 99.1893C93.8678 104.1 87.6638 107.5 80.8904 108.983C80.0494 109.171 79.1785 109.181 78.3335 109.013C77.4885 108.844 76.688 108.501 75.9833 108.005C75.2786 107.509 74.6853 106.872 74.2413 106.133C73.7973 105.395 73.5124 104.572 73.405 103.717V103.651C73.254 102.503 73.1797 101.347 73.1826 100.189C73.1827 93.4549 75.7455 86.9731 80.3508 82.0599C84.9562 77.1467 91.2587 74.1703 97.9788 73.735C98.5449 73.6946 99.116 73.6794 99.6922 73.6794C100.92 73.679 102.146 73.7635 103.362 73.9322C104.194 74.0509 104.994 74.3395 105.711 74.7801C106.427 75.2207 107.046 75.8039 107.528 76.4934C108.01 77.1829 108.345 77.9642 108.513 78.7886C108.68 79.6131 108.676 80.4631 108.502 81.2861Z" fill="#21A8F4"/>
<rect x="108.667" y="0.000976562" width="35.8853" height="144.552" fill="#022133" fill-opacity="0.2" style="mix-blend-mode:screen"/>
<rect x="-0.505066" y="0.000976562" width="35.8853" height="144.552" fill="#022133" fill-opacity="0.2" style="mix-blend-mode:screen"/>
<path d="M144.552 109.173L144.552 145.058L0.000548074 145.058L0.000549316 109.173L144.552 109.173Z" fill="#022133" fill-opacity="0.2" style="mix-blend-mode:screen"/>
<rect x="144.552" y="0.000976562" width="35.8853" height="144.552" transform="rotate(90 144.552 0.000976562)" fill="#022133" fill-opacity="0.2" style="mix-blend-mode:screen"/>
</g>
<path d="M124.626 168.462L126.373 165.6L124.61 162.802H125.588L126.923 164.92L128.168 162.802H129.13L127.376 165.64L129.155 168.462H128.176L126.834 166.327L125.588 168.462H124.626Z" fill="#FBFBFB"/>
<path d="M157.732 130.303L159.478 127.44L157.715 124.642H158.694L160.028 126.761L161.274 124.642H162.236L160.481 127.481L162.26 130.303H161.282L159.939 128.168L158.694 130.303H157.732Z" fill="#FBFBFB"/>
<path d="M148.595 109.678H153.397V144.553H148.595" stroke="white" stroke-width="0.505426"/>
<path d="M144.552 150.617L144.552 155.419L109.678 155.419L109.678 150.617" stroke="white" stroke-width="0.505426"/>
<defs>
<clipPath id="clip0_0_2281">
<rect width="144.451" height="144.496" fill="white" transform="translate(0 0.000244141)"/>
</clipPath>
</defs>
</svg>
