<svg width="233" height="91" viewBox="0 0 233 91" fill="none" xmlns="http://www.w3.org/2000/svg">
<rect x="0.394531" y="0.501953" width="232.581" height="89.9733" rx="9.86009" fill="#FBFBFB"/>
<path d="M100.299 30.1538H106.109V53.3931H111.918V24.344H106.109C102.916 24.344 100.299 26.9608 100.299 30.1538ZM117.728 53.4171H123.538V41.7974C123.538 38.6044 120.921 35.9876 117.728 35.9876V53.4171ZM129.348 35.9876V53.4171H135.158V41.7974H140.992V47.6073C140.992 50.8003 143.608 53.4171 146.801 53.4171V41.7974C146.801 38.6044 144.185 35.9876 140.992 35.9876H129.348ZM181.66 35.9876H175.85V30.1778C175.85 26.9848 173.234 24.368 170.041 24.368V47.6073H158.421V41.7974H164.231V35.9876H158.421C155.228 35.9876 152.611 38.6044 152.611 41.7974V47.6073C152.611 50.8003 155.228 53.4171 158.421 53.4171H175.85V41.7974H181.66V47.6073C181.66 50.8003 184.277 53.4171 187.47 53.4171V41.7974C187.494 38.6044 184.877 35.9876 181.66 35.9876ZM117.728 30.1538H123.538C123.538 26.9608 120.921 24.344 117.728 24.344V30.1538Z" fill="black"/>
<path d="M109.349 59.2269V62.9721H108.821L106.733 60.3792V62.9721H106.108V59.2269H106.637L108.725 61.8437V59.2269H109.349ZM121.185 62.9961H118.928V59.2509H121.137V59.8751H119.601V60.8114H120.969V61.4356H119.601V62.3959H121.185V62.9961ZM130.74 59.8511H131.964V62.9961H132.637V59.8511H133.861V59.2269H130.716V59.8511H130.74ZM148.098 59.2269H148.746L147.665 62.9721H147.041L146.129 60.2592L145.217 62.9721H144.592L143.464 59.2269H144.208L144.977 61.9157L145.817 59.2269H146.489L147.353 61.9157L148.098 59.2269ZM158.877 59.7791C158.517 60.1392 158.325 60.6193 158.325 61.1475C158.325 61.7237 158.517 62.1798 158.877 62.5399C159.261 62.9 159.717 63.0681 160.293 63.0681C160.869 63.0681 161.326 62.876 161.71 62.5159C162.094 62.1558 162.286 61.6757 162.286 61.1235C162.286 60.5473 162.094 60.0912 161.71 59.731C161.326 59.3709 160.869 59.2029 160.293 59.2029C159.717 59.2269 159.261 59.4189 158.877 59.7791ZM159.381 62.1078C159.141 61.8677 159.021 61.5316 159.021 61.1715C159.021 60.7874 159.141 60.4753 159.381 60.2112C159.621 59.9711 159.933 59.8511 160.293 59.8511C160.653 59.8511 160.966 59.9711 161.206 60.2112C161.446 60.4513 161.566 60.7874 161.566 61.1715C161.566 61.5556 161.446 61.8677 161.23 62.1078C160.99 62.3479 160.701 62.4919 160.293 62.4919C159.933 62.4919 159.621 62.3719 159.381 62.1078ZM172.513 61.5796V62.9961H171.841V59.2509C172.033 59.2509 172.225 59.2509 172.465 59.2509C172.681 59.2509 172.873 59.2509 173.017 59.2509C173.93 59.2509 174.386 59.635 174.386 60.4033C174.386 60.6913 174.314 60.9314 174.17 61.1235C174.026 61.2915 173.858 61.4356 173.665 61.4836L174.866 63.0201H174.05L172.993 61.6036H172.513V61.5796ZM172.969 59.8511C172.945 59.8511 172.921 59.8511 172.873 59.8511C172.825 59.8511 172.777 59.8511 172.705 59.8511H172.513V60.9794H172.945C173.161 60.9794 173.329 60.9314 173.473 60.8354C173.617 60.7394 173.689 60.5953 173.689 60.4033C173.689 60.0191 173.449 59.8511 172.969 59.8511ZM184.421 62.9961H185.093V61.0515L186.654 62.9961H187.494L185.837 60.9794L187.398 59.2269H186.606L185.117 61.0034V59.2269H184.445V62.9961H184.421Z" fill="#2F7AEA"/>
<path d="M55.6684 47.1751L57.0128 36.972L45.2251 28.7854L56.0045 32.4105L58.5493 28.5213L67.8402 22.7595L88.3185 34.043L89.3749 51.2564L80.252 63.9084L73.0498 65.0127L76.7709 58.1946V51.6165L74.0581 46.4789L71.2972 44.6544L67.0479 49.0237V53.6332L63.7349 56.7301L59.5336 57.2343L57.661 58.2906L54.612 57.3063L53.3636 52.7689L55.6443 49.5519V47.1751H55.6684Z" fill="white"/>
<path d="M74.4657 28.6892C72.209 28.2331 69.7602 28.3531 69.7602 28.3531C69.7602 28.3531 68.9439 32.0743 63.9504 33.0586C63.9984 33.0586 70.5764 35.2913 74.4657 28.6892ZM76.5063 62.5158C79.2191 60.4031 81.2598 57.4742 82.1961 54.1612C82.2441 54.0412 82.6282 53.8251 82.8683 53.657C83.3004 53.393 83.7086 53.2009 83.8046 52.8408C83.9726 51.8565 84.0687 50.8482 84.0687 49.8398C84.0687 49.4557 83.6845 49.0716 83.3004 48.6875C83.0123 48.4234 82.7002 48.1353 82.7002 47.9192C82.2681 44.054 80.4915 40.4529 77.6587 37.8361L77.3706 38.1242C80.1314 40.717 81.908 44.2221 82.2921 47.9673C82.3401 48.3034 82.6762 48.6395 83.0123 48.9756C83.3004 49.2397 83.6365 49.5998 83.6365 49.7918C83.6365 50.7761 83.5405 51.7364 83.3724 52.7207C83.3244 52.8888 82.9403 53.0569 82.6522 53.2249C82.2201 53.441 81.836 53.657 81.7639 53.9931C80.7556 57.5943 78.4269 60.7393 75.3299 62.7559C75.8821 61.5795 77.6106 57.7143 78.5469 55.7697L78.3789 49.5037L73.0012 44.2941L69.9523 44.7263L66.6152 50.1519C66.6152 50.1519 68.1757 52.1446 65.991 54.4733C63.8303 56.754 62.1258 57.2822 62.1258 57.2822L60.5653 56.4419C61.0215 55.8417 61.9578 54.9534 62.678 54.3533C63.9024 53.3449 65.1267 53.2489 65.1267 52.1446C65.1748 49.8639 62.702 50.4881 62.702 50.4881L61.8137 51.3283L61.4296 54.4733L59.557 56.802L59.3409 56.754L56.292 56.0818C56.292 56.0818 58.1646 55.0975 58.4527 53.9931C58.7408 52.9368 57.8525 49.4077 57.8285 49.2156C57.8765 49.2637 58.7168 49.9839 59.1009 51.1603C59.7731 49.2877 60.6614 47.5111 60.9254 47.3431C61.1895 47.175 64.6226 45.3504 64.6226 45.3504L63.4702 48.3514L64.3105 47.8952L66.3511 42.9017C66.3511 42.9017 68.3438 41.9174 69.8322 41.9174C72.4971 41.8694 76.4343 38.6043 74.6577 32.7705C75.1619 32.9866 83.9726 37.38 85.5091 46.0467C86.6375 52.6727 82.8683 58.9147 76.5063 62.5158Z" fill="#94A6C3"/>
<path d="M66.4234 29.6254C67.4077 28.4731 67.0236 26.7925 67.0236 26.7925L64.1667 30.9699C64.1427 30.9699 65.199 31.0179 66.4234 29.6254ZM56.8925 52.5526L57.2286 50.8481C57.2286 50.8481 55.8361 53.2968 55.6921 53.6569C55.572 54.0411 55.7881 54.7133 56.3163 54.6653C56.8684 54.6172 57.5407 53.825 57.5407 53.2248C57.5647 52.4566 56.8925 52.5526 56.8925 52.5526ZM82.0523 25.5922C82.0523 25.5922 84.165 25.6882 86.3737 25.9283C81.4041 22.0391 76.6986 20.8867 72.9055 20.8867C67.6478 20.8867 64.0947 23.0474 63.8786 23.1674L65.5352 20.5506C65.5352 20.5506 58.9331 19.9264 56.5804 26.9126C55.9802 25.4241 55.428 23.2634 55.428 23.2634C55.428 23.2634 51.9949 26.2644 53.6034 31.282C49.6662 29.8415 44.0244 27.8489 43.8084 27.8009C43.5203 27.7529 43.4243 27.8969 43.4243 27.8969C43.4243 27.8969 43.3282 28.0169 43.5923 28.233C44.0484 28.6171 52.9552 35.1952 54.8998 36.4436C54.4677 37.98 54.4677 38.7003 54.8998 39.4205C55.5 40.4048 55.524 40.909 55.452 41.6292C55.356 42.3494 54.6117 48.5914 54.4437 49.3356C54.2756 50.1038 52.4991 52.8167 52.5711 53.6089C52.6671 54.4252 53.7475 57.8582 54.7318 58.2184C55.452 58.4824 57.2286 59.0346 58.4289 59.0346C58.8611 59.0346 59.2452 58.9386 59.4132 58.7705C60.1335 58.1463 60.3495 58.0023 60.8537 58.0023C60.9017 58.0023 60.9497 58.0023 60.9737 58.0023C61.1898 58.0023 61.4299 58.0503 61.742 58.0503C62.4142 58.0503 63.3025 57.9303 63.9507 57.3301C64.8869 56.3938 66.4955 55.1214 66.9996 54.5212C67.6238 53.705 67.9839 52.6246 67.8159 51.5203C67.6958 50.512 68.248 49.6237 68.8722 48.7114C69.6884 47.6551 71.1529 45.7345 71.1529 45.7345C74.0818 47.9432 75.9064 51.2802 75.9064 55.0254C75.9064 61.6274 70.1446 66.9811 63.0144 66.9811C61.91 66.9811 60.8537 66.8611 59.7974 66.597C63.0624 67.7493 65.8232 68.1335 68.0559 68.1335C72.8334 68.1335 75.3782 66.4049 75.3782 66.4049C75.3782 66.4049 74.4899 67.5573 73.0495 68.8537C73.0975 68.8537 73.0975 68.8537 73.0975 68.8537C81.02 67.7493 84.8852 61.2193 84.8852 61.2193C84.8852 61.2193 84.5971 63.332 84.213 64.7724C94.7763 56.8499 92.9757 46.9348 92.9517 46.5987C93.0477 46.7188 94.1041 47.9912 94.6562 48.6874C96.3368 31.2339 82.0523 25.5922 82.0523 25.5922ZM65.8232 53.4889C65.6552 53.705 64.935 54.3291 64.4308 54.8093C63.9266 55.2654 63.3745 55.7456 62.9423 56.1537C62.7743 56.3218 62.4382 56.4178 61.934 56.4178C61.766 56.4178 61.5979 56.4178 61.4779 56.4178C61.3819 56.4178 61.3098 56.4178 61.2138 56.4178C61.1178 56.4178 61.0938 56.4178 61.0458 56.4178C60.9257 56.4178 60.7817 56.4178 60.6616 56.4178C61.2858 55.5775 63.1584 53.6089 63.8066 53.2008C64.5749 52.6966 64.959 52.1925 64.4788 51.3042C64.0227 50.4159 62.7743 50.632 62.7743 50.632C62.7743 50.632 63.4945 50.3439 64.1187 50.3439C63.3025 50.1278 62.2941 50.3439 61.838 50.8C61.3338 51.2562 61.4059 52.9127 61.2138 53.969C60.9977 55.0734 60.2775 55.6256 59.1732 56.6339C58.573 57.186 58.1649 57.3541 57.8287 57.3541C57.1085 57.2341 56.2683 57.018 55.6681 56.8019C55.2359 56.2497 54.6117 54.4252 54.4437 53.6569C54.5637 53.2248 55.0679 52.3365 55.332 51.8324C55.8361 50.8481 56.1482 50.2959 56.2202 49.7917C56.3883 49.0715 56.9405 44.6301 57.1565 42.7575C57.7087 43.4778 58.4769 44.6541 58.3089 45.4224C59.5333 43.6938 58.645 41.9893 58.2129 41.3171C57.8287 40.6449 57.3246 39.2764 57.7567 37.836C58.1889 36.3955 59.7013 32.4103 59.7013 32.4103C59.7013 32.4103 60.2055 33.2986 60.9257 33.1305C61.6459 32.9625 67.4557 24.2237 67.4557 24.2237C67.4557 24.2237 69.0162 27.6568 67.3597 30.1536C65.6552 32.6504 64.0227 33.1305 64.0227 33.1305C64.0227 33.1305 66.3514 33.5627 68.5121 31.9782C69.4004 34.0668 70.2406 36.2275 70.2886 36.5156C70.1686 36.8037 68.4641 40.885 68.296 41.125C68.2 41.2211 67.6238 41.3891 67.1917 41.4611C66.4714 41.6772 66.0393 41.7972 65.8713 41.9173C65.5832 42.1814 64.2147 45.9025 63.5905 47.7271C62.8223 47.9432 62.0541 48.3513 61.5019 49.2155C61.79 48.9995 62.7263 48.8794 63.3985 48.7834C63.9987 48.7354 65.8232 49.7197 66.2794 51.5443C66.2794 51.5923 66.2794 51.5923 66.2794 51.6403C66.3754 52.3365 66.1593 52.9847 65.8232 53.4889ZM61.838 53.993C62.2221 53.4409 62.1741 52.5046 62.2221 52.2165C62.2701 51.9284 62.3422 51.3762 62.6783 51.2802C63.0144 51.1842 63.8306 51.3282 63.8306 51.9044C63.8306 52.4566 63.2304 52.5766 62.8223 52.9607C62.5342 53.2728 61.934 53.897 61.838 53.993ZM78.7633 45.9025C79.1954 43.7418 79.2194 41.8693 79.0994 40.3568C80.7559 42.5655 81.7642 45.2303 82.0763 47.9912C82.1243 48.3273 82.4604 48.6634 82.7965 48.9995C83.0846 49.2636 83.4207 49.5997 83.4207 49.8157C83.4207 50.8 83.3247 51.7603 83.1567 52.7447C83.1086 52.8647 82.7245 53.0808 82.4364 53.2488C82.0043 53.4649 81.6202 53.6809 81.5481 54.017C80.6119 57.2821 78.6192 60.163 75.9544 62.2036C79.8916 58.0743 81.8122 51.2802 78.7633 45.9025ZM76.0984 62.5637C78.8593 60.4511 80.972 57.4741 81.9083 54.1371C81.9563 54.017 82.3404 53.801 82.5805 53.6329C83.0126 53.4169 83.4207 53.1768 83.5168 52.8167C83.6848 51.8324 83.7808 50.8241 83.7808 49.8157C83.7808 49.4316 83.3967 49.0475 83.0126 48.6634C82.7965 48.3993 82.4604 48.1112 82.4604 47.8951C82.1243 44.7982 80.8999 41.8693 78.9793 39.4685C78.1391 34.3789 74.73 32.8184 74.658 32.7704C74.754 32.8905 76.9387 36.0835 75.4262 39.8046C73.8657 43.5738 69.8325 42.9736 69.4964 43.0216C69.1603 43.0216 67.8399 44.7262 66.1834 47.8471C65.9673 47.7511 65.079 47.559 64.0707 47.7271C64.8389 45.6144 65.9673 42.5895 66.1834 42.3494C66.2794 42.2534 66.9036 42.0853 67.3357 41.9653C68.152 41.7492 68.5121 41.6292 68.6561 41.4611C68.7522 41.3411 69.1603 40.3568 69.5924 39.3485C69.9765 39.3485 70.9368 39.2524 71.0329 39.2284C71.1289 39.1324 71.9211 37.0678 71.9211 36.8037C71.9211 36.5876 70.2646 32.4823 69.6404 30.9218C69.9285 30.5857 70.2406 30.1536 70.5287 29.6975C79.2194 30.6337 85.9895 38.0041 85.9895 46.9588C85.9655 53.777 81.9323 59.7548 76.0984 62.5637ZM64.8149 39.6606C65.6312 38.7243 65.199 36.9957 63.7106 36.6836C64.0947 35.7954 64.6469 34.0188 64.6469 34.0188C64.6469 34.0188 60.3255 40.7889 59.9414 40.933C59.5573 41.053 59.1732 39.5886 59.1732 39.5886C58.3569 42.6855 60.5176 43.1176 60.7817 42.1333C61.982 41.8212 63.9987 40.5488 64.8149 39.6606Z" fill="#1B314F"/>
<path d="M61.1177 41.317L63.3264 37.5479C63.3264 37.5479 64.5988 38.172 63.9506 39.2044C63.1583 40.3807 61.1177 41.317 61.1177 41.317Z" fill="#FFD923"/>
<path d="M88.3662 58.7945C87.742 59.6348 87.0218 60.5231 86.1575 61.3873C91.6312 50.8721 86.4216 41.2451 86.2055 40.8849C86.5897 41.2691 86.9738 41.7012 87.3099 42.0613C91.5112 46.6948 92.0154 53.7049 88.3662 58.7945ZM93.4558 45.2543C91.5592 40.1167 88.8464 35.7713 82.8685 31.8101C77.1067 27.9929 70.9128 28.281 70.5767 28.329C70.5286 28.329 70.4806 28.329 70.4806 28.329C70.6967 28.233 70.9128 28.209 71.1048 28.161C72.4252 27.7288 74.1058 27.3927 75.8103 27.1767C80.2997 26.5525 84.8371 28.0649 87.9341 31.33C87.9821 31.378 87.9821 31.378 88.0301 31.426C91.5592 35.1712 93.3838 39.8286 93.4558 45.2543ZM81.5001 24.2718C75.1861 23.0954 71.1048 23.6716 68.1999 24.7759C68.1039 24.4398 67.8158 23.7676 67.5757 23.2154C66.6874 24.2718 65.7512 25.5442 65.151 26.3604C63.5425 27.4648 62.8703 28.5211 62.8703 28.5211C63.8065 25.3521 66.5194 22.9754 69.8324 22.3752C70.7687 22.2071 71.777 22.1111 72.8814 22.1111C75.7863 22.1591 78.7152 22.8793 81.5001 24.2718ZM58.1648 32.4103C53.1952 32.2422 54.8517 26.4804 54.9478 26.1443C54.9478 26.1924 55.2839 30.6818 58.1648 32.4103ZM63.0383 22.0391C59.2211 24.3198 59.9894 29.7935 59.9894 29.7935C56.3402 24.2477 62.7262 22.1591 63.0383 22.0391Z" fill="#D82122"/>
<path d="M56.773 33.9467C57.0371 34.1627 57.2772 34.5468 56.9891 35.099C56.8211 35.3871 56.557 35.3631 56.1729 35.195C55.6687 34.931 52.6197 33.1544 49.8589 31.3298C53.0039 32.4342 56.1729 33.6105 56.677 33.8746C56.677 33.8506 56.725 33.8986 56.773 33.9467Z" fill="white"/>
</svg>
