<svg width="234" height="91" viewBox="0 0 234 91" fill="none" xmlns="http://www.w3.org/2000/svg">
<rect x="0.500488" y="0.75" width="232.581" height="89.9733" rx="9.86009" fill="url(#paint0_linear_38_5366)"/>
<path d="M167.769 49.0061H164.546C164.297 48.9998 164.06 48.8994 163.883 48.7255C163.706 48.5517 163.605 48.3177 163.598 48.0719V47.3246C163.605 47.0788 163.706 46.8448 163.883 46.671C164.06 46.4971 164.297 46.3967 164.546 46.3904H167.302C167.553 46.3904 167.794 46.2919 167.972 46.1168C168.15 45.9416 168.25 45.704 168.25 45.4562C168.25 45.2084 168.15 44.9708 167.972 44.7956C167.794 44.6204 167.553 44.522 167.302 44.522H164.521C164.271 44.5157 164.034 44.4152 163.858 44.2414C163.681 44.0675 163.579 43.8336 163.573 43.5878V42.8404C163.579 42.5947 163.681 42.3607 163.858 42.1868C164.034 42.013 164.271 41.9125 164.521 41.9062H167.681C167.932 41.9062 168.173 41.8078 168.351 41.6326C168.529 41.4574 168.629 41.2198 168.629 40.9721C168.629 40.7243 168.529 40.4867 168.351 40.3115C168.173 40.1362 167.932 40.0378 167.681 40.0378H163.889C163.741 40.0349 163.597 40.0832 163.481 40.1742C163.366 40.2652 163.287 40.3933 163.257 40.5361L161.235 49.9403V50.1272C161.27 50.3455 161.387 50.5429 161.563 50.6811C161.738 50.8192 161.959 50.8882 162.183 50.8745H167.744C167.996 50.8745 168.236 50.7761 168.415 50.6009C168.592 50.4257 168.692 50.1881 168.692 49.9403C168.692 49.6926 168.592 49.4549 168.415 49.2798C168.236 49.1045 167.996 49.0061 167.744 49.0061H167.769Z" fill="white"/>
<path d="M97.6227 40.1003H96.3588C96.173 40.1027 95.991 40.1565 95.8349 40.2556C95.6782 40.3547 95.5537 40.4951 95.4741 40.6609L92.6935 47.2626C92.6935 47.279 92.6865 47.2949 92.6751 47.3066C92.6631 47.3183 92.6473 47.3248 92.6303 47.3248C92.5671 47.3248 92.5671 47.3248 92.5671 47.2626L89.7865 40.6609C89.7189 40.4924 89.6102 40.3428 89.4705 40.2249C89.2177 40.0381 88.9017 40.2872 88.8385 40.5986L86.7531 50.1274C86.7367 50.2353 86.7588 50.3455 86.8163 50.4388C86.8921 50.5894 87.009 50.7159 87.1544 50.804C87.2997 50.8921 87.4672 50.9382 87.6378 50.9371H88.017C88.2622 50.9245 88.4929 50.8214 88.6641 50.6482C88.8354 50.475 88.9333 50.2445 88.9397 50.0028V43.8994C88.9397 43.8829 88.9466 43.8671 88.958 43.8554C88.97 43.8437 88.9858 43.8372 89.0028 43.8372C89.0199 43.8372 89.0357 43.8437 89.0477 43.8554C89.0591 43.8671 89.066 43.8829 89.066 43.8994L91.6571 50.3143C91.726 50.4876 91.8486 50.635 92.0072 50.7357C92.1664 50.8363 92.3535 50.885 92.5418 50.8748H92.7946C92.9804 50.8724 93.1624 50.8186 93.3185 50.7195C93.4752 50.6205 93.5997 50.48 93.6793 50.3143L96.2703 43.9617C96.2703 43.9452 96.2773 43.9294 96.2887 43.9177C96.3007 43.906 96.3165 43.8994 96.3335 43.8994C96.3506 43.8994 96.3664 43.906 96.3784 43.9177C96.3898 43.9294 96.3967 43.9452 96.3967 43.9617V50.0028C96.4031 50.2486 96.5048 50.4826 96.6817 50.6565C96.8581 50.8303 97.095 50.9307 97.3447 50.9371H97.7238C97.9735 50.9307 98.2104 50.8303 98.3868 50.6565C98.5637 50.4826 98.6655 50.2486 98.6718 50.0028V41.0346C98.6282 40.7855 98.5018 40.558 98.3116 40.3886C98.1207 40.2192 97.8787 40.1177 97.6227 40.1003Z" fill="white"/>
<path d="M126.567 45.145H123.786C123.551 45.145 123.327 45.2368 123.16 45.4004C122.994 45.5639 122.901 45.7856 122.901 46.0169C122.901 46.2481 122.994 46.4699 123.16 46.6334C123.327 46.7969 123.551 46.8888 123.786 46.8888H124.292C124.797 46.8888 125.303 47.3247 125.05 47.823C124.671 48.6326 123.912 49.0686 122.712 49.0686C120.942 49.0686 119.868 47.7607 119.868 45.5187C119.868 43.2766 121.005 41.9687 122.712 41.9687C123.107 41.9486 123.502 42.0297 123.856 42.2044C124.211 42.379 124.513 42.6411 124.734 42.9652C124.832 43.1468 124.978 43.2997 125.155 43.409C125.333 43.5182 125.536 43.58 125.745 43.588H126.314C126.441 43.5982 126.57 43.5776 126.688 43.5279C126.806 43.4783 126.91 43.4011 126.991 43.303C127.071 43.2048 127.127 43.0888 127.152 42.9648C127.178 42.8409 127.171 42.7127 127.135 42.5915C126.741 41.775 126.111 41.0913 125.324 40.6259C124.537 40.1607 123.629 39.9345 122.712 39.9757C119.805 39.9757 117.593 42.031 117.593 45.5187C117.593 49.0063 119.678 51.0616 122.775 51.0616C125.555 51.0616 127.514 49.3177 127.514 46.5151V46.0792C127.517 45.9558 127.494 45.8331 127.448 45.7187C127.401 45.6042 127.331 45.5002 127.243 45.4129C127.154 45.3257 127.049 45.2569 126.932 45.2109C126.816 45.1648 126.692 45.1424 126.567 45.145Z" fill="white"/>
<path d="M110.135 40.7232C110.07 40.5425 109.951 40.3857 109.793 40.2743C109.634 40.1629 109.445 40.1022 109.25 40.1003H107.607C107.413 40.1022 107.224 40.1629 107.065 40.2743C106.907 40.3857 106.788 40.5425 106.723 40.7232L103.563 49.6915C103.515 49.8316 103.502 49.9808 103.524 50.1271C103.545 50.2733 103.601 50.4125 103.687 50.5336C103.773 50.6547 103.887 50.7542 104.019 50.8243C104.151 50.8943 104.298 50.933 104.448 50.9371H104.953C105.148 50.9352 105.337 50.8745 105.495 50.7631C105.653 50.6517 105.773 50.4949 105.838 50.3143L106.217 49.1309C106.282 48.9502 106.402 48.7935 106.56 48.6821C106.718 48.5707 106.907 48.51 107.102 48.5081H109.693C109.887 48.51 110.076 48.5707 110.235 48.6821C110.393 48.7935 110.512 48.9502 110.578 49.1309L110.957 50.3143C111.022 50.4949 111.141 50.6517 111.299 50.7631C111.458 50.8745 111.647 50.9352 111.841 50.9371H112.347C112.497 50.933 112.644 50.8943 112.775 50.8243C112.908 50.7542 113.021 50.6547 113.107 50.5336C113.193 50.4125 113.249 50.2733 113.271 50.1271C113.292 49.9808 113.279 49.8316 113.232 49.6915L110.135 40.7232ZM108.53 46.6398H108.34C108.191 46.6357 108.043 46.597 107.911 46.527C107.78 46.4569 107.666 46.3574 107.58 46.2363C107.494 46.1152 107.438 45.976 107.417 45.8298C107.395 45.6835 107.408 45.5343 107.456 45.3942L108.404 42.5293C108.404 42.5128 108.411 42.4969 108.422 42.4852C108.434 42.4736 108.45 42.467 108.467 42.467C108.484 42.467 108.5 42.4736 108.512 42.4852C108.523 42.4969 108.53 42.5128 108.53 42.5293L109.478 45.3942C109.512 45.5387 109.514 45.6889 109.483 45.8342C109.453 45.9795 109.389 46.1164 109.299 46.2351C109.209 46.3539 109.093 46.4517 108.96 46.5216C108.827 46.5915 108.68 46.6318 108.53 46.6398Z" fill="white"/>
<path d="M133.896 40.1003H133.454C133.204 40.1067 132.967 40.2071 132.791 40.381C132.614 40.5548 132.512 40.7888 132.506 41.0346V50.0028C132.512 50.2486 132.614 50.4826 132.791 50.6565C132.967 50.8303 133.204 50.9307 133.454 50.9371H133.896C134.146 50.9307 134.383 50.8303 134.559 50.6565C134.736 50.4826 134.838 50.2486 134.844 50.0028V41.0346C134.828 40.7921 134.723 40.5637 134.548 40.3919C134.374 40.22 134.142 40.1165 133.896 40.1003Z" fill="white"/>
<path d="M144.956 41.9689C145.382 41.9574 145.804 42.0546 146.18 42.251C146.556 42.4474 146.875 42.7365 147.105 43.09C147.186 43.3069 147.333 43.4943 147.524 43.6277C147.717 43.761 147.945 43.8342 148.179 43.8373H148.622C148.749 43.8476 148.878 43.827 148.996 43.7773C149.114 43.7276 149.217 43.6504 149.298 43.5523C149.379 43.4542 149.435 43.3381 149.46 43.2141C149.485 43.0902 149.48 42.9621 149.443 42.8409C148.811 40.9725 147.105 39.9137 144.893 39.9137C141.986 39.9137 139.774 41.9066 139.774 45.4566C139.774 49.0065 141.923 50.9995 144.893 50.9995C147.231 50.9995 148.811 49.7539 149.38 48.1969C149.417 48.0757 149.422 47.9475 149.397 47.8236C149.372 47.6996 149.316 47.5836 149.235 47.4855C149.154 47.3873 149.051 47.3101 148.932 47.2604C148.815 47.2108 148.686 47.1902 148.558 47.2004H148.053C147.823 47.2204 147.602 47.3001 147.413 47.4314C147.225 47.5626 147.075 47.7409 146.978 47.9478C146.768 48.3044 146.462 48.5974 146.094 48.795C145.727 48.9926 145.311 49.0874 144.893 49.0688C143.25 49.0688 142.112 47.8232 142.112 45.5189C142.112 43.2145 143.25 41.9689 144.956 41.9689Z" fill="white"/>
<path d="M177.691 40.1003H174.721C174.472 40.1067 174.235 40.2071 174.058 40.381C173.881 40.5548 173.78 40.7888 173.773 41.0346V50.0028C173.78 50.2486 173.881 50.4826 174.058 50.6565C174.235 50.8303 174.472 50.9307 174.721 50.9371H177.691C181.041 50.9371 183.063 48.8818 183.063 45.5187C183.063 42.1556 180.977 40.1003 177.691 40.1003ZM177.565 48.9441H177.059C176.81 48.9378 176.573 48.8373 176.396 48.6635C176.219 48.4896 176.118 48.2557 176.111 48.0099V42.9653C176.118 42.7195 176.219 42.4855 176.396 42.3116C176.573 42.1378 176.81 42.0374 177.059 42.031H177.565C179.65 42.031 180.725 43.0898 180.725 45.4564C180.725 47.823 179.65 48.9441 177.565 48.9441Z" fill="white"/>
<path d="M194.438 49.0066H191.215C190.966 49.0003 190.729 48.8999 190.552 48.726C190.375 48.5522 190.274 48.3182 190.267 48.0724V47.325C190.274 47.0793 190.375 46.8453 190.552 46.6715C190.729 46.4976 190.966 46.3971 191.215 46.3909H193.996C194.247 46.3909 194.488 46.2924 194.666 46.1172C194.844 45.9421 194.944 45.7044 194.944 45.4567C194.944 45.2089 194.844 44.9713 194.666 44.7961C194.488 44.6209 194.247 44.5224 193.996 44.5224H191.215C190.966 44.5162 190.729 44.4157 190.552 44.2418C190.375 44.068 190.274 43.834 190.267 43.5883V42.8409C190.274 42.5952 190.375 42.3611 190.552 42.1873C190.729 42.0134 190.966 41.913 191.215 41.9067H194.375C194.626 41.9067 194.867 41.8083 195.045 41.6331C195.223 41.4579 195.323 41.2203 195.323 40.9726C195.323 40.7248 195.223 40.4871 195.045 40.312C194.867 40.1367 194.626 40.0383 194.375 40.0383H188.877C188.627 40.0446 188.39 40.1451 188.214 40.3189C188.037 40.4928 187.935 40.7267 187.929 40.9726V49.9408C187.935 50.1866 188.037 50.4205 188.214 50.5944C188.39 50.7682 188.627 50.8687 188.877 50.875H194.438C194.688 50.8687 194.925 50.7682 195.101 50.5944C195.278 50.4205 195.38 50.1866 195.386 49.9408C195.389 49.8174 195.366 49.6948 195.319 49.5803C195.272 49.4658 195.203 49.3618 195.114 49.2746C195.026 49.1873 194.92 49.1186 194.804 49.0725C194.688 49.0265 194.563 49.0041 194.438 49.0066Z" fill="white"/>
<path d="M208.719 40.1003H208.277C208.027 40.1067 207.79 40.2071 207.614 40.381C207.437 40.5548 207.335 40.7888 207.329 41.0346V46.8266C207.329 46.8889 207.329 46.8889 207.266 46.8889H207.203L202.779 40.5363C202.693 40.4176 202.579 40.3215 202.447 40.2564C202.315 40.1913 202.169 40.1591 202.021 40.1627H201.427C201.177 40.169 200.94 40.2694 200.764 40.4432C200.587 40.6171 200.485 40.851 200.479 41.0969V50.0652C200.485 50.3109 200.587 50.5449 200.764 50.7187C200.94 50.8926 201.177 50.993 201.427 50.9993H201.869C202.119 50.993 202.356 50.8926 202.532 50.7187C202.709 50.5449 202.811 50.3109 202.817 50.0652V44.2108C202.817 44.1943 202.824 44.1785 202.835 44.1668C202.847 44.1551 202.863 44.1485 202.88 44.1485H202.943L207.43 50.5011C207.516 50.6198 207.63 50.7159 207.762 50.781C207.894 50.8462 208.041 50.8784 208.189 50.8748H208.757C209.007 50.8684 209.244 50.768 209.42 50.5942C209.597 50.4203 209.699 50.1864 209.705 49.9406V40.9723C209.662 40.7398 209.542 40.5279 209.364 40.37C209.185 40.2121 208.959 40.1173 208.719 40.1003Z" fill="white"/>
<path d="M59.4708 38.1262L62.3968 41.564C62.7317 41.9502 63.0287 42.2678 63.1488 42.4484C64.0239 43.318 64.5145 44.4933 64.5138 45.7181C64.4317 47.163 63.49 48.147 62.618 49.1995L60.5704 51.6035L59.5024 52.8491C59.4641 52.892 59.4394 52.9451 59.4313 53.0018C59.4233 53.0584 59.4323 53.1161 59.4572 53.1678C59.482 53.2195 59.5217 53.2629 59.5713 53.2926C59.6209 53.3222 59.6782 53.3369 59.7362 53.3349H70.41C72.0404 53.3349 74.0943 54.7051 73.9742 56.7852C73.9709 57.7306 73.5883 58.6365 72.9099 59.3049C72.2316 59.9735 71.3125 60.3505 70.3531 60.3538H53.6379C52.5382 60.3538 49.5807 60.4722 48.7528 57.9498C48.5768 57.4227 48.5527 56.8579 48.6833 56.3181C48.924 55.52 49.3047 54.7695 49.8082 54.1009C50.6487 52.8553 51.5587 51.6097 52.4561 50.4015C53.6126 48.8196 54.8007 47.2875 55.9698 45.6745C56.0113 45.622 56.0339 45.5573 56.0339 45.4908C56.0339 45.4242 56.0113 45.3596 55.9698 45.307L51.723 40.3246C51.6953 40.2886 51.6595 40.2592 51.6184 40.2391C51.5773 40.2189 51.532 40.2084 51.486 40.2084C51.4401 40.2084 51.3948 40.2189 51.3537 40.2391C51.3126 40.2592 51.2767 40.2886 51.2491 40.3246C50.1115 41.838 45.1317 48.5394 44.07 49.8971C43.0084 51.2548 40.3921 51.3295 38.9449 49.8971L32.303 43.3266C32.2606 43.2846 32.2065 43.256 32.1476 43.2444C32.0886 43.2328 32.0275 43.2387 31.972 43.2614C31.9165 43.2841 31.869 43.3225 31.8357 43.3718C31.8024 43.4211 31.7847 43.4791 31.7848 43.5383V56.1749C31.8004 57.0716 31.531 57.9507 31.0142 58.6889C30.4975 59.4271 29.7593 59.9875 28.9031 60.2915C28.356 60.4792 27.7714 60.5352 27.1978 60.455C26.6243 60.3747 26.0786 60.1605 25.6062 59.8302C25.1337 59.4999 24.7482 59.063 24.4819 58.5561C24.2156 58.0492 24.076 57.4869 24.075 56.916V34.1963C24.1131 33.3775 24.412 32.5915 24.9293 31.9497C25.4466 31.308 26.156 30.8432 26.9567 30.6215C27.6435 30.4412 28.3664 30.443 29.0523 30.6267C29.7382 30.8104 30.3625 31.1696 30.8622 31.6678L41.0746 41.7446C41.1052 41.7752 41.1421 41.7989 41.183 41.8138C41.2238 41.8287 41.2676 41.8346 41.311 41.831C41.3544 41.8275 41.3965 41.8145 41.4343 41.7932C41.4721 41.7718 41.5046 41.7424 41.5296 41.7072L48.7844 31.811C49.1197 31.4093 49.54 31.0846 50.016 30.8598C50.4919 30.6349 51.012 30.5154 51.5398 30.5094H70.41C70.9264 30.5102 71.4367 30.6197 71.9067 30.8305C72.3767 31.0414 72.7957 31.3487 73.1355 31.7319C73.4753 32.1152 73.7281 32.5655 73.8771 33.0528C74.0261 33.5401 74.0679 34.0531 73.9995 34.5575C73.8665 35.4326 73.416 36.2305 72.7315 36.8031C72.047 37.3757 71.175 37.6843 70.2773 37.6716H59.711C59.6579 37.6728 59.6061 37.6881 59.561 37.7158C59.5159 37.7435 59.4792 37.7826 59.4547 37.829C59.4302 37.8754 59.4187 37.9275 59.4216 37.9798C59.4244 38.032 59.4414 38.0826 59.4708 38.1262Z" fill="white"/>
<defs>
<linearGradient id="paint0_linear_38_5366" x1="258.001" y1="0.749997" x2="2.72304" y2="96.6402" gradientUnits="userSpaceOnUse">
<stop stop-color="#FF007A"/>
<stop offset="1" stop-color="#7059FE"/>
</linearGradient>
</defs>
</svg>
