<svg width="234" height="91" viewBox="0 0 234 91" fill="none" xmlns="http://www.w3.org/2000/svg">
<rect x="0.654785" y="0.833984" width="232.581" height="89.9733" rx="9.86009" fill="#2081E2"/>
<g clip-path="url(#clip0_464_2217)">
<path d="M70.0331 45.8764C70.0331 56.8532 61.1335 65.7528 50.1567 65.7528C39.1799 65.7528 30.2803 56.8532 30.2803 45.8764C30.2803 34.8996 39.1799 26 50.1567 26C61.1358 26 70.0331 34.8996 70.0331 45.8764Z" fill="white"/>
<path d="M40.086 46.5444L40.1718 46.4096L45.3424 38.3208C45.418 38.2023 45.5956 38.2146 45.6528 38.3432C46.5166 40.2791 47.262 42.6868 46.9128 44.1857C46.7637 44.8025 46.3553 45.6377 45.8958 46.4096C45.8366 46.5219 45.7713 46.6322 45.7018 46.7384C45.6691 46.7874 45.614 46.816 45.5548 46.816H40.2371C40.0942 46.816 40.0104 46.6608 40.086 46.5444Z" fill="white"/>
<path d="M63.1338 48.0474V49.3278C63.1338 49.4013 63.0889 49.4667 63.0235 49.4953C62.6233 49.6668 61.253 50.2958 60.6833 51.0881C59.2293 53.1119 58.1184 56.0055 55.6351 56.0055H45.2755C41.6038 56.0055 38.6284 53.02 38.6284 49.336V49.2176C38.6284 49.1195 38.708 49.0399 38.8061 49.0399H44.5812C44.6955 49.0399 44.7793 49.1461 44.7691 49.2584C44.7282 49.6341 44.7977 50.0181 44.9753 50.3672C45.3184 51.0636 46.029 51.4986 46.7969 51.4986H49.6558V49.2666H46.8295C46.6846 49.2666 46.5988 49.0991 46.6825 48.9807C46.7131 48.9337 46.7479 48.8847 46.7846 48.8296C47.0522 48.4497 47.434 47.8596 47.8139 47.1877C48.0732 46.7344 48.3244 46.2504 48.5266 45.7643C48.5674 45.6765 48.6001 45.5866 48.6327 45.4988C48.6879 45.3436 48.7451 45.1987 48.7859 45.0537C48.8268 44.9311 48.8594 44.8025 48.8921 44.682C48.9881 44.2695 49.0289 43.8325 49.0289 43.3791C49.0289 43.2015 49.0208 43.0156 49.0044 42.838C48.9962 42.644 48.9717 42.45 48.9472 42.256C48.9309 42.0844 48.9003 41.9149 48.8676 41.7373C48.8268 41.4779 48.7696 41.2206 48.7042 40.9613L48.6817 40.8633C48.6327 40.6856 48.5919 40.5161 48.5347 40.3384C48.3734 39.7809 48.1876 39.2377 47.9915 38.7292C47.92 38.5271 47.8384 38.3331 47.7567 38.1391C47.6362 37.8471 47.5136 37.5816 47.4013 37.3304C47.3442 37.216 47.2952 37.1119 47.2462 37.0057C47.191 36.8852 47.1339 36.7647 47.0766 36.6504C47.0358 36.5626 46.9888 36.4809 46.9562 36.3992L46.607 35.7539C46.558 35.6661 46.6396 35.5619 46.7356 35.5885L48.9207 36.1807H48.9268C48.9309 36.1807 48.9329 36.1827 48.935 36.1827L49.2229 36.2623L49.5395 36.3522L49.6558 36.3849V35.0861C49.6558 34.4592 50.1582 33.9507 50.779 33.9507C51.0894 33.9507 51.3712 34.0773 51.5734 34.2835C51.7755 34.4898 51.9022 34.7716 51.9022 35.0861V37.0139L52.135 37.0792C52.1534 37.0854 52.1717 37.0935 52.1881 37.1057C52.2453 37.1486 52.3269 37.2119 52.4311 37.2896C52.5128 37.3549 52.6006 37.4345 52.7068 37.5162C52.9171 37.6857 53.1683 37.9042 53.444 38.1554C53.5175 38.2187 53.589 38.2841 53.6543 38.3494C54.0097 38.6802 54.4079 39.0682 54.7877 39.4971C54.8939 39.6176 54.998 39.7401 55.1042 39.8687C55.2104 39.9994 55.3227 40.1281 55.4207 40.2568C55.5494 40.4283 55.6883 40.6059 55.8088 40.7918C55.8659 40.8796 55.9313 40.9694 55.9864 41.0573C56.1416 41.2921 56.2784 41.5351 56.4091 41.7781C56.4643 41.8904 56.5214 42.013 56.5705 42.1334C56.7154 42.4581 56.8298 42.789 56.9033 43.1198C56.9258 43.1913 56.9421 43.2689 56.9503 43.3383V43.3546C56.9748 43.4526 56.983 43.5568 56.9911 43.663C57.0238 44.002 57.0075 44.341 56.934 44.682C56.9033 44.827 56.8625 44.9638 56.8135 45.1088C56.7644 45.2477 56.7154 45.3927 56.6521 45.5295C56.5296 45.8133 56.3846 46.0972 56.2131 46.3627C56.1579 46.4607 56.0926 46.5648 56.0272 46.6629C55.9558 46.767 55.8823 46.865 55.8169 46.961C55.7271 47.0835 55.6311 47.2122 55.5331 47.3265C55.4452 47.447 55.3554 47.5675 55.2574 47.6737C55.1205 47.835 54.9898 47.9882 54.853 48.1352C54.7714 48.2312 54.6835 48.3292 54.5937 48.417C54.5059 48.515 54.416 48.6029 54.3343 48.6845C54.1975 48.8214 54.0832 48.9276 53.9872 49.0154L53.7626 49.2216C53.7299 49.2502 53.687 49.2666 53.6421 49.2666H51.9022V51.4986H54.0913C54.5814 51.4986 55.047 51.325 55.4228 51.0064C55.5514 50.8941 56.113 50.4081 56.7767 49.675C56.7992 49.6505 56.8278 49.6321 56.8604 49.6239L62.9071 47.8759C63.0195 47.8432 63.1338 47.929 63.1338 48.0474Z" fill="#2081E2"/>
<path d="M89.4018 55.4157C87.605 55.4157 85.9533 55.013 84.447 54.2077C82.9587 53.4023 81.7697 52.2819 80.8804 50.8463C80.0094 49.3933 79.5737 47.7651 79.5737 45.9619C79.5737 44.1587 80.0094 42.5393 80.8804 41.1037C81.7697 39.6682 82.9587 38.5477 84.447 37.7424C85.9533 36.9371 87.605 36.5344 89.4018 36.5344C91.1986 36.5344 92.8412 36.9371 94.3296 37.7424C95.8362 38.5477 97.0157 39.6682 97.8688 41.1037C98.7402 42.5393 99.1754 44.1587 99.1754 45.9619C99.1754 47.7651 98.7402 49.3933 97.8688 50.8463C96.9978 52.2819 95.8179 53.4023 94.3296 54.2077C92.8412 55.013 91.1986 55.4157 89.4018 55.4157ZM89.4018 51.319C90.9263 51.319 92.1424 50.8288 93.0499 49.8484C93.9758 48.8681 94.4385 47.5725 94.4385 45.9619C94.4385 44.3338 93.9758 43.0383 93.0499 42.0754C92.1424 41.095 90.9263 40.6048 89.4018 40.6048C87.859 40.6048 86.6251 41.0862 85.6992 42.0491C84.7917 43.012 84.3381 44.3162 84.3381 45.9619C84.3381 47.59 84.7917 48.8943 85.6992 49.8747C86.6251 50.8376 87.859 51.319 89.4018 51.319Z" fill="white"/>
<path d="M106.421 42.6533C106.875 41.9706 107.501 41.4191 108.299 40.9989C109.098 40.5787 110.033 40.3687 111.104 40.3687C112.356 40.3687 113.49 40.675 114.507 41.2878C115.523 41.9005 116.322 42.7759 116.902 43.9138C117.501 45.0518 117.801 46.3736 117.801 47.8792C117.801 49.3847 117.501 50.7153 116.902 51.8707C116.322 53.0087 115.523 53.8928 114.507 54.523C113.49 55.1358 112.356 55.4421 111.104 55.4421C110.051 55.4421 109.116 55.2321 108.299 54.8119C107.501 54.3917 106.875 53.849 106.421 53.1837V59.5913H101.766V40.5787H106.421V42.6533ZM113.064 47.8792C113.064 46.7587 112.737 45.8834 112.083 45.2531C111.448 44.6053 110.659 44.2815 109.715 44.2815C108.79 44.2815 108 44.6053 107.347 45.2531C106.711 45.9009 106.394 46.785 106.394 47.9054C106.394 49.0259 106.711 49.91 107.347 50.5577C108 51.2055 108.79 51.5293 109.715 51.5293C110.641 51.5293 111.43 51.2055 112.083 50.5577C112.737 49.8924 113.064 48.9996 113.064 47.8792Z" fill="white"/>
<path d="M134.563 47.6691C134.563 48.0892 134.536 48.5269 134.482 48.9821H123.946C124.019 49.8924 124.318 50.5927 124.844 51.0829C125.389 51.5556 126.051 51.7919 126.832 51.7919C127.994 51.7919 128.801 51.3192 129.255 50.3739H134.21C133.956 51.3368 133.493 52.2033 132.821 52.9737C132.168 53.744 131.342 54.348 130.344 54.7856C129.346 55.2233 128.229 55.4421 126.995 55.4421C125.507 55.4421 124.182 55.1358 123.02 54.523C121.859 53.9103 120.951 53.0349 120.298 51.897C119.645 50.759 119.318 49.4285 119.318 47.9054C119.318 46.3823 119.635 45.0518 120.271 43.9138C120.924 42.7759 121.831 41.9005 122.993 41.2878C124.155 40.675 125.489 40.3687 126.995 40.3687C128.465 40.3687 129.772 40.6663 130.915 41.2615C132.059 41.8568 132.948 42.7058 133.584 43.8088C134.237 44.9117 134.563 46.1985 134.563 47.6691ZM129.799 46.4873C129.799 45.717 129.527 45.1043 128.983 44.6491C128.438 44.1939 127.757 43.9664 126.941 43.9664C126.16 43.9664 125.498 44.1852 124.953 44.6228C124.427 45.0605 124.1 45.682 123.973 46.4873H129.799Z" fill="white"/>
<path d="M146.276 40.421C148.055 40.421 149.47 40.9812 150.523 42.1017C151.594 43.2046 152.129 44.7277 152.129 46.671V55.2319H147.501V47.275C147.501 46.2946 147.238 45.533 146.711 44.9903C146.185 44.4476 145.477 44.1762 144.588 44.1762C143.698 44.1762 142.991 44.4476 142.464 44.9903C141.938 45.533 141.675 46.2946 141.675 47.275V55.2319H137.02V40.5786H141.675V42.5218C142.147 41.8741 142.782 41.3664 143.581 40.9987C144.379 40.6136 145.277 40.421 146.276 40.421Z" fill="white"/>
<path d="M162.279 55.4157C160.882 55.4157 159.629 55.1968 158.522 54.7591C157.415 54.3215 156.526 53.6737 155.854 52.8159C155.201 51.958 154.856 50.9251 154.82 49.7171H159.774C159.847 50.3999 160.092 50.9251 160.51 51.2928C160.927 51.6429 161.471 51.818 162.143 51.818C162.833 51.818 163.377 51.6692 163.777 51.3716C164.176 51.0564 164.376 50.6275 164.376 50.0848C164.376 49.6296 164.212 49.2532 163.886 48.9556C163.577 48.658 163.187 48.4129 162.715 48.2203C162.261 48.0277 161.608 47.8089 160.755 47.5638C159.52 47.1961 158.513 46.8285 157.733 46.4609C156.952 46.0932 156.281 45.5505 155.718 44.8327C155.155 44.1149 154.874 43.1783 154.874 42.0229C154.874 40.3072 155.518 38.9679 156.807 38.005C158.096 37.0246 159.774 36.5344 161.844 36.5344C163.949 36.5344 165.646 37.0246 166.935 38.005C168.223 38.9679 168.913 40.3159 169.004 42.0491H163.967C163.931 41.4539 163.704 40.9899 163.287 40.6573C162.869 40.3072 162.334 40.1321 161.68 40.1321C161.118 40.1321 160.664 40.2809 160.319 40.5785C159.974 40.8586 159.802 41.2701 159.802 41.8128C159.802 42.408 160.092 42.8719 160.673 43.2045C161.254 43.5372 162.161 43.8961 163.395 44.2813C164.63 44.6839 165.628 45.069 166.39 45.4367C167.171 45.8043 167.842 46.3383 168.405 47.0386C168.968 47.7389 169.249 48.6405 169.249 49.7434C169.249 50.7938 168.968 51.7479 168.405 52.6058C167.86 53.4636 167.062 54.1464 166.009 54.6541C164.957 55.1618 163.713 55.4157 162.279 55.4157Z" fill="white"/>
<path d="M186.434 47.6691C186.434 48.0892 186.407 48.5269 186.352 48.9821H175.816C175.889 49.8924 176.188 50.5927 176.715 51.0829C177.259 51.5556 177.922 51.7919 178.702 51.7919C179.864 51.7919 180.672 51.3192 181.125 50.3739H186.08C185.826 51.3368 185.363 52.2033 184.692 52.9737C184.038 53.744 183.213 54.348 182.214 54.7856C181.216 55.2233 180.1 55.4421 178.866 55.4421C177.377 55.4421 176.052 55.1358 174.891 54.523C173.729 53.9103 172.822 53.0349 172.168 51.897C171.515 50.759 171.188 49.4285 171.188 47.9054C171.188 46.3823 171.506 45.0518 172.141 43.9138C172.794 42.7759 173.702 41.9005 174.863 41.2878C176.025 40.675 177.359 40.3687 178.866 40.3687C180.336 40.3687 181.642 40.6663 182.786 41.2615C183.929 41.8568 184.819 42.7058 185.454 43.8088C186.107 44.9117 186.434 46.1985 186.434 47.6691ZM181.67 46.4873C181.67 45.717 181.398 45.1043 180.853 44.6491C180.308 44.1939 179.628 43.9664 178.811 43.9664C178.031 43.9664 177.368 44.1852 176.824 44.6228C176.297 45.0605 175.97 45.682 175.844 46.4873H181.67Z" fill="white"/>
<path d="M187.964 47.8792C187.964 46.3736 188.255 45.0518 188.836 43.9138C189.434 42.7759 190.242 41.9005 191.259 41.2878C192.275 40.675 193.409 40.3687 194.662 40.3687C195.732 40.3687 196.667 40.5787 197.466 40.9989C198.283 41.4191 198.909 41.9706 199.344 42.6533V40.5787H204V55.2321H199.344V53.1575C198.891 53.8402 198.256 54.3917 197.439 54.8119C196.64 55.2321 195.705 55.4421 194.634 55.4421C193.4 55.4421 192.275 55.1358 191.259 54.523C190.242 53.8928 189.434 53.0087 188.836 51.8707C188.255 50.7153 187.964 49.3847 187.964 47.8792ZM199.344 47.9054C199.344 46.785 199.018 45.9009 198.364 45.2531C197.729 44.6053 196.948 44.2815 196.023 44.2815C195.097 44.2815 194.308 44.6053 193.655 45.2531C193.019 45.8834 192.702 46.7587 192.702 47.8792C192.702 48.9996 193.019 49.8924 193.655 50.5577C194.308 51.2055 195.097 51.5293 196.023 51.5293C196.948 51.5293 197.729 51.2055 198.364 50.5577C199.018 49.91 199.344 49.0259 199.344 47.9054Z" fill="white"/>
</g>
<defs>
<clipPath id="clip0_464_2217">
<rect width="173.72" height="39.7528" fill="white" transform="translate(30.2803 26)"/>
</clipPath>
</defs>
</svg>
