<svg width="234" height="91" viewBox="0 0 234 91" fill="none" xmlns="http://www.w3.org/2000/svg">
<rect x="0.578613" y="0.234375" width="232.581" height="89.9733" rx="9.86009" fill="url(#paint0_linear_38_5365)"/>
<g clip-path="url(#clip0_38_5365)">
<path d="M88.2479 47.1065L84.639 46.4595C81.3274 45.8399 79.3234 43.9558 79.3234 40.7693C79.3234 36.6766 82.1111 34.6155 86.8467 34.6155C91.5512 34.6155 94.3306 36.7061 94.3306 40.8578V41.2414H90.8922V40.8641C90.8922 38.744 89.4682 37.6545 86.8551 37.6545C84.2108 37.6545 82.8741 38.5965 82.8741 40.5396C82.8741 42.0422 83.9135 42.9548 85.4892 43.2498L89.0898 43.8968C92.5386 44.5438 94.4096 46.43 94.4096 49.5511C94.4096 53.7661 91.5346 55.823 86.8301 55.823C82.1257 55.823 79.2485 53.7324 79.2485 49.5806V49.1971H82.7057V49.5743C82.7057 51.6944 84.2149 52.7545 86.8301 52.7545C89.4453 52.7545 90.8672 51.8694 90.8672 49.804C90.8631 48.2846 89.8174 47.4015 88.2479 47.1065Z" fill="white"/>
<path d="M114.101 55.5279C109.251 55.5279 106.172 52.9357 106.172 48.078V42.3351C106.172 37.5069 109.251 34.9147 114.159 34.9147H120.113V37.9494H114.159C111.342 37.9494 109.627 39.509 109.627 42.3351V43.6902H118.66V46.7228H109.627V48.078C109.627 50.9336 111.342 52.4657 114.101 52.4657H120.113V55.5279H114.101Z" fill="white"/>
<path d="M131.877 34.9147H139.953C143.816 34.9147 146.691 36.9779 146.691 41.0706C146.691 43.6312 145.762 45.4858 144.163 46.5184C145.936 47.4015 146.895 49.2265 146.895 51.7597V55.5279H143.35V51.2876C143.35 49.256 142.334 48.196 140.359 48.196H135.334V55.5279H131.877V34.9147ZM139.837 45.1633C141.841 45.1633 143.117 44.1623 143.117 41.5406C143.117 38.9189 141.841 37.9579 139.837 37.9579H135.334V45.1717L139.837 45.1633Z" fill="white"/>
<path d="M174.169 34.9147V48.5205C174.169 53.2897 171.12 55.8229 166.299 55.8229C161.534 55.8229 158.484 53.2939 158.484 48.5205V34.9147H161.942V48.5205C161.942 51.2876 163.625 52.7608 166.307 52.7608C169.037 52.7608 170.721 51.2855 170.721 48.5205V34.9147H174.169Z" fill="white"/>
<path d="M200.486 41.8061L194.94 52.4067L189.391 41.8061V55.5279H185.934V34.9147H189.275L194.94 45.7513L200.602 34.9147H203.943V55.5279H200.486V41.8061Z" fill="white"/>
<path d="M42.8546 30.1476C43.0625 29.9073 43.6508 29.2456 44.2848 28.5438C44.6902 28.0949 45.1309 27.606 45.4261 27.2793L46.6131 28.7419L45.6444 29.8062C45.054 30.4616 44.4407 31.1402 44.2703 31.3488C39.9442 36.5943 35.4622 42.0169 35.4622 48.0801C35.4622 51.8735 36.9922 55.1801 39.7716 57.4014C42.0584 59.2307 45.0665 60.2402 48.2409 60.2402C51.4153 60.2402 54.4192 59.2307 56.708 57.4014C59.4875 55.1801 61.0175 51.8693 61.0175 48.0801C61.0175 42.0169 56.5397 36.5943 52.2094 31.3488C52.0389 31.1381 51.4278 30.4616 50.8353 29.8062L49.8686 28.7335L51.0556 27.2709C51.3508 27.606 51.7936 28.0949 52.1969 28.5354C52.8206 29.2371 53.4276 29.8989 53.6272 30.1391C58.1674 35.6397 62.8635 41.3277 62.8635 48.0716C62.8635 52.4468 61.084 56.2781 57.8514 58.864C55.2383 60.9525 51.8227 62.1032 48.2409 62.1032C44.659 62.1032 41.2414 60.9546 38.6283 58.8724C35.3957 56.2866 33.6162 52.4552 33.6162 48.0801C33.6162 41.3362 38.3123 35.6481 42.8546 30.1476ZM46.3886 33.1507L47.0123 32.4089L47.5382 31.7767L48.2492 30.9084L48.9581 31.7767L49.484 32.4089L50.0952 33.1507C51.012 34.2614 51.935 35.3804 52.8144 36.5058L53.0701 36.8346C55.5189 39.9958 57.5812 43.2287 58.1196 46.4657C58.157 46.6891 58.1861 46.9125 58.209 47.1359C58.209 47.2139 58.2194 47.294 58.2256 47.3741C58.2443 47.6101 58.2568 47.844 58.2568 48.0801C58.2592 48.7879 58.1896 49.4942 58.0489 50.1875C57.9715 50.5608 57.8715 50.9289 57.7496 51.2898C57.2272 52.8316 56.2729 54.1857 55.0034 55.1865C53.8244 56.1118 52.46 56.7642 51.0058 57.0979C50.7979 57.1485 50.5734 57.1928 50.3551 57.2328L50.1222 57.2708C49.9144 57.3045 49.6898 57.334 49.4695 57.3551C48.6629 57.4394 47.85 57.4394 47.0435 57.3551C46.794 57.3319 46.5466 57.2982 46.3034 57.2581L46.1932 57.2391C44.4861 56.9587 42.8745 56.2526 41.5033 55.1844C40.2338 54.1836 39.2795 52.8295 38.7572 51.2876C38.6304 50.9341 38.5249 50.573 38.4412 50.2065C38.3005 49.5131 38.2309 48.8069 38.2333 48.099C38.2333 47.863 38.2333 47.6291 38.2624 47.393C38.2624 47.3129 38.2728 47.2329 38.279 47.1549C38.3019 46.9315 38.331 46.7081 38.3684 46.4847C38.9048 43.2287 40.9691 40.0042 43.4179 36.8346L43.6736 36.5079C44.553 35.3804 45.476 34.2614 46.3886 33.1507ZM48.2409 55.5595C50.301 55.5595 52.2988 54.9273 53.7478 53.804L53.8496 53.7281C55.0085 52.8093 55.8262 51.5197 56.1696 50.0695C56.1946 49.9705 56.2174 49.8714 56.2361 49.7703C56.2942 49.4967 56.3379 49.2203 56.3671 48.942C56.3941 48.6596 56.4066 48.3709 56.4066 48.0759C56.4066 47.8946 56.4066 47.7134 56.3837 47.53C56.3466 47.0148 56.2631 46.504 56.1343 46.0042C55.9546 45.3086 55.7154 44.6302 55.4192 43.9768C55.4067 43.9473 55.3942 43.9157 55.3797 43.8862C55.1136 43.3087 54.8187 42.7453 54.4961 42.1981L54.4774 42.1644C53.7062 40.8616 52.8557 39.6087 51.9308 38.4131C51.8622 38.3225 51.7916 38.2318 51.723 38.1391C51.4181 37.7429 51.1076 37.3474 50.7916 36.9526L50.5089 36.6007L50.4424 36.5164L50.2844 36.3225C49.9351 35.8904 49.5797 35.4584 49.2263 35.0285L48.6754 34.352C48.5319 34.1771 48.3885 34.0043 48.2471 33.8293L47.8168 34.352L47.2493 35.0327C46.8959 35.4542 46.5404 35.8947 46.1911 36.3267L46.0331 36.5206C46.0124 36.5501 45.9895 36.5775 45.9666 36.6049L45.6839 36.9568C44.3304 38.601 43.0978 40.3436 41.996 42.1707L41.9773 42.2044C41.653 42.7692 41.3536 43.3319 41.1063 43.8904C41.0917 43.9199 41.0813 43.9515 41.0668 43.981C40.7734 44.6347 40.5369 45.3131 40.36 46.0084C40.2321 46.5085 40.1486 47.0191 40.1105 47.5342C40.0959 47.7176 40.0876 47.8988 40.0876 48.0801C40.0866 48.3693 40.1005 48.6584 40.1292 48.9462C40.1547 49.223 40.1957 49.4982 40.2519 49.7703C40.2706 49.8714 40.2934 49.9705 40.3184 50.0695C40.6627 51.5193 41.4803 52.8086 42.6384 53.7281L42.7402 53.804C44.1809 54.9209 46.1807 55.5595 48.2409 55.5595ZM57.1675 27.1444C56.9804 26.9189 56.4191 26.3014 55.5169 25.3257C54.9348 24.6934 54.2883 23.9874 53.991 23.6523L52.806 25.1128C53.1075 25.45 53.5648 25.9558 54.1656 26.6007C54.8308 27.3236 55.5834 28.1434 55.7497 28.3457C60.3835 33.9579 65.6346 40.3182 65.6346 48.0801C65.6346 53.3319 63.4789 57.9473 59.5665 61.0769C56.469 63.5552 52.4443 64.9188 48.2409 64.9188C44.0374 64.9188 40.0128 63.5552 36.9132 61.0769C33.0008 57.9473 30.8471 53.3319 30.8471 48.0801C30.8471 40.3182 36.0962 33.96 40.73 28.3457C40.8963 28.1349 41.6488 27.3236 42.3141 26.6007C42.9149 25.9474 43.3722 25.45 43.6736 25.1128L42.4887 23.6523C42.1914 23.9874 41.5449 24.6913 40.9628 25.3257C40.0606 26.3057 39.5076 26.9189 39.3122 27.1444C34.4789 32.999 28.999 39.6375 28.999 48.0801C28.999 53.9178 31.4043 59.0558 35.7698 62.5458C39.1937 65.2855 43.6217 66.7902 48.243 66.7902C52.8643 66.7902 57.2901 65.2834 60.7161 62.5458C65.0817 59.0558 67.4848 53.9178 67.4848 48.0801C67.4807 39.6375 62.0008 32.999 57.1675 27.1444Z" fill="white"/>
</g>
<defs>
<linearGradient id="paint0_linear_38_5365" x1="116.869" y1="0.234375" x2="116.869" y2="90.2077" gradientUnits="userSpaceOnUse">
<stop stop-color="#6FDFEB"/>
<stop offset="1" stop-color="#08ACC6"/>
</linearGradient>
<clipPath id="clip0_38_5365">
<rect width="175.017" height="43.1379" fill="white" transform="translate(28.9263 23.6521)"/>
</clipPath>
</defs>
</svg>
