<svg width="233" height="91" viewBox="0 0 233 91" fill="none" xmlns="http://www.w3.org/2000/svg">
<rect x="0.394531" y="0.501953" width="232.581" height="89.9733" rx="9.86009" fill="#FE007A"/>
<path fill-rule="evenodd" clip-rule="evenodd" d="M29.6837 24.8572C34.0505 30.2106 38.8451 36.9361 39.6206 38.0239C39.662 38.0819 39.6919 38.1238 39.7097 38.1487C40.1231 38.7259 40.4644 39.1549 40.7235 39.4807L40.7236 39.4807C41.2989 40.204 41.4696 40.4186 41.1263 40.6158C40.8494 40.7748 40.5637 40.8272 40.2787 40.8272C39.9563 40.8272 39.5931 40.6704 39.3286 40.4169C39.1416 40.2379 37.8624 38.3613 36.1206 35.6313C34.7878 33.5424 33.6724 31.8096 33.642 31.7806C33.5716 31.7135 33.5728 31.7158 35.9847 36.0746C37.4991 38.8117 38.535 40.8344 38.535 40.9638C38.535 41.227 38.4639 41.3653 38.1424 41.7275C37.6065 42.3315 37.367 43.01 37.194 44.4142C37.0002 45.9883 36.455 47.1004 34.9443 49.0033C34.0599 50.1174 33.9152 50.3216 33.6921 50.7706C33.411 51.3361 33.3337 51.6527 33.3024 52.3668C33.2693 53.1217 33.3338 53.6094 33.5621 54.3311C33.762 54.963 33.9707 55.3804 34.5041 56.2149C34.9645 56.935 35.2295 57.4702 35.2295 57.6796C35.2295 57.8462 35.261 57.8464 35.9744 57.6838C37.6815 57.2943 39.0677 56.6095 39.8473 55.7702C40.3298 55.2507 40.4431 54.9639 40.4467 54.2521C40.4492 53.7864 40.4329 53.689 40.3083 53.4211C40.1055 52.985 39.7362 52.6226 38.9224 52.0606C37.856 51.3242 37.4005 50.7315 37.2747 49.9162C37.1715 49.2473 37.2912 48.7753 37.8811 47.5265C38.4918 46.2337 38.6431 45.6829 38.7454 44.3798C38.8115 43.5379 38.9031 43.2059 39.1426 42.9395C39.3923 42.6616 39.6171 42.5675 40.2352 42.4821C41.2428 42.3431 41.8845 42.0798 42.4119 41.5889C42.8694 41.1631 43.0608 40.7527 43.0902 40.135L43.1125 39.6668L42.8568 39.3657C41.931 38.2753 29.0637 24 29.0067 24C28.9945 24 29.2992 24.3858 29.6837 24.8572ZM35.7493 53.221C35.9586 52.8464 35.8474 52.3651 35.4972 52.1298C35.1664 51.9077 34.6524 52.0124 34.6524 52.3019C34.6524 52.3902 34.7008 52.4545 34.8098 52.5113C34.9934 52.6068 35.0067 52.714 34.8623 52.9333C34.716 53.1554 34.7278 53.3507 34.8956 53.4832C35.166 53.6972 35.5488 53.5796 35.7493 53.221ZM42.0503 32.8C41.6372 32.7353 41.6198 32.7277 41.8142 32.6975C42.1867 32.6396 43.0663 32.7185 43.6725 32.8641C45.0876 33.2038 46.3753 34.0742 47.7497 35.62L48.1148 36.0307L48.6373 35.9458C50.838 35.5886 53.0768 35.8725 54.9493 36.7462C55.4645 36.9866 56.2767 37.4651 56.3781 37.5881C56.4103 37.6273 56.4699 37.8795 56.5099 38.1487C56.6491 39.08 56.5795 39.7938 56.2974 40.3269C56.1441 40.617 56.1355 40.709 56.2386 40.9573C56.3209 41.1554 56.5505 41.302 56.778 41.3017C57.2433 41.3011 57.744 40.5413 57.9762 39.4841L58.0684 39.0641L58.251 39.2731C59.2526 40.4194 60.0394 41.9827 60.1745 43.0954L60.2097 43.3855L60.0414 43.1218C59.7515 42.668 59.4605 42.359 59.0876 42.1098C58.4156 41.6606 57.7049 41.5078 55.823 41.4076C54.1233 41.3171 53.1614 41.1705 52.2076 40.8563C50.5845 40.3219 49.7665 39.61 47.8386 37.0553C46.9824 35.9205 46.4531 35.2927 45.9267 34.7871C44.7304 33.6382 43.555 33.0357 42.0503 32.8ZM56.7614 35.3336C56.8042 34.5732 56.9064 34.0717 57.1116 33.6137C57.1928 33.4324 57.2689 33.284 57.2806 33.284C57.2924 33.284 57.2571 33.4178 57.2021 33.5813C57.053 34.0258 57.0284 34.6338 57.1313 35.3412C57.2616 36.2387 57.3359 36.3683 58.275 37.3378C58.7155 37.7925 59.228 38.3661 59.4137 38.6123L59.7515 39.0601L59.4137 38.7401C59.0007 38.3488 58.0509 37.5857 57.8411 37.4766C57.7003 37.4034 57.6794 37.4047 57.5927 37.4919C57.5128 37.5723 57.4958 37.6931 57.4847 38.2642C57.4674 39.1542 57.3474 39.7255 57.0575 40.2967C56.9007 40.6057 56.876 40.5398 57.0178 40.191C57.1238 39.9307 57.1345 39.8162 57.1338 38.9546C57.1322 37.2234 56.9286 36.8072 55.7353 36.0942C55.4332 35.9136 54.9349 35.6531 54.6284 35.5153C54.3222 35.3775 54.0787 35.2575 54.0874 35.2486C54.1213 35.2146 55.2851 35.5577 55.7535 35.7397C56.4502 36.0104 56.5651 36.0455 56.6498 36.0128C56.7064 35.9909 56.7339 35.8241 56.7614 35.3336ZM41.6076 34.0045C41.4953 35.3411 42.0141 37.1291 42.8527 38.2952C43.5028 39.1992 44.5105 39.9016 45.2544 39.9695C45.7415 40.0139 45.8879 39.8599 45.6675 39.5348C45.3616 39.0835 44.9853 38.3886 44.8857 38.0911C44.8239 37.9062 44.6894 37.3603 44.587 36.8778C44.2372 35.2307 43.8933 34.5893 43.0991 34.1021C42.8097 33.9245 42.1917 33.6921 41.8332 33.6261L41.6423 33.5909L41.6076 34.0045ZM55.7444 46.9742C51.8254 45.3804 50.445 43.997 50.445 41.6627C50.445 41.3192 50.4569 41.0382 50.4711 41.0382C50.4854 41.0382 50.637 41.1515 50.8079 41.2901C51.6026 41.9339 52.4926 42.2089 54.9562 42.5719C56.4058 42.7856 57.2216 42.9581 57.9742 43.2103C60.3661 44.0116 61.8461 45.6375 62.199 47.8524C62.3015 48.496 62.2414 49.7028 62.0751 50.3389C61.9439 50.8413 61.5432 51.7467 61.4371 51.7815C61.4076 51.7911 61.3786 51.6771 61.3711 51.522C61.3309 50.6903 60.9148 49.8807 60.2161 49.2741C59.4216 48.5845 58.3541 48.0356 55.7444 46.9742ZM52.8038 46.7988C52.8588 46.9643 52.944 47.3411 52.993 47.6363C53.3069 49.5232 52.3263 51.0478 50.4188 51.6385C50.2168 51.701 49.4214 51.8583 48.6511 51.9878C47.0919 52.25 46.3959 52.4358 45.6968 52.7759C45.201 53.0172 44.6007 53.3785 44.6364 53.4144C44.6479 53.426 44.7611 53.3987 44.8878 53.3537C45.7695 53.0411 46.7507 52.8792 48.2414 52.8009C48.8331 52.7699 49.5059 52.7204 49.7368 52.6911C51.0649 52.5221 51.9854 52.1145 52.7013 51.3787C53.0995 50.9691 53.337 50.5876 53.5284 50.0497C53.6497 49.7084 53.666 49.5817 53.667 48.9771C53.668 48.3611 53.6533 48.2483 53.5218 47.8694C53.3497 47.3726 53.1467 46.9998 52.8896 46.7083L52.7038 46.4978L52.8038 46.7988ZM54.7896 50.859C54.2688 49.7283 54.1493 48.6368 54.4345 47.6188C54.4651 47.5099 54.5141 47.4209 54.5438 47.4209C54.5733 47.4209 54.696 47.4881 54.8167 47.57C55.0566 47.7332 55.5379 48.008 56.8199 48.714C58.4198 49.595 59.332 50.2771 59.9522 51.0567C60.4954 51.7392 60.8316 52.5166 60.9933 53.4646C61.0851 54.0017 61.0313 55.2939 60.8949 55.8345C60.4648 57.5395 59.4651 58.8787 58.0392 59.6603C57.8303 59.7747 57.6428 59.8686 57.6224 59.8692C57.6022 59.8695 57.6783 59.6741 57.7916 59.4347C58.2712 58.4218 58.3258 57.4367 57.9633 56.3402C57.7411 55.6688 57.2884 54.8495 56.3743 53.4648C55.3115 51.855 55.0509 51.4266 54.7896 50.859ZM44.9817 54.5673C43.3334 54.8377 41.5239 55.7187 40.0696 56.959L39.6366 57.3283L40.0172 57.3884C42.0028 57.7014 42.5375 57.9791 43.9148 59.4123C44.7074 60.2368 44.9751 60.4204 45.6325 60.5899C46.5982 60.8389 47.55 60.3814 47.8765 59.5113C48.0223 59.1226 48.0029 58.4788 47.8355 58.1556C47.4374 57.3858 46.2777 57.1371 45.7169 57.7009C45.2497 58.1705 45.3858 58.878 45.9668 58.9996C46.0998 59.0277 46.096 59.0217 45.9329 58.9472C45.6786 58.831 45.5682 58.67 45.5668 58.4138C45.5635 57.8131 46.2441 57.4758 46.8773 57.7643C47.3409 57.9757 47.525 58.2517 47.525 58.7358C47.525 59.4811 46.897 60.0427 46.1661 59.9509C45.7755 59.9018 45.2977 59.6494 45.0415 59.3569C44.3969 58.6207 44.648 57.4589 45.548 57.0131C46.2332 56.6738 47.144 56.7574 47.8502 57.2245C48.6617 57.7613 49.0068 58.2519 49.7057 59.8621C49.9333 60.3863 50.2261 60.9765 50.3563 61.1736C51.0185 62.1746 51.8117 62.6655 52.7672 62.6655C53.2942 62.6655 53.6906 62.5683 54.1894 62.3168C54.56 62.1298 55.0853 61.7745 55.0475 61.7364C55.0367 61.7257 54.883 61.774 54.7058 61.8437C53.6626 62.2547 52.602 62.2265 51.9861 61.771C51.5983 61.4844 51.2854 60.9133 51.1246 60.1991C51.0968 60.0755 51.005 59.5296 50.9205 58.9858C50.7063 57.6076 50.5007 56.9881 50.0213 56.2772C49.5307 55.5499 48.5876 54.9395 47.5332 54.6669C46.8754 54.4968 45.692 54.4505 44.9817 54.5673ZM42.6732 43.9119C42.8155 43.3809 43.2754 42.8745 43.7484 42.7277C44.0492 42.6345 44.671 42.694 44.9633 42.8441C45.5299 43.1351 45.9411 43.7978 45.8519 44.2761C45.743 44.8594 44.8065 45.3261 43.7293 45.3338C43.179 45.3376 42.9758 45.263 42.7657 44.9796C42.6357 44.8041 42.5864 44.2359 42.6732 43.9119ZM44.8187 43.0521C45.1012 43.2263 45.1739 43.484 45.0077 43.7224C44.8933 43.8866 44.5391 44.0427 44.2802 44.0427C43.8912 44.0427 43.4669 43.7637 43.4669 43.5082C43.4669 42.9949 44.2806 42.7201 44.8187 43.0521ZM129.259 44.522C128.38 41.5988 129.83 39.1741 132.922 38.3949C133.809 38.1713 137.825 38.2722 138.513 38.5355C138.766 38.6319 138.876 39.0021 138.878 39.763C138.88 40.3622 138.945 41.0899 139.023 41.3801C139.141 41.82 139.072 41.9066 138.608 41.8995C138.188 41.893 137.934 41.6469 137.58 40.9025C137.014 39.7135 136.328 39.3353 134.73 39.3308C132.691 39.325 131.199 40.6982 131.441 42.3573C131.6 43.437 132.678 44.4994 135.099 45.9599C137.403 47.3491 138.747 48.4916 139.283 49.5152C140.715 52.2518 139.492 55.1804 136.301 56.656C134.662 57.4133 131.917 57.4917 129.987 56.8361L128.751 56.4162V54.4411C128.751 52.6523 128.793 52.4656 129.201 52.4656C129.542 52.4656 129.689 52.6911 129.809 53.3973C130.107 55.1533 131.441 56.2193 133.342 56.2193C135.204 56.2193 136.505 55.2021 137.004 53.3576C137.216 52.5718 137.179 52.2821 136.758 51.4153C136.253 50.376 135.384 49.6864 132.432 47.9834C130.794 47.0383 129.636 45.7747 129.259 44.522ZM71.3909 39.5619C70.9881 39.5619 70.831 39.4303 70.831 39.0927C70.831 38.6457 70.9881 38.6234 74.1445 38.6234C77.0742 38.6234 77.4491 38.6675 77.3819 39.0037C77.3398 39.213 76.935 39.5033 76.4818 39.649L75.6576 39.9138L75.5873 45.8965C75.5401 49.8885 75.6064 52.1914 75.7862 52.8175C76.3206 54.6794 77.951 55.7502 80.2513 55.7502C81.8527 55.7502 82.7882 55.3758 83.9634 54.2639C85.2276 53.0686 85.4292 51.9328 85.4252 46.0298C85.4213 40.2071 85.3199 39.7266 84.0694 39.6058C83.5004 39.5506 83.3097 39.4181 83.3097 39.0779C83.3097 38.6537 83.4974 38.6234 86.135 38.6234C88.8033 38.6234 88.9603 38.6495 88.9603 39.0927C88.9603 39.3817 88.8021 39.5633 88.5482 39.5654C87.4578 39.575 87.4378 39.6788 87.291 46.0635C87.1388 52.6938 86.9965 53.4789 85.6528 55.103C85.2653 55.5716 84.3411 56.2519 83.5992 56.615C82.3903 57.2067 82.0057 57.2746 79.8956 57.2708C77.9506 57.2668 77.3366 57.1728 76.364 56.7301C74.9443 56.0838 74.021 55.2474 73.3403 53.9906C72.8652 53.1132 72.8246 52.6385 72.7146 46.6941C72.5886 39.8899 72.5276 39.5619 71.3909 39.5619ZM93.4227 39.5619C92.8844 39.5619 92.7275 39.4559 92.7275 39.0927C92.7275 38.6528 92.8779 38.6246 95.1407 38.6427L97.5541 38.6619L98.7088 39.9917C99.3434 40.723 101.413 43.0107 103.307 45.0752C105.201 47.1399 107.376 49.5416 108.139 50.4126C108.903 51.2838 109.622 51.9964 109.737 51.9964C109.855 51.9964 109.914 49.5358 109.871 46.345L109.797 40.6937L109.136 40.1278C108.773 39.8164 108.217 39.5619 107.901 39.5619C107.479 39.5619 107.325 39.4343 107.325 39.0861C107.325 38.6279 107.445 38.6126 110.562 38.6755C113.213 38.729 113.8 38.8029 113.8 39.0831C113.8 39.2827 113.472 39.4922 113.013 39.5858C112.58 39.6741 112.103 39.8683 111.953 40.0175C111.76 40.2101 111.661 42.7006 111.613 48.606L111.546 56.9231H110.864C110.276 56.9231 109.577 56.2621 105.838 52.1723C103.45 49.5591 100.661 46.4535 99.6424 45.271C98.6232 44.0882 97.71 43.1116 97.6129 43.1009C97.3396 43.0703 97.4057 53.6369 97.6852 54.6399C97.9032 55.4215 98.053 55.5561 98.979 55.803C99.7247 56.0017 100.026 56.2033 100.026 56.5027C100.026 56.8871 99.742 56.9231 96.7301 56.9231C93.664 56.9231 93.4338 56.8925 93.4338 56.4834C93.4338 56.1838 93.6556 55.9993 94.1295 55.9048C95.5672 55.6184 95.6626 55.1637 95.7432 48.2128C95.7884 44.3198 95.7221 41.596 95.5679 41.0257C95.2969 40.0227 94.6217 39.5619 93.4227 39.5619ZM118.111 39.5619C117.606 39.5619 117.449 39.4505 117.449 39.0927C117.449 38.6443 117.606 38.6234 120.981 38.6234C124.355 38.6234 124.513 38.6443 124.513 39.0927C124.513 39.4369 124.355 39.5619 123.924 39.5619C123.6 39.5619 123.119 39.7773 122.855 40.0405C122.389 40.5053 122.377 40.7364 122.443 47.9193C122.508 54.9311 122.535 55.3368 122.968 55.6521C123.22 55.8351 123.67 55.9848 123.969 55.9848C124.355 55.9848 124.513 56.1201 124.513 56.454C124.513 56.9024 124.355 56.9231 120.981 56.9231C117.687 56.9231 117.449 56.8936 117.449 56.4841C117.449 56.1537 117.68 56.0079 118.382 55.8961C119.775 55.6741 119.846 55.2196 119.76 47.1089C119.69 40.6137 119.66 40.2087 119.229 39.8946C118.977 39.7116 118.474 39.5619 118.111 39.5619ZM142.746 39.5619C142.424 39.5619 142.179 39.3834 142.103 39.0927C141.984 38.6389 142.096 38.6234 145.489 38.6234C148.842 38.6234 148.999 38.6443 148.999 39.0927C148.999 39.4533 148.842 39.5619 148.321 39.5619C146.839 39.5619 146.872 39.8303 149.116 45.9659C150.257 49.0891 151.366 52.0559 151.579 52.5587L151.967 53.473L153.765 48.6876C155.882 43.0546 156.157 42.0129 155.797 40.9855C155.547 40.2695 154.572 39.5619 153.837 39.5619C153.629 39.5619 153.472 39.3601 153.472 39.0927C153.472 38.6436 153.629 38.6234 157.122 38.6234C160.614 38.6234 160.771 38.6436 160.771 39.0927C160.771 39.4265 160.614 39.5619 160.228 39.5619C159.238 39.5619 158.801 40.0879 158.943 41.1099C159.09 42.1619 163.139 53.4685 163.309 53.2993C163.585 53.0241 168.07 40.8525 168.07 40.3781C168.07 39.8097 167.671 39.5619 166.756 39.5619C166.343 39.5619 166.186 39.4326 166.186 39.0927C166.186 38.6495 166.343 38.6234 169.012 38.6234C171.408 38.6234 171.837 38.6788 171.837 38.9876C171.837 39.1879 171.544 39.4537 171.185 39.5783C170.378 39.8587 170.175 40.1787 169.162 42.7709C168.718 43.9092 167.326 47.4719 166.07 50.6874C164.814 53.9033 163.732 56.6747 163.666 56.8461C163.6 57.0176 163.211 57.1579 162.801 57.1579H162.056L160.364 52.7588C159.434 50.3396 158.335 47.4733 157.922 46.3894C157.215 44.5322 157.155 44.4515 156.889 44.9816C156.734 45.2914 155.616 48.1627 154.406 51.3626L152.205 57.1808L151.383 57.1107L150.562 57.0406L147.429 48.8475C145.678 44.27 144.069 40.4131 143.781 40.1081C143.498 39.8075 143.032 39.5619 142.746 39.5619ZM189.824 39.6614C189.784 39.5723 189.785 39.252 189.785 39.252C189.785 39.252 189.776 39.1365 189.824 39.0748C189.872 39.0134 189.889 39.0118 190.063 38.9953L190.064 38.9952C190.7 38.9347 191.975 38.8329 193.04 38.7865C193.137 38.7822 193.246 38.7773 193.363 38.772L193.366 38.7719L193.367 38.7718L193.368 38.7718C194.54 38.7186 196.636 38.6475 198.077 38.7195C200.841 38.8576 202.807 40.1939 203.477 42.402C204.147 44.6099 203.793 46.6826 202.879 48.002C201.966 49.3213 200.43 50.4572 197.878 50.3833C195.77 50.3223 195.206 49.9277 194.756 49.6125C194.661 49.5458 194.571 49.4826 194.472 49.4271V52.2429C194.494 54.1634 194.51 55.0857 194.659 55.4272C194.859 55.8868 195.312 56.17 196.195 56.387C196.195 56.387 196.594 56.4806 196.697 56.5804C196.8 56.6802 196.8 56.9018 196.8 56.9018C196.8 56.9018 196.821 57.1091 196.738 57.2147C196.655 57.3203 196.496 57.2992 196.496 57.2992L192.588 57.2677L190.232 57.2615C190.232 57.2615 189.984 57.3088 189.892 57.2094C189.799 57.1098 189.807 56.9024 189.807 56.9024C189.807 56.9024 189.828 56.6789 189.936 56.579C190.044 56.4788 190.446 56.367 190.446 56.367C191.355 56.1119 191.749 55.842 191.955 55.3336C192.121 54.9236 192.122 54.1636 192.121 47.9606C192.119 42.0782 192.11 40.9809 191.975 40.6653C191.776 40.1981 191.276 40.0744 190.564 39.8981L190.564 39.8981C190.423 39.8631 190.273 39.8261 190.117 39.784C190.117 39.784 189.863 39.7505 189.824 39.6614ZM201.203 44.4613C201.203 45.4259 201.186 46.9361 200.159 47.9014C199.132 48.8668 197.11 49.131 195.737 48.8622C195.305 48.7775 195.057 48.647 194.867 48.5463L194.848 48.5362L194.496 48.3512L194.476 44.9621C194.463 42.8386 194.486 41.4551 194.536 41.2573C194.581 40.1377 196.233 39.9984 197.04 40.0398C200.492 40.0398 201.102 42.9488 201.203 44.4613ZM178.982 38.7548C178.982 38.7548 178.814 38.8196 178.558 38.9165L177.636 39.3926L176.972 41.0499C176.607 41.9614 175.939 43.6346 175.488 44.7682C174.667 46.8329 174.124 48.1893 173.553 49.6052C173.385 50.0216 172.878 51.2898 172.426 52.4234C171.974 53.5568 171.522 54.6356 171.422 54.8206C171.406 54.8514 171.388 54.8845 171.369 54.9195C171.117 55.3944 170.678 56.2193 169.902 56.344C169.902 56.344 169.476 56.3859 169.318 56.5418C169.161 56.6979 169.176 56.8253 169.176 56.8253V57.0218C169.176 57.0218 169.19 57.1171 169.28 57.1644C169.369 57.2119 169.49 57.2147 169.49 57.2147L172.326 57.1824H175.256C175.256 57.1824 175.464 57.2067 175.544 57.1404C175.624 57.0741 175.646 56.9758 175.646 56.9758V56.7689C175.646 56.7689 175.605 56.5445 175.489 56.4569C175.373 56.3695 174.938 56.3096 174.938 56.3096C173.764 56.1554 173.563 55.268 173.707 54.47C173.779 54.078 174.25 52.6277 174.781 51.1676L174.965 50.663L178.036 50.6395C179.724 50.6266 181.183 50.6353 181.276 50.659C181.409 50.6927 181.596 51.0716 182.144 52.4214C182.974 54.4664 183.04 54.7155 182.857 55.0981C182.845 55.1214 182.834 55.1471 182.821 55.1748C182.648 55.5448 182.313 56.2637 181.469 56.3369C181.469 56.3369 181.022 56.3524 180.91 56.4863C180.799 56.6203 180.823 56.7743 180.823 56.7743V56.979C180.823 56.979 180.853 57.099 180.91 57.1466C180.968 57.1941 181.065 57.1821 181.065 57.1821L183.853 57.162L187.771 57.1619C187.771 57.1619 187.925 57.1783 187.966 57.1193C188.008 57.0601 188.017 56.9905 188.017 56.9905V56.7186C188.017 56.7186 188 56.574 187.924 56.4943C187.849 56.4147 187.341 56.3306 187.341 56.3306C186.692 56.2259 186.369 55.6901 186.128 55.2911C186.067 55.1893 186.01 55.0965 185.956 55.022C185.844 54.8699 185.446 54.0366 185.134 53.2352C184.822 52.4338 184.118 50.6233 183.569 49.2122C183.021 47.8011 182.256 45.8326 181.869 44.8379C181.482 43.8431 180.746 41.9503 180.234 40.6317C180.15 40.4153 180.075 40.2209 180.008 40.0469L180.007 40.0461C179.664 39.1606 179.526 38.8032 179.488 38.7548C179.364 38.5978 178.982 38.7548 178.982 38.7548ZM178.8 44.1434C178.676 43.8427 178.458 43.3034 178.316 42.9448C178.058 42.2931 177.959 42.1429 177.879 42.2776C177.856 42.3169 177.693 42.7623 177.518 43.2675C176.381 46.538 175.867 48.0107 175.763 48.2882C175.699 48.4627 175.646 48.6424 175.646 48.6877C175.646 48.7398 176.57 48.7702 178.154 48.7702C179.533 48.7702 180.661 48.7531 180.661 48.7322C180.661 48.7112 180.538 48.3991 180.388 48.0382C180.237 47.6773 179.869 46.7764 179.57 46.0362C179.27 45.2959 178.924 44.4442 178.8 44.1434Z" fill="white"/>
</svg>
