<svg width="234" height="91" viewBox="0 0 234 91" fill="none" xmlns="http://www.w3.org/2000/svg">
<rect x="0.654785" y="0.833984" width="232.581" height="89.9733" rx="9.86009" fill="#FE007A"/>
<path d="M97.2253 55.0197C96.3487 55.0197 95.5539 54.8502 94.841 54.5113C94.1397 54.1607 93.5787 53.6289 93.1579 52.9159C92.7488 52.2029 92.5443 51.2971 92.5443 50.1985V42.5371H94.4027V50.216C94.4027 51.2913 94.6598 52.0802 95.1741 52.5828C95.6883 53.0854 96.3837 53.3367 97.2603 53.3367C98.1252 53.3367 98.8148 53.0854 99.3291 52.5828C99.8433 52.0802 100.1 51.2913 100.1 50.216V42.5371H101.959V50.1985C101.959 51.2971 101.743 52.2029 101.31 52.9159C100.889 53.6289 100.317 54.1607 99.592 54.5113C98.8791 54.8502 98.0902 55.0197 97.2253 55.0197ZM104.272 54.8093V46.1136H105.92L106.061 47.6389C106.33 47.1012 106.721 46.6805 107.235 46.3766C107.761 46.061 108.363 45.9032 109.041 45.9032C110.093 45.9032 110.917 46.2305 111.513 46.885C112.121 47.5395 112.425 48.5154 112.425 49.8128V54.8093H110.584V50.0056C110.584 48.3226 109.894 47.4811 108.515 47.4811C107.826 47.4811 107.253 47.7265 106.797 48.2174C106.353 48.7083 106.131 49.4096 106.131 50.3212V54.8093H104.272ZM115.665 44.4656C115.315 44.4656 115.023 44.3604 114.789 44.15C114.567 43.928 114.456 43.6533 114.456 43.3261C114.456 42.9988 114.567 42.73 114.789 42.5196C115.023 42.2975 115.315 42.1865 115.665 42.1865C116.016 42.1865 116.302 42.2975 116.524 42.5196C116.758 42.73 116.875 42.9988 116.875 43.3261C116.875 43.6533 116.758 43.928 116.524 44.15C116.302 44.3604 116.016 44.4656 115.665 44.4656ZM114.736 54.8093V46.1136H116.595V54.8093H114.736ZM122.519 55.0197C121.42 55.0197 120.515 54.7509 119.802 54.2132C119.089 53.6756 118.68 52.9627 118.574 52.0744H120.45C120.544 52.4718 120.766 52.8166 121.116 53.1087C121.467 53.3893 121.929 53.5295 122.501 53.5295C123.062 53.5295 123.472 53.4126 123.729 53.1789C123.986 52.9451 124.114 52.6763 124.114 52.3724C124.114 51.9283 123.933 51.6302 123.571 51.4783C123.22 51.3147 122.729 51.1686 122.098 51.04C121.607 50.9348 121.116 50.7946 120.626 50.6192C120.146 50.4439 119.743 50.1985 119.416 49.8829C119.1 49.5557 118.943 49.1174 118.943 48.568C118.943 47.8083 119.235 47.1772 119.819 46.6746C120.404 46.1603 121.222 45.9032 122.274 45.9032C123.244 45.9032 124.027 46.137 124.623 46.6045C125.231 47.072 125.587 47.7324 125.692 48.5856H123.904C123.846 48.2116 123.67 47.9194 123.378 47.709C123.098 47.4986 122.718 47.3934 122.239 47.3934C121.771 47.3934 121.409 47.4928 121.152 47.6915C120.894 47.8785 120.766 48.1239 120.766 48.4278C120.766 48.7317 120.941 48.9713 121.292 49.1466C121.654 49.3219 122.127 49.4797 122.712 49.6199C123.296 49.7485 123.834 49.9004 124.325 50.0758C124.827 50.2394 125.231 50.4848 125.534 50.8121C125.838 51.1394 125.99 51.6186 125.99 52.2497C126.002 53.0445 125.692 53.7048 125.061 54.2308C124.442 54.7567 123.594 55.0197 122.519 55.0197ZM129.464 54.8093L126.904 46.1136H128.762L130.445 52.6705L132.339 46.1136H134.408L136.301 52.6705L137.984 46.1136H139.842L137.283 54.8093H135.372L133.373 47.972L131.375 54.8093H129.464ZM143.925 55.0197C143.188 55.0197 142.581 54.897 142.102 54.6515C141.622 54.4061 141.266 54.0847 141.032 53.6873C140.798 53.2782 140.681 52.8341 140.681 52.3549C140.681 51.5134 141.009 50.8472 141.663 50.3563C142.318 49.8654 143.253 49.6199 144.468 49.6199H146.747V49.4622C146.747 48.7843 146.56 48.2758 146.186 47.9369C145.824 47.5979 145.351 47.4285 144.766 47.4285C144.252 47.4285 143.802 47.557 143.416 47.8142C143.042 48.0596 142.814 48.4278 142.733 48.9187H140.874C140.933 48.2875 141.143 47.7499 141.505 47.3058C141.879 46.8499 142.347 46.5051 142.908 46.2714C143.481 46.0259 144.106 45.9032 144.784 45.9032C145.999 45.9032 146.94 46.2246 147.606 46.8675C148.273 47.4986 148.606 48.3635 148.606 49.4622V54.8093H146.993L146.835 53.3191C146.59 53.7983 146.233 54.2016 145.766 54.5288C145.298 54.8561 144.685 55.0197 143.925 55.0197ZM144.293 53.512C144.796 53.512 145.216 53.3951 145.555 53.1613C145.906 52.9159 146.175 52.5945 146.362 52.1971C146.56 51.7997 146.683 51.3614 146.73 50.8822H144.661C143.925 50.8822 143.399 51.0108 143.083 51.2679C142.779 51.5251 142.627 51.8465 142.627 52.2322C142.627 52.6295 142.774 52.9451 143.066 53.1789C143.37 53.4009 143.779 53.512 144.293 53.512ZM150.773 58.6663V46.1136H152.438L152.631 47.4635C152.911 47.0545 153.297 46.6921 153.788 46.3766C154.279 46.061 154.91 45.9032 155.681 45.9032C156.523 45.9032 157.265 46.1019 157.908 46.4993C158.551 46.8967 159.053 47.4402 159.416 48.1297C159.79 48.8193 159.977 49.6024 159.977 50.479C159.977 51.3556 159.79 52.1387 159.416 52.8282C159.053 53.5061 158.551 54.0438 157.908 54.4412C157.265 54.8269 156.517 55.0197 155.664 55.0197C154.986 55.0197 154.384 54.8853 153.858 54.6165C153.344 54.3477 152.935 53.9678 152.631 53.4769V58.6663H150.773ZM155.348 53.4068C156.143 53.4068 156.798 53.138 157.312 52.6003C157.826 52.051 158.083 51.338 158.083 50.4615C158.083 49.8888 157.966 49.3803 157.733 48.9362C157.499 48.4921 157.178 48.1473 156.768 47.9018C156.359 47.6447 155.886 47.5161 155.348 47.5161C154.554 47.5161 153.899 47.7908 153.385 48.3401C152.882 48.8895 152.631 49.5966 152.631 50.4615C152.631 51.338 152.882 52.051 153.385 52.6003C153.899 53.138 154.554 53.4068 155.348 53.4068Z" fill="#FBFBFB"/>
<g clip-path="url(#clip0_38_5364)">
<path d="M42.976 32.1874C42.402 32.1083 42.3747 32.0819 42.648 32.0555C43.1674 31.9764 44.3701 32.0819 45.2175 32.2665C47.1856 32.715 48.9624 33.8757 50.8486 35.9068L51.3406 36.4608L52.0513 36.3553C55.0855 35.8805 58.2017 36.2498 60.7986 37.4104C61.5093 37.727 62.63 38.3601 62.7667 38.5184C62.8214 38.5711 62.9034 38.914 62.958 39.257C63.1494 40.4968 63.0674 41.42 62.6573 42.1323C62.4387 42.528 62.4387 42.6335 62.5753 42.9764C62.6847 43.2402 63.0127 43.4248 63.3134 43.4248C63.9694 43.4248 64.6528 42.4224 64.9808 41.0244L65.1175 40.4704L65.3635 40.7342C66.7576 42.2378 67.851 44.3217 68.015 45.7989L68.0697 46.1946L67.8237 45.8517C67.4137 45.245 67.031 44.8493 66.5116 44.5064C65.5822 43.8997 64.5981 43.715 62.0013 43.5831C59.6505 43.4512 58.3111 43.2666 56.999 42.8445C54.7575 42.1323 53.6094 41.209 50.9579 37.8061C49.7825 36.3025 49.0444 35.4848 48.3064 34.7989C46.6936 33.2953 45.0808 32.504 42.976 32.1874Z" fill="#FBFBFB"/>
<path d="M63.3408 35.5373C63.3954 34.5349 63.5321 33.8755 63.8328 33.2688C63.9421 33.0313 64.0515 32.8203 64.0788 32.8203C64.1061 32.8203 64.0515 33.005 63.9695 33.216C63.7508 33.7963 63.7234 34.6141 63.8601 35.5373C64.0515 36.7244 64.1335 36.8827 65.4456 38.1752C66.0469 38.782 66.7577 39.5469 67.031 39.8635L67.4957 40.4438L67.031 40.0218C66.457 39.4942 65.1449 38.4918 64.8442 38.3599C64.6528 38.2544 64.6255 38.2544 64.4888 38.3863C64.3795 38.4918 64.3522 38.6501 64.3522 39.4151C64.3248 40.6021 64.1608 41.3407 63.7508 42.1057C63.5321 42.5014 63.5048 42.4223 63.6961 41.9738C63.8328 41.6309 63.8601 41.4726 63.8601 40.3383C63.8601 38.0433 63.5868 37.4894 61.9193 36.5661C61.5093 36.3287 60.7986 35.9858 60.3886 35.8011C59.9512 35.6165 59.6232 35.4582 59.6505 35.4582C59.7052 35.4055 61.318 35.8539 61.9467 36.1177C62.9034 36.487 63.0674 36.5134 63.1767 36.487C63.2588 36.4079 63.3134 36.1968 63.3408 35.5373Z" fill="#FBFBFB"/>
<path d="M44.0969 39.4676C42.9488 37.9376 42.2108 35.5635 42.3748 33.7961L42.4295 33.2422L42.7028 33.2949C43.1949 33.3741 44.0422 33.6906 44.4523 33.928C45.5457 34.5611 46.0377 35.4316 46.5024 37.5947C46.6391 38.2278 46.8304 38.9664 46.9124 39.2038C47.0491 39.5995 47.5685 40.5228 48.0058 41.1031C48.3065 41.5252 48.1152 41.7362 47.4318 41.6834C46.3931 41.5779 44.999 40.6547 44.0969 39.4676Z" fill="#FBFBFB"/>
<path d="M61.9469 50.9428C56.5346 48.8325 54.6211 47.0124 54.6211 43.926C54.6211 43.4776 54.6484 43.1083 54.6484 43.1083C54.6758 43.1083 54.8671 43.2666 55.1131 43.4512C56.2065 44.2953 57.4366 44.6646 60.8535 45.1395C62.849 45.4296 63.9971 45.6407 65.0358 45.9836C68.3434 47.0387 70.3935 49.2018 70.8855 52.1299C71.0222 52.974 70.9402 54.5831 70.7215 55.4272C70.5302 56.0867 69.9835 57.3001 69.8468 57.3265C69.8195 57.3265 69.7648 57.1946 69.7648 56.9836C69.7101 55.8757 69.1361 54.8205 68.1793 54.0028C67.0313 53.0531 65.5552 52.3409 61.9469 50.9428Z" fill="#FBFBFB"/>
<path d="M58.12 51.8132C58.0653 51.4175 57.9286 50.9163 57.8466 50.7053L57.7099 50.3096L57.9559 50.5997C58.3113 50.9954 58.5847 51.4702 58.8307 52.1297C59.022 52.6309 59.022 52.7892 59.022 53.6069C59.022 54.3983 58.9947 54.583 58.8307 55.0314C58.5573 55.7436 58.2293 56.2448 57.6826 56.7988C56.6985 57.7748 55.4138 58.3024 53.5823 58.5398C53.2543 58.5662 52.3249 58.6453 51.5048 58.6981C49.4547 58.8036 48.088 59.0146 46.8579 59.4367C46.6939 59.4894 46.5299 59.5422 46.5025 59.5158C46.4478 59.4631 47.2952 58.9882 47.9786 58.6717C48.9353 58.2233 49.9194 57.9858 52.0789 57.6165C53.145 57.4583 54.2384 57.2472 54.5117 57.1417C57.2179 56.324 58.5573 54.2928 58.12 51.8132Z" fill="#FBFBFB"/>
<path d="M60.6075 56.06C59.8968 54.5564 59.7328 53.1319 60.1155 51.7866C60.1701 51.6547 60.2248 51.5228 60.2795 51.5228C60.3341 51.5228 60.4982 51.602 60.6622 51.7075C60.9902 51.9185 61.6736 52.2878 63.423 53.2111C65.6372 54.3718 66.8946 55.2686 67.7693 56.2974C68.5347 57.1943 68.9994 58.2231 69.2181 59.4893C69.3548 60.2015 69.2728 61.9161 69.0814 62.6284C68.48 64.8706 67.1133 66.6643 65.1178 67.6931C64.8171 67.8514 64.5711 67.9569 64.5438 67.9569C64.5164 67.9569 64.6258 67.6931 64.7898 67.3766C65.4458 66.0312 65.5278 64.7387 65.0358 63.2878C64.7351 62.3909 64.1064 61.3094 62.849 59.4893C61.3455 57.379 60.9902 56.825 60.6075 56.06Z" fill="#FBFBFB"/>
<path d="M40.243 64.132C42.2658 62.4965 44.7533 61.3359 47.0494 60.9666C48.0335 60.8083 49.6736 60.8611 50.5757 61.0985C52.0244 61.4678 53.3365 62.2591 54.0199 63.2352C54.6759 64.1848 54.9766 65.0025 55.2773 66.8227C55.3867 67.5349 55.5233 68.2735 55.5507 68.4318C55.7694 69.3815 56.2067 70.1201 56.7534 70.5157C57.6008 71.1225 59.0769 71.1488 60.5257 70.6213C60.7717 70.5421 60.9904 70.463 60.9904 70.4894C61.045 70.5421 60.307 71.0169 59.815 71.2544C59.1316 71.5973 58.5849 71.7028 57.8468 71.7028C56.5347 71.7028 55.414 71.0433 54.5119 69.7244C54.3206 69.4606 53.9379 68.6956 53.6099 67.9834C52.6531 65.8467 52.1611 65.2136 51.0404 64.5014C50.0563 63.8946 48.7989 63.7627 47.8422 64.2112C46.5847 64.7915 46.2567 66.3479 47.1314 67.2975C47.4868 67.6932 48.1428 68.0097 48.6895 68.0889C49.7009 68.2208 50.5757 67.4558 50.5757 66.4798C50.5757 65.8467 50.3297 65.4774 49.6736 65.1872C48.7989 64.8179 47.8422 65.24 47.8695 66.0577C47.8695 66.4006 48.0335 66.6117 48.3889 66.7699C48.6075 66.8755 48.6075 66.8755 48.4435 66.8491C47.6508 66.6908 47.4595 65.7412 48.0882 65.1344C48.8536 64.3958 50.4663 64.7124 51.013 65.7412C51.2317 66.1632 51.2591 67.0073 51.0677 67.5349C50.603 68.6956 49.2909 69.3023 47.9515 68.9594C47.0494 68.722 46.6667 68.4846 45.5733 67.403C43.6599 65.5037 42.9218 65.1344 40.1883 64.7388L39.6689 64.6596L40.243 64.132Z" fill="#FBFBFB"/>
<path fill-rule="evenodd" clip-rule="evenodd" d="M25.8647 21.6885C32.2338 29.1537 42.0471 40.7605 42.5391 41.3936C42.9492 41.9211 42.7852 42.4223 42.1018 42.7917C41.7191 43.0027 40.9264 43.2137 40.5437 43.2137C40.1063 43.2137 39.5869 43.0027 39.2316 42.6598C38.9856 42.4223 37.9195 40.9187 35.514 37.3048C33.6826 34.535 32.1244 32.2401 32.0971 32.2137C31.9878 32.1609 31.9878 32.1609 35.3227 37.9115C37.4275 41.5255 38.1108 42.818 38.1108 42.9763C38.1108 43.3192 38.0015 43.5039 37.5641 43.9787C36.8261 44.7701 36.4981 45.667 36.2521 47.5399C35.9787 49.6238 35.2407 51.101 33.1358 53.607C31.9058 55.0842 31.7144 55.348 31.4137 55.9547C31.031 56.6934 30.9217 57.1154 30.867 58.0651C30.8124 59.0675 30.9217 59.7006 31.2224 60.6502C31.4957 61.4943 31.7964 62.0483 32.5345 63.1298C33.1632 64.0795 33.5459 64.7917 33.5459 65.0555C33.5459 65.2665 33.6005 65.2665 34.5846 65.0555C36.9354 64.5279 38.8762 63.631 39.9423 62.5231C40.5983 61.8372 40.7624 61.4679 40.7624 60.5183C40.7624 59.9116 40.735 59.7797 40.571 59.4104C40.2977 58.83 39.7783 58.3552 38.6576 57.6166C37.1815 56.6406 36.5527 55.8492 36.3887 54.7941C36.2521 53.8972 36.4161 53.2905 37.2361 51.6286C38.0835 49.914 38.3022 49.2017 38.4389 47.4607C38.5209 46.3528 38.6576 45.9044 38.9856 45.5614C39.3409 45.1921 39.6416 45.0602 40.489 44.9547C41.8831 44.7701 42.7852 44.4271 43.4959 43.7677C44.1246 43.2137 44.3979 42.6598 44.4253 41.842L44.4526 41.2353L44.0972 40.866C42.8125 39.4415 25.0173 20.5542 24.9353 20.5542C24.908 20.5542 25.3453 21.0554 25.8647 21.6885ZM34.2566 59.1994C34.5573 58.6982 34.3933 58.0651 33.9012 57.7485C33.4365 57.4583 32.7258 57.5902 32.7258 57.9859C32.7258 58.0914 32.7805 58.197 32.9445 58.2497C33.1905 58.3816 33.2179 58.5135 33.0265 58.8037C32.8352 59.0938 32.8352 59.3576 33.0812 59.5423C33.4639 59.8324 33.9832 59.6742 34.2566 59.1994Z" fill="#FBFBFB"/>
<path fill-rule="evenodd" clip-rule="evenodd" d="M45.3272 45.3242C44.6712 45.5089 44.0425 46.1948 43.8511 46.8806C43.7418 47.3027 43.7965 48.0677 43.9878 48.3051C44.2885 48.6744 44.5619 48.7799 45.3272 48.7799C46.8307 48.7799 48.1154 48.1468 48.2521 47.3818C48.3888 46.7487 47.8147 45.8782 47.022 45.4825C46.612 45.2715 45.7646 45.1924 45.3272 45.3242ZM47.0767 46.6432C47.2954 46.3266 47.2134 45.9837 46.8033 45.7463C46.0653 45.2979 44.9445 45.6672 44.9445 46.353C44.9445 46.696 45.5186 47.0653 46.0653 47.0653C46.4206 47.0653 46.9127 46.8542 47.0767 46.6432Z" fill="#FBFBFB"/>
</g>
<defs>
<clipPath id="clip0_38_5364">
<rect width="46.0051" height="51.1224" fill="white" transform="translate(24.9351 20.5542)"/>
</clipPath>
</defs>
</svg>
