<svg width="19" height="46" viewBox="0 0 19 46" fill="none" xmlns="http://www.w3.org/2000/svg">
<path fill-rule="evenodd" clip-rule="evenodd" d="M6.77148 0.60498H11.7715L11.7715 32.605H6.77148L6.77148 0.60498ZM11.8417 2.89751H18.947V7.63438H11.8417V2.89751ZM18.947 10.0019H11.8417L11.8417 14.7388H18.947V10.0019Z" fill="#7B61FF"/>
<path fill-rule="evenodd" clip-rule="evenodd" d="M9.47374 45.5283C14.7059 45.5283 18.9475 41.2868 18.9475 36.0546C18.9475 30.8224 14.7059 26.5808 9.47374 26.5808C4.24154 26.5808 0 30.8224 0 36.0546C0 41.2868 4.24154 45.5283 9.47374 45.5283ZM9.27148 39.6052C11.2045 39.6052 12.7715 38.0382 12.7715 36.1052C12.7715 34.1722 11.2045 32.6052 9.27148 32.6052C7.33849 32.6052 5.77148 34.1722 5.77148 36.1052C5.77148 38.0382 7.33849 39.6052 9.27148 39.6052Z" fill="#21A8F4" style="mix-blend-mode:screen"/>
</svg>
