<svg width="182" height="46" viewBox="0 0 182 46" fill="none" xmlns="http://www.w3.org/2000/svg">
<path d="M23.7729 14.6469C22.003 13.8013 20.012 13.3763 17.8042 13.3763C16.0931 13.3763 14.4813 13.6448 12.9598 14.1816C11.4383 14.7185 10.1245 15.573 9.02287 16.754C8.31404 17.5101 7.71357 18.3869 7.22145 19.3891L6.92798 13.9982H0.990967V44.9655H7.67745V28.4932C7.67745 26.14 8.10184 24.261 8.95966 22.8562C9.81297 21.4515 10.8875 20.4315 12.1787 19.7917C13.47 19.152 14.8019 18.8298 16.1789 18.8298C18.0932 18.8298 19.6869 19.4204 20.9601 20.597C22.2288 21.7736 22.8654 23.8897 22.8654 26.9452V44.9655H29.5519V24.9007C29.5519 22.3015 29.0281 20.1541 27.9897 18.4585C26.9468 16.7674 25.5427 15.4969 23.7729 14.6514V14.6469Z" fill="white"/>
<path d="M57.6793 15.2378C55.5528 13.9986 52.9703 13.3812 49.9273 13.3812C46.8843 13.3812 44.3244 14.021 41.9902 15.3005C39.6561 16.58 37.8321 18.4276 36.5228 20.8435C35.2089 23.2593 34.5543 26.1404 34.5543 29.4823C34.5543 32.8242 35.2089 35.7052 36.5228 38.1211C37.8366 40.5369 39.6786 42.3846 42.0534 43.6641C44.4282 44.9436 47.1778 45.5833 50.3021 45.5833C52.3834 45.5833 54.3022 45.2925 56.054 44.7154C57.8057 44.1383 59.3137 43.3017 60.5869 42.2056C61.8555 41.114 62.8669 39.8211 63.6163 38.3358L58.3024 35.8574C57.5529 37.2621 56.5325 38.3537 55.2413 39.1411C53.9501 39.924 52.2615 40.3177 50.1802 40.3177C48.3065 40.3177 46.6812 39.9061 45.3041 39.0785C43.9271 38.2553 42.8661 37.034 42.1167 35.4234C41.5839 34.2781 41.2453 32.9584 41.0918 31.4597H63.9956C64.0768 30.9631 64.14 30.386 64.1852 29.7238C64.2258 29.0617 64.2484 28.3594 64.2484 27.6167C64.2484 24.8922 63.684 22.454 62.5599 20.3066C61.4357 18.1592 59.8103 16.4681 57.6838 15.2289L57.6793 15.2378ZM42.0534 23.568C42.7623 21.9395 43.7826 20.7092 45.1145 19.8816C46.4464 19.0584 48.0085 18.6424 49.8009 18.6424C52.257 18.6424 54.1984 19.3939 55.6115 20.9016C56.8576 22.2258 57.5529 24.0556 57.7064 26.382H41.2363C41.4123 25.3485 41.6832 24.4046 42.0489 23.5635L42.0534 23.568Z" fill="white"/>
<path d="M93.396 15.3009C91.2921 14.0214 88.9895 13.3816 86.4883 13.3816C83.7794 13.3816 81.4678 14.0751 79.549 15.4575C78.1403 16.473 77.0387 17.6988 76.2351 19.1304V0.067749H69.5486V44.9708H75.4224L75.7655 39.0073C76.208 39.9334 76.7588 40.7968 77.4225 41.5931C78.4654 42.8547 79.7431 43.8345 81.2646 44.5369C82.7861 45.2392 84.4611 45.5882 86.2941 45.5882C88.8766 45.5882 91.2198 44.9485 93.3237 43.669C95.4277 42.3895 97.0936 40.5507 98.3217 38.1573C99.5497 35.7638 100.164 32.8917 100.164 29.5498C100.164 26.2079 99.5587 23.2105 98.3533 20.817C97.1433 18.4236 95.4863 16.5848 93.3824 15.3054L93.396 15.3009ZM91.2063 37.3789C89.6848 39.2981 87.5718 40.2599 84.8629 40.2599C83.1518 40.2599 81.6438 39.826 80.33 38.9581C79.0162 38.0902 78.0049 36.8644 77.3006 35.2717C76.5917 33.6835 76.2396 31.7956 76.2396 29.6035C76.2396 27.4113 76.6053 25.4518 77.3322 23.8457C78.0591 22.2352 79.0704 20.987 80.3616 20.0967C81.6529 19.2109 83.1744 18.7636 84.9261 18.7636C87.635 18.7636 89.739 19.712 91.2379 21.6133C92.7368 23.5147 93.4863 26.1363 93.4863 29.4782C93.4863 32.8201 92.7278 35.4551 91.2063 37.3744V37.3789Z" fill="white"/>
<path d="M127.118 30.78C127.118 32.3906 126.901 33.7953 126.463 34.9898C126.025 36.1888 125.411 37.1686 124.621 37.9336C123.831 38.6986 122.941 39.2533 121.966 39.6067C120.986 39.9602 119.975 40.1346 118.937 40.1346C116.77 40.1346 115.081 39.6067 113.876 38.5554C112.666 37.5041 112.065 35.5714 112.065 32.7664V13.999H105.379V34.4351C105.379 37.0791 105.898 39.2265 106.941 40.8773C107.984 42.5281 109.37 43.7271 111.099 44.4697C112.828 45.2124 114.715 45.5837 116.756 45.5837C119.257 45.5837 121.42 45.1274 123.257 44.2192C125.09 43.311 126.549 41.8884 127.632 39.9468L127.944 44.9618H133.818V13.9945H127.131V30.78H127.118Z" fill="white"/>
<path d="M145.429 0.0628662H138.743V44.9659H145.429V0.0628662Z" fill="white"/>
<path d="M179.752 40.5056C178.496 40.4967 177.49 39.4587 177.49 38.215V24.4046C177.49 21.8858 176.939 19.8234 175.833 18.2129C174.727 16.6023 173.219 15.3944 171.3 14.5891C169.381 13.7839 167.173 13.3812 164.677 13.3812C161.01 13.3812 158.022 14.1462 155.706 15.6718C153.394 17.2018 151.841 19.2239 151.051 21.7427L156.676 24.0959C157.299 22.1543 158.279 20.7495 159.615 19.8861C160.947 19.0182 162.555 18.5842 164.428 18.5842C166.428 18.5842 167.999 19.1524 169.146 20.2887C170.293 21.425 170.866 23.0222 170.866 25.089V26.2746L159.742 28.4354C156.952 28.9723 154.794 29.9833 153.272 31.4686C151.751 32.9539 150.992 34.8553 150.992 37.1682C150.992 39.0248 151.439 40.5861 152.337 41.8432C153.231 43.1048 154.464 44.0399 156.026 44.6617C157.588 45.2791 159.349 45.5923 161.308 45.5923C162.893 45.5923 164.455 45.3328 165.995 44.8183C167.534 44.3038 168.889 43.5164 170.058 42.4651C170.523 42.049 170.921 41.5838 171.259 41.0782C171.408 41.633 171.62 42.1385 171.905 42.5904C172.51 43.5612 173.341 44.2859 174.406 44.7601C175.467 45.2344 176.668 45.4715 178 45.4715C179.458 45.4715 180.668 45.2433 181.625 44.7915L182 40.2103C181.273 40.4206 180.528 40.5235 179.761 40.519L179.752 40.5056ZM170.212 36.6984C169.774 37.5887 169.16 38.309 168.37 38.8682C167.58 39.4274 166.69 39.8301 165.715 40.0761C164.735 40.3222 163.724 40.4474 162.686 40.4474C161.187 40.4474 159.986 40.1074 159.092 39.4274C158.193 38.7474 157.746 37.8258 157.746 36.6716C157.746 35.5174 158.184 34.5645 159.06 33.9471C159.936 33.3297 161.25 32.8555 162.997 32.5244L170.871 30.9183V33.5131C170.871 34.7523 170.654 35.8171 170.216 36.7029L170.212 36.6984Z" fill="white"/>
</svg>
