<svg width="97" height="97" viewBox="0 0 97 97" fill="none" xmlns="http://www.w3.org/2000/svg">
<path d="M47.0043 12.3232C47.0043 13.8997 46.8974 15.4564 46.6902 16.9799C44.3973 33.9638 29.7107 47.0661 11.9356 47.0661C11.3875 47.0661 10.8327 47.0595 10.2912 47.033C9.24835 46.9866 8.21888 46.8939 7.1961 46.7548C2.48997 46.1255 -0.712075 41.6278 0.290652 37.0241C4.24808 18.9141 18.6539 4.65261 36.9503 0.770937C41.5361 -0.202792 46.0284 2.91049 46.6768 7.51418C46.8974 9.08407 47.011 10.6937 47.011 12.3232H47.0043Z" fill="#21A8F4"/>
<path d="M96.8198 37.1048C97.8025 41.6489 94.6606 46.1002 90.0147 46.7427C88.4304 46.9613 86.8059 47.0739 85.1615 47.0739C84.386 47.0739 83.6306 47.0475 82.8752 47.0011C66.1498 45.9346 52.6196 33.2563 50.4136 17.0208C50.1997 15.4907 50.0928 13.9208 50.0928 12.331C50.0928 10.7413 50.2064 9.09188 50.427 7.52199C51.0688 2.9183 55.5677 -0.194979 60.1535 0.77875C78.4699 4.66704 92.8958 18.9617 96.8198 37.1114V37.1048Z" fill="#21A8F4"/>
<path d="M47.005 84.8697C47.005 86.4197 46.9047 87.9499 46.7042 89.4403L46.6908 89.5264C46.0557 94.2758 41.5435 97.4156 36.8173 96.4021C18.581 92.4807 4.22197 78.2391 0.291283 60.1622C-0.704759 55.5651 2.49728 51.074 7.19673 50.4448C8.21282 50.3056 9.24229 50.2129 10.2851 50.1665C10.8333 50.14 11.3881 50.1334 11.9363 50.1334C31.2956 50.1334 46.9983 65.6932 46.9983 84.8763L47.005 84.8697Z" fill="#21A8F4"/>
<path d="M96.8198 60.0964C92.9092 78.1998 78.5502 92.4679 60.3005 96.3959C55.5543 97.416 51.0353 94.263 50.4003 89.4937L50.3869 89.4076C50.193 87.9304 50.0928 86.4135 50.0928 84.8702C50.0928 66.4355 64.5855 51.3527 82.8886 50.1935C83.6373 50.1405 84.3927 50.1206 85.1548 50.1206C86.7992 50.1206 88.4237 50.2332 90.008 50.4518C94.6539 51.0877 97.7958 55.5457 96.8132 60.0897L96.8198 60.0964Z" fill="#21A8F4"/>
</svg>
