<svg width="182" height="135" viewBox="0 0 182 135" fill="none" xmlns="http://www.w3.org/2000/svg">
<path d="M90.4493 8.51517C90.4493 9.57992 90.377 10.6313 90.2371 11.6602C88.6885 23.1309 78.7694 31.98 66.7644 31.98C66.3942 31.98 66.0195 31.9755 65.6538 31.9576C64.9494 31.9263 64.2542 31.8637 63.5634 31.7697C60.3849 31.3447 58.2223 28.3071 58.8996 25.1978C61.5723 12.9666 71.3018 3.33456 83.6589 0.712944C86.7561 0.0553024 89.7901 2.15797 90.228 5.26723C90.377 6.32751 90.4538 7.41463 90.4538 8.51517H90.4493Z" fill="#21A8F4"/>
<path d="M124.094 25.2529C124.757 28.3219 122.635 31.3282 119.498 31.7622C118.428 31.9098 117.33 31.9859 116.22 31.9859C115.696 31.9859 115.186 31.968 114.676 31.9367C103.38 31.2164 94.2415 22.6536 92.7516 11.6884C92.6071 10.655 92.5349 9.59473 92.5349 8.52103C92.5349 7.44733 92.6117 6.33336 92.7607 5.27309C93.1941 2.16383 96.2326 0.0611617 99.3298 0.718804C111.7 3.3449 121.443 12.9993 124.094 25.2573V25.2529Z" fill="#21A8F4"/>
<path d="M90.4498 57.5116C90.4498 58.5585 90.382 59.5919 90.2466 60.5985L90.2376 60.6567C89.8086 63.8644 86.7611 65.9849 83.5691 65.3004C71.2526 62.652 61.5548 53.0334 58.9 40.8245C58.2273 37.7197 60.3899 34.6865 63.5639 34.2615C64.2501 34.1676 64.9454 34.105 65.6497 34.0736C66.0199 34.0557 66.3947 34.0513 66.7649 34.0513C79.8399 34.0513 90.4452 44.5601 90.4452 57.5161L90.4498 57.5116Z" fill="#21A8F4"/>
<path d="M124.094 40.779C121.453 53.0057 111.755 62.6422 99.4293 65.2952C96.2238 65.9841 93.1718 63.8546 92.7428 60.6335L92.7338 60.5753C92.6029 59.5777 92.5352 58.5532 92.5352 57.5108C92.5352 45.0604 102.323 34.8736 114.685 34.0907C115.191 34.0549 115.701 34.0415 116.215 34.0415C117.326 34.0415 118.423 34.1176 119.493 34.2652C122.631 34.6947 124.753 37.7055 124.089 40.7745L124.094 40.779Z" fill="#21A8F4"/>
<path d="M23.7729 104.014C22.003 103.169 20.012 102.744 17.8042 102.744C16.0931 102.744 14.4813 103.012 12.9598 103.549C11.4383 104.086 10.1245 104.94 9.02287 106.121C8.31404 106.877 7.71357 107.754 7.22145 108.756L6.92798 103.365H0.990967V134.333H7.67745V117.86C7.67745 115.507 8.10184 113.628 8.95966 112.223C9.81297 110.819 10.8875 109.799 12.1787 109.159C13.47 108.519 14.8019 108.197 16.1789 108.197C18.0932 108.197 19.6869 108.788 20.9601 109.964C22.2288 111.141 22.8654 113.257 22.8654 116.312V134.333H29.5519V114.268C29.5519 111.669 29.0281 109.521 27.9897 107.826C26.9468 106.135 25.5427 104.864 23.7729 104.019V104.014Z" fill="white"/>
<path d="M57.6793 104.604C55.5528 103.365 52.9703 102.747 49.9273 102.747C46.8843 102.747 44.3244 103.387 41.9902 104.667C39.6561 105.946 37.8321 107.794 36.5228 110.21C35.2089 112.625 34.5543 115.507 34.5543 118.848C34.5543 122.19 35.2089 125.071 36.5228 127.487C37.8366 129.903 39.6786 131.751 42.0534 133.03C44.4282 134.31 47.1778 134.95 50.3021 134.95C52.3834 134.95 54.3022 134.659 56.054 134.082C57.8057 133.504 59.3137 132.668 60.5869 131.572C61.8555 130.48 62.8669 129.187 63.6163 127.702L58.3024 125.224C57.5529 126.628 56.5325 127.72 55.2413 128.507C53.9501 129.29 52.2615 129.684 50.1802 129.684C48.3065 129.684 46.6812 129.272 45.3041 128.445C43.9271 127.622 42.8661 126.4 42.1167 124.79C41.5839 123.644 41.2453 122.325 41.0918 120.826H63.9956C64.0768 120.329 64.14 119.752 64.1852 119.09C64.2258 118.428 64.2484 117.726 64.2484 116.983C64.2484 114.258 63.684 111.82 62.5599 109.673C61.4357 107.525 59.8103 105.834 57.6838 104.595L57.6793 104.604ZM42.0534 112.934C42.7623 111.306 43.7826 110.075 45.1145 109.248C46.4464 108.425 48.0085 108.009 49.8009 108.009C52.257 108.009 54.1984 108.76 55.6115 110.268C56.8576 111.592 57.5529 113.422 57.7064 115.748H41.2363C41.4123 114.715 41.6832 113.771 42.0489 112.93L42.0534 112.934Z" fill="white"/>
<path d="M93.396 104.668C91.2921 103.389 88.9895 102.749 86.4883 102.749C83.7794 102.749 81.4678 103.442 79.549 104.825C78.1403 105.84 77.0387 107.066 76.2351 108.498V89.4349H69.5486V134.338H75.4224L75.7655 128.374C76.208 129.301 76.7588 130.164 77.4225 130.96C78.4654 132.222 79.7431 133.202 81.2646 133.904C82.7861 134.606 84.4611 134.955 86.2941 134.955C88.8766 134.955 91.2198 134.316 93.3237 133.036C95.4277 131.757 97.0936 129.918 98.3217 127.524C99.5497 125.131 100.164 122.259 100.164 118.917C100.164 115.575 99.5587 112.578 98.3533 110.184C97.1433 107.791 95.4863 105.952 93.3824 104.673L93.396 104.668ZM91.2063 126.746C89.6848 128.665 87.5718 129.627 84.8629 129.627C83.1518 129.627 81.6438 129.193 80.33 128.325C79.0162 127.457 78.0049 126.232 77.3006 124.639C76.5917 123.051 76.2396 121.163 76.2396 118.971C76.2396 116.779 76.6053 114.819 77.3322 113.213C78.0591 111.602 79.0704 110.354 80.3616 109.464C81.6529 108.578 83.1744 108.131 84.9261 108.131C87.635 108.131 89.739 109.079 91.2379 110.981C92.7368 112.882 93.4863 115.504 93.4863 118.845C93.4863 122.187 92.7278 124.822 91.2063 126.742V126.746Z" fill="white"/>
<path d="M127.118 120.146C127.118 121.757 126.901 123.162 126.463 124.356C126.025 125.555 125.411 126.535 124.621 127.3C123.831 128.065 122.941 128.62 121.966 128.973C120.986 129.326 119.975 129.501 118.937 129.501C116.77 129.501 115.081 128.973 113.876 127.922C112.666 126.87 112.065 124.938 112.065 122.133V103.365H105.379V123.801C105.379 126.445 105.898 128.593 106.941 130.244C107.984 131.894 109.37 133.093 111.099 133.836C112.828 134.579 114.715 134.95 116.756 134.95C119.257 134.95 121.42 134.494 123.257 133.585C125.09 132.677 126.549 131.255 127.632 129.313L127.944 134.328H133.818V103.361H127.131V120.146H127.118Z" fill="white"/>
<path d="M145.429 89.4291H138.743V134.332H145.429V89.4291Z" fill="white"/>
<path d="M179.752 129.872C178.496 129.863 177.49 128.825 177.49 127.581V113.771C177.49 111.252 176.939 109.19 175.833 107.579C174.727 105.969 173.219 104.761 171.3 103.955C169.381 103.15 167.173 102.747 164.677 102.747C161.01 102.747 158.022 103.512 155.706 105.038C153.394 106.568 151.841 108.59 151.051 111.109L156.676 113.462C157.299 111.52 158.279 110.116 159.615 109.252C160.947 108.384 162.555 107.95 164.428 107.95C166.428 107.95 167.999 108.519 169.146 109.655C170.293 110.791 170.866 112.388 170.866 114.455V115.641L159.742 117.802C156.952 118.338 154.794 119.35 153.272 120.835C151.751 122.32 150.992 124.221 150.992 126.534C150.992 128.391 151.439 129.952 152.337 131.209C153.231 132.471 154.464 133.406 156.026 134.028C157.588 134.645 159.349 134.958 161.308 134.958C162.893 134.958 164.455 134.699 165.995 134.185C167.534 133.67 168.889 132.883 170.058 131.831C170.523 131.415 170.921 130.95 171.259 130.444C171.408 130.999 171.62 131.505 171.905 131.957C172.51 132.927 173.341 133.652 174.406 134.126C175.467 134.601 176.668 134.838 178 134.838C179.458 134.838 180.668 134.61 181.625 134.158L182 129.577C181.273 129.787 180.528 129.89 179.761 129.885L179.752 129.872ZM170.212 126.065C169.774 126.955 169.16 127.675 168.37 128.234C167.58 128.794 166.69 129.196 165.715 129.442C164.735 129.688 163.724 129.814 162.686 129.814C161.187 129.814 159.986 129.474 159.092 128.794C158.193 128.114 157.746 127.192 157.746 126.038C157.746 124.884 158.184 123.931 159.06 123.313C159.936 122.696 161.25 122.222 162.997 121.891L170.871 120.285V122.879C170.871 124.119 170.654 125.183 170.216 126.069L170.212 126.065Z" fill="white"/>
</svg>
