<svg width="128" height="30" viewBox="0 0 128 30" fill="none" xmlns="http://www.w3.org/2000/svg">
<g clip-path="url(#clip0_81_1872)">
<path d="M14.8938 3.66805C14.8946 5.09404 14.607 6.5062 14.0475 7.8238C13.4879 9.1414 12.6673 10.3386 11.6327 11.3469C10.598 12.3552 9.36958 13.1549 8.01757 13.7002C6.66556 14.2456 5.21652 14.5258 3.75329 14.525C3.577 14.525 3.40281 14.525 3.23077 14.525C2.89942 14.5105 2.57232 14.4816 2.24734 14.4381C1.89271 14.3908 1.5519 14.2727 1.24618 14.0913C0.940467 13.9098 0.676417 13.6689 0.47052 13.3835C0.264624 13.0982 0.121298 12.7746 0.0495012 12.4328C-0.0222957 12.0911 -0.0210213 11.7385 0.0532349 11.3973C0.67393 8.61914 2.10183 6.07374 4.16651 4.06491C6.23118 2.05609 8.8454 0.668713 11.6971 0.0683809C12.0431 -0.00312014 12.4005 -0.00455413 12.7471 0.0641864C13.0937 0.132927 13.4221 0.270368 13.7119 0.467971C14.0017 0.665574 14.2467 0.919121 14.4318 1.21288C14.6168 1.50663 14.7379 1.83434 14.7876 2.17562C14.858 2.67014 14.8935 3.16879 14.8938 3.66805Z" fill="#18A0ED"/>
<path d="M30.7262 11.4099C30.7992 11.747 30.8004 12.0951 30.7297 12.4326C30.659 12.7701 30.5179 13.0899 30.3152 13.3721C30.1125 13.6543 29.8524 13.8929 29.5511 14.0731C29.2499 14.2533 28.9139 14.3712 28.5639 14.4196C28.0529 14.4887 27.5377 14.5233 27.0218 14.5231C26.7755 14.5231 26.5355 14.5231 26.2954 14.5024C23.7314 14.3391 21.304 13.317 19.4247 11.6092C17.5454 9.90143 16.3296 7.61303 15.9833 5.13171C15.9148 4.64606 15.8808 4.15639 15.8814 3.66618C15.8812 3.16346 15.9167 2.66133 15.9876 2.16338C16.0372 1.82211 16.1583 1.49442 16.3434 1.20067C16.5284 0.906914 16.7734 0.653367 17.0632 0.455764C17.353 0.258161 17.6814 0.12072 18.028 0.0519793C18.3746 -0.0167612 18.732 -0.0153272 19.078 0.0561738C21.9337 0.657871 24.551 2.04871 26.6168 4.06226C28.6826 6.07581 30.1093 8.62679 30.7262 11.4099Z" fill="#18A0ED"/>
<path d="M14.8937 26.3364C14.8942 26.814 14.8623 27.2911 14.7981 27.7646V27.7916C14.7531 28.1406 14.6336 28.4765 14.4474 28.7779C14.2612 29.0792 14.0124 29.3393 13.717 29.5415C13.4216 29.7436 13.0861 29.8833 12.732 29.9516C12.3779 30.0199 12.0131 30.0153 11.661 29.9381C8.81647 29.3324 6.21041 27.9431 4.15292 25.9354C2.09544 23.9277 0.673142 21.3862 0.0552856 18.6133C-0.0183147 18.2724 -0.0190769 17.9203 0.0530299 17.579C0.125137 17.2378 0.268575 16.9146 0.474412 16.6298C0.680249 16.3449 0.944075 16.1044 1.24945 15.9232C1.55483 15.742 1.8952 15.6241 2.24939 15.5767C2.57224 15.5353 2.90147 15.5063 3.23282 15.4897C3.40699 15.4897 3.58115 15.4897 3.75744 15.4897C6.70934 15.4914 9.53996 16.6345 11.6279 18.6681C13.7158 20.7017 14.8903 23.4596 14.8937 26.3364Z" fill="#18A0ED"/>
<path d="M30.726 18.5943C30.1113 21.3702 28.6907 23.9154 26.6334 25.9265C24.5761 27.9377 21.9689 29.33 19.1225 29.9377C18.7691 30.0145 18.4031 30.0186 18.048 29.9496C17.6929 29.8806 17.3565 29.7401 17.0603 29.537C16.7642 29.3339 16.5148 29.0728 16.3282 28.7704C16.1416 28.468 16.0219 28.1309 15.9768 27.7808V27.7539C15.9133 27.2838 15.8821 26.8101 15.8833 26.336C15.8834 23.578 16.9604 20.9234 18.8957 18.9112C20.8311 16.899 23.4797 15.68 26.3038 15.5018C26.5417 15.4852 26.7817 15.479 27.0238 15.479C27.5397 15.4788 28.0549 15.5134 28.5659 15.5825C28.9159 15.6311 29.2519 15.7493 29.5531 15.9298C29.8543 16.1102 30.1142 16.3491 30.3167 16.6315C30.5193 16.9139 30.6601 17.2338 30.7305 17.5715C30.8009 17.9091 30.7994 18.2572 30.726 18.5943Z" fill="#18A0ED"/>
<path d="M53.5661 8.13693C52.6881 7.73569 51.7278 7.53466 50.7582 7.54906C49.9822 7.54458 49.2112 7.67064 48.4791 7.92167C47.7716 8.16478 47.1358 8.57266 46.627 9.10982C46.2839 9.47339 45.9976 9.8842 45.7774 10.329L45.6393 7.84508H42.8462V22.1734H45.994V14.5517C45.994 13.4629 46.1944 12.5936 46.5951 11.9436C46.949 11.3385 47.4749 10.846 48.1095 10.5257C48.6922 10.2353 49.3369 10.0828 49.9914 10.0806C50.8238 10.0575 51.6319 10.355 52.2407 10.9086C52.8397 11.4523 53.1385 12.4314 53.1371 13.8459V22.1837H56.2849V12.8792C56.2849 11.6745 56.0399 10.6809 55.55 9.89847C55.0803 9.1344 54.3904 8.52181 53.5661 8.13693Z" fill="white"/>
<path d="M69.5175 8.40796C68.5163 7.83527 67.3014 7.54892 65.8726 7.54892C64.5696 7.52732 63.2829 7.83315 62.1365 8.43694C61.0399 9.02799 60.1455 9.91976 59.5643 11.0016C58.9469 12.1194 58.6382 13.4518 58.6382 14.9987C58.6382 16.5457 58.9469 17.8781 59.5643 18.9958C60.1513 20.0834 61.057 20.9761 62.1662 21.5605C63.3628 22.1712 64.6985 22.4767 66.0489 22.4485C66.9664 22.4582 67.8795 22.3233 68.7528 22.049C69.5325 21.8023 70.2543 21.4076 70.8768 20.8878C71.4687 20.3887 71.9532 19.7801 72.3021 19.0973L69.8042 17.9505C69.4735 18.5749 68.975 19.1 68.362 19.4698C67.7545 19.8328 66.9608 20.0142 65.981 20.0142C65.1765 20.0342 64.3823 19.8357 63.687 19.4409C63.0228 19.0383 62.4998 18.4486 62.1874 17.7497C61.9235 17.1687 61.7605 16.5489 61.7053 15.9157H72.4783C72.5228 15.6498 72.5526 15.3817 72.5676 15.1126C72.5867 14.8083 72.5973 14.4916 72.5973 14.1397C72.6175 12.9662 72.3449 11.8055 71.8029 10.7574C71.2872 9.77743 70.4941 8.9621 69.5175 8.40796ZM62.1662 12.2622C62.4539 11.5617 62.9578 10.9657 63.6084 10.5566C64.2724 10.165 65.0372 9.96609 65.8131 9.9832C66.9686 9.9832 67.8798 10.3323 68.5468 11.0306C69.133 11.6433 69.4615 12.4885 69.5323 13.5663H61.7839C61.8575 13.1183 61.9859 12.6805 62.1662 12.2622Z" fill="white"/>
<path d="M86.3205 8.42851C85.3452 7.8406 84.2196 7.5328 83.0729 7.54048C82.0959 7.50917 81.129 7.74063 80.2782 8.20946C79.4273 8.67829 78.7253 9.3664 78.2492 10.1983V1.39062H75.1035V22.1669H77.8647L78.0283 19.4076C78.2366 19.8363 78.4977 20.2388 78.8057 20.6061C79.2955 21.187 79.9143 21.6521 80.6154 21.9661C81.3575 22.2966 82.1656 22.4627 82.9815 22.4525C84.1483 22.4653 85.2952 22.1576 86.2908 21.5645C87.3051 20.9469 88.12 20.063 88.642 19.0143C89.2198 17.9103 89.5087 16.5828 89.5087 15.0317C89.5087 13.4461 89.2254 12.0992 88.659 10.9911C88.1458 9.93733 87.3345 9.04827 86.3205 8.42851ZM85.2924 18.6438C84.5759 19.5311 83.5847 19.9755 82.3188 19.9768C81.5648 19.9887 80.8246 19.7788 80.1948 19.3745C79.5599 18.9528 79.0647 18.3602 78.7696 17.6688C78.096 15.9668 78.1014 14.0806 78.7845 12.3821C79.0854 11.6869 79.5788 11.087 80.2097 10.6496C80.8414 10.2292 81.5923 10.012 82.3571 10.0286C83.6315 10.0286 84.6227 10.4681 85.3307 11.3472C86.0387 12.2262 86.3927 13.4392 86.3927 14.9862C86.3743 16.5483 86.0075 17.7703 85.2924 18.6521V18.6438Z" fill="white"/>
<path d="M102.191 15.601C102.205 16.2628 102.101 16.9219 101.883 17.5488C101.704 18.0612 101.407 18.527 101.015 18.9109C100.66 19.2534 100.234 19.5175 99.7658 19.685C99.3087 19.8457 98.8264 19.9277 98.3405 19.9272C97.321 19.9272 96.5266 19.6836 95.9574 19.1965C95.3882 18.7094 95.1049 17.8165 95.1078 16.518V7.83447H91.96V17.2921C91.96 18.5134 92.2057 19.5063 92.697 20.2708C93.1557 21.0075 93.8388 21.5864 94.6511 21.9268C95.4922 22.2758 96.3984 22.4512 97.3125 22.4422C98.3678 22.4704 99.4152 22.2577 100.371 21.8212C101.25 21.3854 101.969 20.6948 102.429 19.8444L102.576 22.1648H105.337V7.83654H102.191V15.601Z" fill="white"/>
<path d="M110.8 1.38867H107.654V22.1649H110.8V1.38867Z" fill="white"/>
<path d="M126.947 20.099C126.662 20.0941 126.391 19.9801 126.192 19.7817C125.993 19.5833 125.883 19.3165 125.885 19.0392V12.6492C125.885 11.4831 125.625 10.5282 125.105 9.7844C124.581 9.0349 123.842 8.45188 122.981 8.1077C121.992 7.71869 120.932 7.52859 119.865 7.54882C118.14 7.54882 116.734 7.9021 115.645 8.60865C114.598 9.26386 113.822 10.2588 113.455 11.4176L116.101 12.5064C116.395 11.608 116.855 10.9581 117.482 10.5565C118.16 10.1432 118.947 9.93432 119.746 9.95619C120.688 9.95619 121.428 10.2184 121.968 10.7428C122.507 11.2672 122.777 12.0075 122.775 12.9639V13.5124L117.542 14.5122C116.229 14.7606 115.214 15.2284 114.498 15.9156C114.142 16.2595 113.863 16.6712 113.679 17.125C113.494 17.5788 113.408 18.0649 113.425 18.5528C113.388 19.3012 113.597 20.0417 114.023 20.6657C114.449 21.2897 115.069 21.7643 115.791 22.02C116.584 22.3157 117.428 22.4611 118.276 22.4484C119.027 22.4484 119.772 22.3274 120.481 22.0903C121.19 21.8627 121.841 21.4916 122.393 21.0015C122.608 20.8116 122.798 20.596 122.958 20.3598C123.057 20.7348 123.243 21.083 123.5 21.378C123.758 21.6731 124.081 21.9074 124.445 22.0634C124.98 22.2904 125.56 22.4026 126.144 22.3925C126.727 22.4112 127.308 22.303 127.843 22.0758L128.019 19.9562C127.671 20.0555 127.31 20.1037 126.947 20.099ZM122.459 18.3375C122.262 18.7376 121.963 19.0824 121.592 19.3393C121.214 19.5999 120.79 19.7895 120.341 19.8982C119.875 20.014 119.396 20.0717 118.916 20.07C118.311 20.1021 117.713 19.936 117.217 19.5981C117.012 19.452 116.847 19.2595 116.736 19.0373C116.625 18.8152 116.571 18.57 116.579 18.323C116.565 18.0791 116.614 17.8357 116.722 17.6153C116.83 17.3949 116.994 17.2047 117.197 17.0624C117.61 16.7746 118.225 16.5552 119.05 16.4021L122.754 15.661V16.8616C122.772 17.3691 122.671 17.8739 122.459 18.3375Z" fill="white"/>
</g>
<defs>
<clipPath id="clip0_81_1872">
<rect width="128" height="30" fill="white"/>
</clipPath>
</defs>
</svg>
