<svg width="20" height="17" viewBox="0 0 20 17" fill="none" xmlns="http://www.w3.org/2000/svg">
<path d="M2.372 3.78121C2.38425 3.65948 2.36784 3.53656 2.32408 3.42231C2.28033 3.30805 2.21043 3.20562 2.12 3.12321L0.252 0.856212V0.517212H6.05L10.532 10.4222L14.472 0.517212H20V0.856212L18.403 2.39721C18.3353 2.44946 18.2831 2.51911 18.2519 2.59871C18.2208 2.67832 18.2118 2.7649 18.226 2.84921V14.1832C18.2118 14.2675 18.2208 14.3541 18.2519 14.4337C18.2831 14.5133 18.3353 14.583 18.403 14.6352L19.963 16.1772V16.5172H12.119V16.1782L13.735 14.5982C13.894 14.4382 13.894 14.3912 13.894 14.1472V4.98521L9.402 16.4792H8.796L3.566 4.98521V12.6892C3.523 13.0122 3.63 13.3392 3.856 13.5732L5.957 16.1412V16.4792H0V16.1412L2.1 13.5732C2.21111 13.4573 2.29358 13.3169 2.3408 13.1635C2.38803 13.01 2.39871 12.8476 2.372 12.6892V3.78121Z" fill="#FCFCFC"/>
</svg>
