<svg width="25" height="25" viewBox="0 0 25 25" fill="none" xmlns="http://www.w3.org/2000/svg">
<path d="M14 2.00008C14 1.64646 13.8595 1.30732 13.6094 1.05727C13.3594 0.807224 13.0202 0.666748 12.6666 0.666748C12.313 0.666748 11.9739 0.807224 11.7238 1.05727C11.4738 1.30732 11.3333 1.64646 11.3333 2.00008V11.3334H1.99996C1.64634 11.3334 1.3072 11.4739 1.05715 11.7239C0.807102 11.974 0.666626 12.3131 0.666626 12.6667C0.666626 13.0204 0.807102 13.3595 1.05715 13.6096C1.3072 13.8596 1.64634 14.0001 1.99996 14.0001H11.3333V23.3334C11.3333 23.687 11.4738 24.0262 11.7238 24.2762C11.9739 24.5263 12.313 24.6667 12.6666 24.6667C13.0202 24.6667 13.3594 24.5263 13.6094 24.2762C13.8595 24.0262 14 23.687 14 23.3334V14.0001H23.3333C23.6869 14.0001 24.0261 13.8596 24.2761 13.6096C24.5262 13.3595 24.6666 13.0204 24.6666 12.6667C24.6666 12.3131 24.5262 11.974 24.2761 11.7239C24.0261 11.4739 23.6869 11.3334 23.3333 11.3334H14V2.00008Z" fill="#FBFBFB"/>
</svg>
