<svg width="504" height="301" viewBox="0 0 504 301" fill="none" xmlns="http://www.w3.org/2000/svg">
<g clip-path="url(#clip0_38_4001)">
<rect x="0.390625" y="0.149658" width="502.966" height="147.236" rx="10.4707" fill="#10222D"/>
<path d="M33.1186 53.5451V41.0976H40.6938V42.3245H34.6123V46.6989H39.7869V47.9081H34.6123V53.5451H33.1186ZM42.5286 53.5451V44.7251H43.88L44.0045 46.4144C44.2771 45.8335 44.6921 45.3712 45.2492 45.0274C45.8064 44.6836 46.494 44.5117 47.312 44.5117V46.0766H46.903C46.3814 46.0766 45.9012 46.1714 45.4626 46.3611C45.024 46.5389 44.6743 46.8471 44.4135 47.2858C44.1527 47.7244 44.0223 48.329 44.0223 49.0995V53.5451H42.5286ZM52.6773 53.7585C51.8475 53.7585 51.1006 53.5688 50.4368 53.1894C49.7729 52.8101 49.2454 52.2766 48.8542 51.589C48.4748 50.8896 48.2851 50.0716 48.2851 49.1351C48.2851 48.1986 48.4807 47.3865 48.8719 46.6989C49.2631 45.9995 49.7907 45.4601 50.4545 45.0808C51.1303 44.7014 51.883 44.5117 52.7129 44.5117C53.5427 44.5117 54.2896 44.7014 54.9534 45.0808C55.6173 45.4601 56.1389 45.9995 56.5183 46.6989C56.9095 47.3865 57.1051 48.1986 57.1051 49.1351C57.1051 50.0716 56.9095 50.8896 56.5183 51.589C56.1271 52.2766 55.5936 52.8101 54.9179 53.1894C54.254 53.5688 53.5071 53.7585 52.6773 53.7585ZM52.6773 52.4781C53.1871 52.4781 53.6613 52.3537 54.0999 52.1047C54.5385 51.8558 54.8942 51.4823 55.1668 50.9844C55.4395 50.4865 55.5758 49.8701 55.5758 49.1351C55.5758 48.4001 55.4395 47.7837 55.1668 47.2858C54.906 46.7879 54.5563 46.4144 54.1177 46.1655C53.679 45.9165 53.2108 45.7921 52.7129 45.7921C52.2031 45.7921 51.7289 45.9165 51.2903 46.1655C50.8517 46.4144 50.496 46.7879 50.2234 47.2858C49.9507 47.7837 49.8144 48.4001 49.8144 49.1351C49.8144 49.8701 49.9507 50.4865 50.2234 50.9844C50.496 51.4823 50.8458 51.8558 51.2725 52.1047C51.7112 52.3537 52.1794 52.4781 52.6773 52.4781ZM59.182 53.5451V44.7251H60.5334L60.6401 46.0054C60.9246 45.5313 61.304 45.1638 61.7782 44.9029C62.2524 44.6421 62.7858 44.5117 63.3786 44.5117C64.078 44.5117 64.6767 44.654 65.1746 44.9385C65.6843 45.223 66.0755 45.6557 66.3482 46.2366C66.6564 45.7031 67.0772 45.2823 67.6107 44.9741C68.156 44.6659 68.7428 44.5117 69.3711 44.5117C70.4262 44.5117 71.2679 44.8318 71.8962 45.472C72.5245 46.1003 72.8387 47.0724 72.8387 48.3882V53.5451H71.3627V48.5483C71.3627 47.6355 71.179 46.9479 70.8115 46.4856C70.444 46.0232 69.9165 45.7921 69.2289 45.7921C68.5176 45.7921 67.9249 46.0706 67.4507 46.6278C66.9883 47.1731 66.7572 47.9556 66.7572 48.9751V53.5451H65.2635V48.5483C65.2635 47.6355 65.0797 46.9479 64.7122 46.4856C64.3447 46.0232 63.8172 45.7921 63.1296 45.7921C62.4302 45.7921 61.8434 46.0706 61.3692 46.6278C60.9068 47.1731 60.6757 47.9556 60.6757 48.9751V53.5451H59.182Z" fill="#5F6B7C"/>
<path d="M33.9566 101.991V99.1188C35.6696 97.7585 37.3071 96.3855 38.8689 95C40.4308 93.6145 41.8163 92.2541 43.0255 90.919C44.2599 89.5587 45.2297 88.2361 45.9351 86.9514C46.6405 85.6414 46.9931 84.3818 46.9931 83.1727C46.9931 82.3665 46.8546 81.6108 46.5775 80.9054C46.3004 80.1749 45.8469 79.5955 45.2171 79.1672C44.5874 78.7138 43.7434 78.4871 42.6854 78.4871C41.0984 78.4871 39.9018 78.9909 39.0956 79.9985C38.3147 81.0062 37.9368 82.2154 37.962 83.6261H34.07C34.0952 81.7619 34.4856 80.2001 35.2414 78.9405C36.0223 77.6809 37.0551 76.7237 38.3399 76.0687C39.6498 75.4137 41.1235 75.0862 42.761 75.0862C45.2549 75.0862 47.2451 75.7916 48.7313 77.2023C50.2428 78.5878 50.9986 80.5276 50.9986 83.0215C50.9986 84.5078 50.6333 85.9815 49.9027 87.4426C49.1974 88.9037 48.2653 90.3144 47.1065 91.6747C45.9729 93.0099 44.7511 94.2695 43.4412 95.4535C42.1312 96.6374 40.8842 97.7081 39.7002 98.6654H51.7921V101.991H33.9566ZM57.5458 102.217C56.79 102.217 56.1602 101.978 55.6564 101.499C55.1778 100.996 54.9385 100.404 54.9385 99.7234C54.9385 99.018 55.1778 98.426 55.6564 97.9474C56.1602 97.4436 56.79 97.1917 57.5458 97.1917C58.3015 97.1917 58.9187 97.4436 59.3973 97.9474C59.876 98.426 60.1153 99.018 60.1153 99.7234C60.1153 100.404 59.876 100.996 59.3973 101.499C58.9187 101.978 58.3015 102.217 57.5458 102.217ZM73.522 102.444C71.6579 102.444 70.0456 102.117 68.6853 101.462C67.3249 100.781 66.2417 99.8619 65.4356 98.7031C64.6547 97.5191 64.176 96.184 63.9997 94.6977H67.9295C68.1814 95.9573 68.8112 97.0027 69.8189 97.834C70.8265 98.6402 72.0735 99.0432 73.5598 99.0432C74.6682 99.0432 75.6255 98.7787 76.4316 98.2497C77.2378 97.6955 77.8675 96.9649 78.321 96.058C78.7744 95.1512 79.0011 94.1309 79.0011 92.9973C79.0011 91.2087 78.4973 89.7854 77.4897 88.7274C76.482 87.6441 75.2098 87.1025 73.6732 87.1025C72.3632 87.1025 71.2422 87.4174 70.3101 88.0472C69.378 88.6518 68.6979 89.4201 68.2696 90.3522H64.4531L66.7203 75.5397H81.0039V79.0539H69.7433L68.383 86.12C68.9624 85.4651 69.7559 84.9235 70.7636 84.4952C71.7964 84.0418 72.9552 83.815 74.24 83.815C76.0286 83.815 77.5652 84.2307 78.85 85.062C80.1348 85.8681 81.1172 86.964 81.7974 88.3495C82.5028 89.735 82.8554 91.2717 82.8554 92.9595C82.8554 94.7229 82.4776 96.3226 81.7218 97.7585C80.9661 99.1944 79.8828 100.341 78.4721 101.197C77.0866 102.028 75.4366 102.444 73.522 102.444Z" fill="#FBFBFB"/>
<rect x="337.052" y="31.5618" width="134.892" height="52.9414" rx="26.1768" fill="#314253"/>
<rect x="347.523" y="42.3267" width="31.4121" height="31.4121" rx="15.7061" fill="#617EE9"/>
<path opacity="0.6" d="M363.547 55.3074L357.121 58.2279L363.547 62.0312L369.979 58.2279L363.547 55.3074Z" fill="#FBFBFB"/>
<path opacity="0.45" d="M357.121 58.2278L363.547 62.0311V47.562L357.121 58.2278Z" fill="#FBFBFB"/>
<path opacity="0.8" d="M363.547 47.562V62.0311L369.974 58.2278L363.547 47.562Z" fill="#FBFBFB"/>
<path opacity="0.45" d="M357.121 59.4492L363.547 68.5033V63.2474L357.121 59.4492Z" fill="#FBFBFB"/>
<path opacity="0.8" d="M363.547 63.2474V68.5033L369.979 59.4492L363.547 63.2474Z" fill="#FBFBFB"/>
<path d="M389.247 64.0327V50.0293H398.149V51.7497H391.367V56.1108H397.549V57.7912H391.367V62.3123H398.149V64.0327H389.247ZM403.956 64.0327V51.7497H399.815V50.0293H410.197V51.7497H406.076V64.0327H403.956ZM412.182 64.0327V50.0293H414.302V56.0307H421.084V50.0293H423.205V64.0327H421.084V57.7712H414.302V64.0327H412.182Z" fill="#FBFBFB"/>
<path d="M439.66 53.6698L448.385 62.3954L457.111 53.6698" stroke="#FBFBFB" stroke-width="2.61768" stroke-linecap="round" stroke-linejoin="round"/>
<path d="M338.167 110.974V99.9796H342.314C343.455 99.9796 344.319 100.247 344.905 100.781C345.492 101.315 345.785 101.985 345.785 102.791C345.785 103.493 345.596 104.053 345.219 104.472C344.842 104.88 344.387 105.157 343.853 105.304C344.272 105.388 344.644 105.555 344.968 105.807C345.303 106.058 345.565 106.372 345.753 106.749C345.942 107.126 346.036 107.534 346.036 107.974C346.036 108.539 345.895 109.053 345.612 109.513C345.34 109.963 344.937 110.319 344.403 110.581C343.869 110.843 343.214 110.974 342.439 110.974H338.167ZM339.832 104.691H342.11C342.748 104.691 343.235 104.545 343.57 104.252C343.905 103.948 344.073 103.534 344.073 103.011C344.073 102.498 343.905 102.089 343.57 101.786C343.246 101.482 342.748 101.33 342.078 101.33H339.832V104.691ZM339.832 109.607H342.22C342.89 109.607 343.408 109.45 343.774 109.136C344.151 108.822 344.34 108.382 344.34 107.817C344.34 107.252 344.146 106.807 343.759 106.482C343.371 106.147 342.848 105.979 342.188 105.979H339.832V109.607ZM350.437 111.162C349.777 111.162 349.233 111.052 348.803 110.833C348.374 110.613 348.055 110.325 347.845 109.969C347.636 109.602 347.531 109.204 347.531 108.775C347.531 108.021 347.824 107.424 348.411 106.985C348.997 106.545 349.835 106.325 350.924 106.325H352.965V106.184C352.965 105.576 352.798 105.121 352.463 104.817C352.138 104.513 351.714 104.362 351.191 104.362C350.73 104.362 350.327 104.477 349.981 104.707C349.646 104.927 349.442 105.257 349.369 105.697H347.704C347.756 105.131 347.945 104.65 348.269 104.252C348.604 103.843 349.023 103.534 349.526 103.325C350.039 103.105 350.599 102.995 351.206 102.995C352.295 102.995 353.138 103.283 353.735 103.859C354.332 104.424 354.63 105.199 354.63 106.184V110.974H353.185L353.044 109.639C352.824 110.068 352.505 110.429 352.086 110.723C351.667 111.016 351.117 111.162 350.437 111.162ZM350.767 109.812C351.217 109.812 351.594 109.707 351.897 109.498C352.212 109.278 352.452 108.99 352.62 108.634C352.798 108.278 352.908 107.885 352.95 107.456H351.096C350.437 107.456 349.966 107.571 349.683 107.801C349.411 108.032 349.275 108.32 349.275 108.665C349.275 109.021 349.405 109.304 349.667 109.513C349.939 109.712 350.306 109.812 350.767 109.812ZM356.571 110.974V99.6655H358.236V110.974H356.571ZM362.983 111.162C362.324 111.162 361.779 111.052 361.35 110.833C360.92 110.613 360.601 110.325 360.392 109.969C360.182 109.602 360.078 109.204 360.078 108.775C360.078 108.021 360.371 107.424 360.957 106.985C361.543 106.545 362.381 106.325 363.47 106.325H365.512V106.184C365.512 105.576 365.344 105.121 365.009 104.817C364.685 104.513 364.261 104.362 363.737 104.362C363.276 104.362 362.873 104.477 362.528 104.707C362.193 104.927 361.988 105.257 361.915 105.697H360.25C360.303 105.131 360.491 104.65 360.816 104.252C361.151 103.843 361.57 103.534 362.072 103.325C362.585 103.105 363.145 102.995 363.753 102.995C364.842 102.995 365.685 103.283 366.281 103.859C366.878 104.424 367.177 105.199 367.177 106.184V110.974H365.732L365.59 109.639C365.371 110.068 365.051 110.429 364.632 110.723C364.214 111.016 363.664 111.162 362.983 111.162ZM363.313 109.812C363.763 109.812 364.14 109.707 364.444 109.498C364.758 109.278 364.999 108.99 365.166 108.634C365.344 108.278 365.454 107.885 365.496 107.456H363.643C362.983 107.456 362.512 107.571 362.229 107.801C361.957 108.032 361.821 108.32 361.821 108.665C361.821 109.021 361.952 109.304 362.214 109.513C362.486 109.712 362.852 109.812 363.313 109.812ZM369.118 110.974V103.184H370.594L370.72 104.55C370.961 104.068 371.312 103.692 371.772 103.419C372.243 103.137 372.783 102.995 373.39 102.995C374.332 102.995 375.07 103.288 375.604 103.875C376.149 104.461 376.421 105.335 376.421 106.498V110.974H374.772V106.67C374.772 105.163 374.154 104.409 372.919 104.409C372.301 104.409 371.788 104.629 371.38 105.068C370.982 105.508 370.783 106.136 370.783 106.953V110.974H369.118ZM382.073 111.162C381.309 111.162 380.623 110.99 380.015 110.644C379.419 110.299 378.947 109.822 378.602 109.215C378.267 108.597 378.099 107.885 378.099 107.079C378.099 106.273 378.267 105.566 378.602 104.958C378.947 104.341 379.419 103.859 380.015 103.514C380.623 103.168 381.309 102.995 382.073 102.995C383.036 102.995 383.842 103.247 384.492 103.749C385.151 104.252 385.575 104.932 385.764 105.791H384.02C383.916 105.362 383.685 105.027 383.329 104.786C382.973 104.545 382.555 104.424 382.073 104.424C381.665 104.424 381.288 104.529 380.942 104.739C380.597 104.938 380.319 105.236 380.11 105.634C379.9 106.021 379.796 106.503 379.796 107.079C379.796 107.655 379.9 108.142 380.11 108.539C380.319 108.927 380.597 109.225 380.942 109.435C381.288 109.644 381.665 109.749 382.073 109.749C382.555 109.749 382.973 109.628 383.329 109.388C383.685 109.147 383.916 108.806 384.02 108.367H385.764C385.586 109.204 385.167 109.88 384.507 110.393C383.848 110.906 383.036 111.162 382.073 111.162ZM391.213 111.162C390.449 111.162 389.768 110.995 389.171 110.66C388.585 110.314 388.124 109.838 387.789 109.231C387.454 108.623 387.287 107.916 387.287 107.11C387.287 106.293 387.449 105.576 387.774 104.958C388.109 104.341 388.569 103.859 389.156 103.514C389.753 103.168 390.444 102.995 391.229 102.995C391.993 102.995 392.658 103.168 393.224 103.514C393.789 103.849 394.229 104.299 394.543 104.864C394.857 105.43 395.014 106.053 395.014 106.733C395.014 106.838 395.009 106.953 394.998 107.079C394.998 107.194 394.993 107.325 394.983 107.471H388.92C388.973 108.225 389.219 108.801 389.658 109.199C390.109 109.587 390.627 109.78 391.213 109.78C391.684 109.78 392.077 109.676 392.391 109.466C392.716 109.246 392.957 108.953 393.114 108.587H394.779C394.569 109.32 394.15 109.932 393.522 110.424C392.904 110.916 392.135 111.162 391.213 111.162ZM391.213 104.362C390.658 104.362 390.166 104.529 389.737 104.864C389.308 105.189 389.046 105.681 388.952 106.341H393.349C393.318 105.733 393.103 105.252 392.705 104.896C392.307 104.54 391.81 104.362 391.213 104.362ZM397.401 111.068C397.087 111.068 396.825 110.969 396.616 110.77C396.417 110.56 396.317 110.314 396.317 110.032C396.317 109.738 396.417 109.492 396.616 109.293C396.825 109.084 397.087 108.979 397.401 108.979C397.715 108.979 397.972 109.084 398.171 109.293C398.37 109.492 398.469 109.738 398.469 110.032C398.469 110.314 398.37 110.56 398.171 110.77C397.972 110.969 397.715 111.068 397.401 111.068ZM397.401 105.084C397.087 105.084 396.825 104.985 396.616 104.786C396.417 104.576 396.317 104.33 396.317 104.048C396.317 103.754 396.417 103.508 396.616 103.309C396.825 103.1 397.087 102.995 397.401 102.995C397.715 102.995 397.972 103.1 398.171 103.309C398.37 103.508 398.469 103.754 398.469 104.048C398.469 104.33 398.37 104.576 398.171 104.786C397.972 104.985 397.715 105.084 397.401 105.084ZM405.343 110.974V101.864L403.569 102.273V101.048L406.003 99.9796H407.071V110.974H405.343ZM412.823 111.162C412.111 111.162 411.462 111.037 410.875 110.785C410.3 110.524 409.839 110.131 409.493 109.607C409.148 109.084 408.964 108.43 408.944 107.644H410.593C410.614 108.231 410.813 108.728 411.19 109.136C411.577 109.534 412.121 109.733 412.823 109.733C413.493 109.733 414.006 109.55 414.362 109.183C414.718 108.806 414.896 108.341 414.896 107.786C414.896 107.115 414.655 106.618 414.174 106.293C413.702 105.969 413.121 105.807 412.43 105.807H411.614V104.424H412.446C413.064 104.424 413.561 104.278 413.938 103.985C414.326 103.692 414.519 103.278 414.519 102.744C414.519 102.294 414.367 101.927 414.064 101.644C413.771 101.362 413.352 101.22 412.807 101.22C412.242 101.22 411.797 101.388 411.472 101.723C411.148 102.048 410.97 102.456 410.938 102.948H409.289C409.31 102.309 409.467 101.754 409.76 101.283C410.064 100.812 410.478 100.446 411.001 100.184C411.525 99.9221 412.127 99.7912 412.807 99.7912C413.54 99.7912 414.153 99.9221 414.645 100.184C415.147 100.435 415.524 100.781 415.776 101.22C416.037 101.65 416.168 102.121 416.168 102.634C416.168 103.22 416.006 103.733 415.681 104.173C415.357 104.613 414.922 104.906 414.378 105.053C415.006 105.189 415.524 105.498 415.933 105.979C416.341 106.451 416.545 107.063 416.545 107.817C416.545 108.424 416.404 108.984 416.121 109.498C415.839 110 415.42 110.403 414.865 110.707C414.31 111.011 413.629 111.162 412.823 111.162ZM419.196 111.068C418.882 111.068 418.621 110.969 418.411 110.77C418.212 110.56 418.113 110.314 418.113 110.032C418.113 109.738 418.212 109.492 418.411 109.293C418.621 109.084 418.882 108.979 419.196 108.979C419.511 108.979 419.767 109.084 419.966 109.293C420.165 109.492 420.264 109.738 420.264 110.032C420.264 110.314 420.165 110.56 419.966 110.77C419.767 110.969 419.511 111.068 419.196 111.068ZM427.015 110.974V108.775H421.502V107.456L426.748 99.9796H428.664V107.33H430.203V108.775H428.664V110.974H427.015ZM423.308 107.33H427.109V101.817L423.308 107.33ZM435.623 111.162C434.848 111.162 434.178 111.026 433.612 110.754C433.047 110.471 432.596 110.089 432.261 109.607C431.937 109.115 431.738 108.56 431.665 107.943H433.298C433.403 108.466 433.664 108.901 434.083 109.246C434.502 109.581 435.02 109.749 435.638 109.749C436.099 109.749 436.497 109.639 436.832 109.419C437.167 109.189 437.429 108.885 437.617 108.508C437.806 108.131 437.9 107.707 437.9 107.236C437.9 106.492 437.69 105.901 437.272 105.461C436.853 105.011 436.324 104.786 435.685 104.786C435.141 104.786 434.675 104.917 434.287 105.178C433.9 105.43 433.617 105.749 433.439 106.136H431.853L432.795 99.9796H438.732V101.44H434.052L433.486 104.377C433.727 104.105 434.057 103.88 434.476 103.702C434.905 103.514 435.387 103.419 435.921 103.419C436.664 103.419 437.303 103.592 437.837 103.938C438.371 104.273 438.779 104.728 439.062 105.304C439.355 105.88 439.502 106.519 439.502 107.22C439.502 107.953 439.345 108.618 439.031 109.215C438.717 109.812 438.266 110.288 437.68 110.644C437.104 110.99 436.418 111.162 435.623 111.162Z" fill="#5F6B7C"/>
<rect x="0.390625" y="152.621" width="502.966" height="147.236" rx="10.4707" fill="#10222D"/>
<path d="M36.0349 206.017V194.796H32.3184V193.569H41.2451V194.796H37.5286V206.017H36.0349ZM45.4012 206.23C44.5714 206.23 43.8245 206.041 43.1607 205.661C42.4968 205.282 41.9693 204.748 41.5781 204.061C41.1987 203.361 41.009 202.543 41.009 201.607C41.009 200.67 41.2046 199.858 41.5958 199.171C41.987 198.471 42.5146 197.932 43.1784 197.552C43.8542 197.173 44.6069 196.983 45.4368 196.983C46.2666 196.983 47.0135 197.173 47.6773 197.552C48.3412 197.932 48.8628 198.471 49.2422 199.171C49.6334 199.858 49.829 200.67 49.829 201.607C49.829 202.543 49.6334 203.361 49.2422 204.061C48.851 204.748 48.3175 205.282 47.6418 205.661C46.9779 206.041 46.2311 206.23 45.4012 206.23ZM45.4012 204.95C45.911 204.95 46.3852 204.825 46.8238 204.576C47.2624 204.327 47.6181 203.954 47.8907 203.456C48.1634 202.958 48.2997 202.342 48.2997 201.607C48.2997 200.872 48.1634 200.255 47.8907 199.757C47.6299 199.26 47.2802 198.886 46.8416 198.637C46.4029 198.388 45.9347 198.264 45.4368 198.264C44.927 198.264 44.4528 198.388 44.0142 198.637C43.5756 198.886 43.2199 199.26 42.9473 199.757C42.6746 200.255 42.5383 200.872 42.5383 201.607C42.5383 202.342 42.6746 202.958 42.9473 203.456C43.2199 203.954 43.5697 204.327 43.9964 204.576C44.4351 204.825 44.9033 204.95 45.4012 204.95Z" fill="#5F6B7C"/>
<path d="M43.5167 254.916C41.7533 254.916 40.1537 254.601 38.7178 253.971C37.3071 253.316 36.1734 252.409 35.3169 251.25C34.4856 250.092 34.07 248.731 34.07 247.169C34.07 245.582 34.5108 244.159 35.3925 242.899C36.2994 241.64 37.496 240.783 38.9823 240.33C37.6471 239.801 36.6143 239.033 35.8837 238.025C35.1532 236.992 34.7879 235.859 34.7879 234.624C34.7879 233.339 35.128 232.168 35.8082 231.11C36.4883 230.027 37.4708 229.17 38.7556 228.54C40.0655 227.885 41.6526 227.558 43.5167 227.558C45.3809 227.558 46.9554 227.885 48.2401 228.54C49.5501 229.17 50.5451 230.027 51.2253 231.11C51.9055 232.168 52.2455 233.339 52.2455 234.624C52.2455 235.833 51.8677 236.967 51.1119 238.025C50.3814 239.058 49.3485 239.826 48.0134 240.33C49.4997 240.809 50.6837 241.678 51.5654 242.937C52.4723 244.172 52.9257 245.582 52.9257 247.169C52.9257 248.731 52.5101 250.092 51.6787 251.25C50.8474 252.409 49.7138 253.316 48.2779 253.971C46.8672 254.601 45.2801 254.916 43.5167 254.916ZM43.5167 239.045C44.9778 239.045 46.124 238.667 46.9554 237.912C47.8119 237.156 48.2401 236.186 48.2401 235.002C48.2401 233.667 47.8245 232.647 46.9931 231.941C46.1618 231.236 45.003 230.883 43.5167 230.883C42.0304 230.883 40.8716 231.236 40.0403 231.941C39.209 232.647 38.7933 233.667 38.7933 235.002C38.7933 236.186 39.209 237.156 40.0403 237.912C40.8716 238.667 42.0304 239.045 43.5167 239.045ZM43.5167 251.515C45.3305 251.515 46.6908 251.087 47.5977 250.23C48.5046 249.348 48.9581 248.227 48.9581 246.867C48.9581 245.356 48.4668 244.197 47.4844 243.391C46.5271 242.559 45.2045 242.144 43.5167 242.144C41.8289 242.144 40.4938 242.559 39.5113 243.391C38.5288 244.197 38.0376 245.356 38.0376 246.867C38.0376 248.227 38.491 249.348 39.3979 250.23C40.33 251.087 41.7029 251.515 43.5167 251.515ZM56.9093 254.462V251.591C58.6223 250.23 60.2597 248.857 61.8216 247.472C63.3835 246.086 64.769 244.726 65.9782 243.391C67.2126 242.03 68.1824 240.708 68.8878 239.423C69.5932 238.113 69.9458 236.854 69.9458 235.644C69.9458 234.838 69.8073 234.083 69.5302 233.377C69.2531 232.647 68.7996 232.067 68.1698 231.639C67.5401 231.186 66.6961 230.959 65.6381 230.959C64.051 230.959 62.8545 231.463 62.0483 232.47C61.2674 233.478 60.8895 234.687 60.9147 236.098H57.0227C57.0478 234.234 57.4383 232.672 58.1941 231.412C58.975 230.153 60.0078 229.195 61.2926 228.54C62.6025 227.885 64.0762 227.558 65.7137 227.558C68.2076 227.558 70.1977 228.263 71.684 229.674C73.1955 231.06 73.9513 232.999 73.9513 235.493C73.9513 236.98 73.586 238.453 72.8554 239.914C72.1501 241.375 71.218 242.786 70.0592 244.146C68.9256 245.482 67.7038 246.741 66.3938 247.925C65.0839 249.109 63.8369 250.18 62.6529 251.137H74.7448V254.462H56.9093ZM80.4985 254.689C79.7427 254.689 79.1129 254.45 78.6091 253.971C78.1305 253.467 77.8912 252.875 77.8912 252.195C77.8912 251.49 78.1305 250.898 78.6091 250.419C79.1129 249.915 79.7427 249.663 80.4985 249.663C81.2542 249.663 81.8714 249.915 82.35 250.419C82.8287 250.898 83.068 251.49 83.068 252.195C83.068 252.875 82.8287 253.467 82.35 253.971C81.8714 254.45 81.2542 254.689 80.4985 254.689ZM96.4747 254.916C94.6106 254.916 92.9983 254.588 91.638 253.933C90.2776 253.253 89.1944 252.334 88.3883 251.175C87.6074 249.991 87.1287 248.656 86.9524 247.169H90.8822C91.1341 248.429 91.7639 249.474 92.7716 250.306C93.7792 251.112 95.0262 251.515 96.5125 251.515C97.6209 251.515 98.5782 251.25 99.3843 250.721C100.19 250.167 100.82 249.437 101.274 248.53C101.727 247.623 101.954 246.603 101.954 245.469C101.954 243.68 101.45 242.257 100.442 241.199C99.4347 240.116 98.1625 239.574 96.6259 239.574C95.3159 239.574 94.1949 239.889 93.2628 240.519C92.3307 241.124 91.6506 241.892 91.2223 242.824H87.4058L89.673 228.011H103.957V231.526H92.696L91.3357 238.592C91.9151 237.937 92.7086 237.395 93.7163 236.967C94.7491 236.513 95.9079 236.287 97.1927 236.287C98.9813 236.287 100.518 236.702 101.803 237.534C103.087 238.34 104.07 239.436 104.75 240.821C105.455 242.207 105.808 243.743 105.808 245.431C105.808 247.195 105.43 248.794 104.675 250.23C103.919 251.666 102.836 252.812 101.425 253.669C100.039 254.5 98.3893 254.916 96.4747 254.916ZM122.594 254.462V249.172H109.33V245.998L121.951 228.011H126.561V245.696H130.264V249.172H126.561V254.462H122.594ZM113.676 245.696H122.82V232.432L113.676 245.696Z" fill="#FBFBFB"/>
<rect x="335.052" y="184.034" width="136.892" height="52.9414" rx="26.1768" fill="#314253"/>
<rect x="345.523" y="194.798" width="31.4121" height="31.4121" rx="15.7061" fill="black"/>
<g clip-path="url(#clip1_38_4001)">
<path d="M355.397 214.179C355.504 214.072 355.652 214.009 355.809 214.009H370.025C370.285 214.009 370.415 214.323 370.231 214.506L367.423 217.315C367.315 217.422 367.167 217.485 367.011 217.485H352.794C352.535 217.485 352.405 217.171 352.588 216.988L355.397 214.179Z" fill="url(#paint0_linear_38_4001)"/>
<path d="M355.396 203.694C355.508 203.587 355.656 203.524 355.808 203.524H370.025C370.284 203.524 370.414 203.837 370.231 204.021L367.422 206.829C367.315 206.937 367.167 207 367.01 207H352.794C352.534 207 352.404 206.686 352.588 206.502L355.396 203.694Z" fill="url(#paint1_linear_38_4001)"/>
<path d="M367.423 208.903C367.315 208.796 367.167 208.733 367.011 208.733H352.794C352.535 208.733 352.405 209.047 352.588 209.23L355.397 212.039C355.504 212.146 355.652 212.209 355.809 212.209H370.025C370.285 212.209 370.415 211.895 370.231 211.712L367.423 208.903Z" fill="url(#paint2_linear_38_4001)"/>
</g>
<path d="M391.868 216.744C390.841 216.744 389.941 216.564 389.167 216.204C388.393 215.844 387.787 215.331 387.347 214.664C386.92 213.997 386.7 213.203 386.686 212.283H388.927C388.94 213.03 389.2 213.664 389.707 214.184C390.214 214.704 390.927 214.964 391.848 214.964C392.661 214.964 393.295 214.77 393.748 214.384C394.215 213.984 394.448 213.477 394.448 212.863C394.448 212.37 394.335 211.97 394.108 211.663C393.895 211.356 393.595 211.103 393.208 210.903C392.835 210.703 392.401 210.523 391.908 210.363C391.414 210.203 390.894 210.029 390.347 209.843C389.267 209.482 388.453 209.016 387.907 208.442C387.373 207.869 387.106 207.115 387.106 206.182C387.093 205.395 387.273 204.708 387.647 204.121C388.033 203.534 388.567 203.081 389.247 202.761C389.941 202.427 390.747 202.261 391.668 202.261C392.574 202.261 393.368 202.427 394.048 202.761C394.742 203.094 395.282 203.561 395.669 204.161C396.055 204.748 396.255 205.435 396.269 206.222H394.028C394.028 205.862 393.935 205.522 393.748 205.201C393.561 204.868 393.288 204.595 392.928 204.381C392.568 204.168 392.128 204.061 391.608 204.061C390.941 204.048 390.387 204.215 389.947 204.561C389.52 204.908 389.307 205.388 389.307 206.002C389.307 206.548 389.467 206.969 389.787 207.262C390.107 207.555 390.547 207.802 391.107 208.002C391.668 208.189 392.308 208.409 393.028 208.662C393.721 208.889 394.342 209.162 394.888 209.482C395.435 209.803 395.869 210.223 396.189 210.743C396.522 211.263 396.689 211.923 396.689 212.723C396.689 213.43 396.509 214.09 396.149 214.704C395.789 215.304 395.248 215.797 394.528 216.184C393.808 216.558 392.921 216.744 391.868 216.744ZM405.469 216.744C404.082 216.744 402.868 216.438 401.828 215.824C400.788 215.211 399.974 214.364 399.387 213.283C398.801 212.19 398.507 210.93 398.507 209.502C398.507 208.075 398.801 206.822 399.387 205.742C399.974 204.648 400.788 203.794 401.828 203.181C402.868 202.567 404.082 202.261 405.469 202.261C406.856 202.261 408.069 202.567 409.11 203.181C410.15 203.794 410.957 204.648 411.53 205.742C412.117 206.822 412.411 208.075 412.411 209.502C412.411 210.93 412.117 212.19 411.53 213.283C410.957 214.364 410.15 215.211 409.11 215.824C408.069 216.438 406.856 216.744 405.469 216.744ZM405.469 214.844C406.429 214.844 407.263 214.63 407.969 214.204C408.69 213.777 409.25 213.163 409.65 212.363C410.05 211.563 410.25 210.609 410.25 209.502C410.25 208.396 410.05 207.442 409.65 206.642C409.25 205.842 408.69 205.228 407.969 204.801C407.263 204.375 406.429 204.161 405.469 204.161C404.509 204.161 403.668 204.375 402.948 204.801C402.228 205.228 401.668 205.842 401.268 206.642C400.881 207.442 400.688 208.396 400.688 209.502C400.688 210.609 400.881 211.563 401.268 212.363C401.668 213.163 402.228 213.777 402.948 214.204C403.668 214.63 404.509 214.844 405.469 214.844ZM414.773 216.504V202.501H416.893V214.824H423.255V216.504H414.773Z" fill="#FBFBFB"/>
<path d="M439.66 206.142L448.385 214.867L457.111 206.142" stroke="#FBFBFB" stroke-width="2.61768" stroke-linecap="round" stroke-linejoin="round"/>
<path d="M336.167 263.446V252.451H340.314C341.455 252.451 342.319 252.718 342.905 253.252C343.492 253.786 343.785 254.457 343.785 255.263C343.785 255.964 343.596 256.524 343.219 256.943C342.842 257.352 342.387 257.629 341.853 257.776C342.272 257.86 342.644 258.027 342.968 258.278C343.303 258.53 343.565 258.844 343.753 259.221C343.942 259.598 344.036 260.006 344.036 260.446C344.036 261.011 343.895 261.524 343.612 261.985C343.34 262.435 342.937 262.791 342.403 263.053C341.869 263.315 341.214 263.446 340.439 263.446H336.167ZM337.832 257.163H340.11C340.748 257.163 341.235 257.017 341.57 256.723C341.905 256.42 342.073 256.006 342.073 255.483C342.073 254.97 341.905 254.561 341.57 254.258C341.246 253.954 340.748 253.802 340.078 253.802H337.832V257.163ZM337.832 262.079H340.22C340.89 262.079 341.408 261.922 341.774 261.608C342.151 261.294 342.34 260.854 342.34 260.289C342.34 259.723 342.146 259.278 341.759 258.954C341.371 258.619 340.848 258.451 340.188 258.451H337.832V262.079ZM348.437 263.634C347.777 263.634 347.233 263.524 346.803 263.304C346.374 263.084 346.055 262.796 345.845 262.44C345.636 262.074 345.531 261.676 345.531 261.247C345.531 260.493 345.824 259.896 346.411 259.456C346.997 259.017 347.835 258.797 348.924 258.797H350.965V258.655C350.965 258.048 350.798 257.593 350.463 257.289C350.138 256.985 349.714 256.833 349.191 256.833C348.73 256.833 348.327 256.949 347.981 257.179C347.646 257.399 347.442 257.729 347.369 258.168H345.704C345.756 257.603 345.945 257.121 346.269 256.723C346.604 256.315 347.023 256.006 347.526 255.797C348.039 255.577 348.599 255.467 349.206 255.467C350.295 255.467 351.138 255.755 351.735 256.331C352.332 256.896 352.63 257.671 352.63 258.655V263.446H351.185L351.044 262.111C350.824 262.54 350.505 262.901 350.086 263.194C349.667 263.488 349.117 263.634 348.437 263.634ZM348.767 262.283C349.217 262.283 349.594 262.179 349.897 261.969C350.212 261.749 350.452 261.461 350.62 261.105C350.798 260.749 350.908 260.357 350.95 259.927H349.096C348.437 259.927 347.966 260.043 347.683 260.273C347.411 260.503 347.275 260.791 347.275 261.137C347.275 261.493 347.405 261.776 347.667 261.985C347.939 262.184 348.306 262.283 348.767 262.283ZM354.571 263.446V252.137H356.236V263.446H354.571ZM360.983 263.634C360.324 263.634 359.779 263.524 359.35 263.304C358.92 263.084 358.601 262.796 358.392 262.44C358.182 262.074 358.078 261.676 358.078 261.247C358.078 260.493 358.371 259.896 358.957 259.456C359.543 259.017 360.381 258.797 361.47 258.797H363.512V258.655C363.512 258.048 363.344 257.593 363.009 257.289C362.685 256.985 362.261 256.833 361.737 256.833C361.276 256.833 360.873 256.949 360.528 257.179C360.193 257.399 359.988 257.729 359.915 258.168H358.25C358.303 257.603 358.491 257.121 358.816 256.723C359.151 256.315 359.57 256.006 360.072 255.797C360.585 255.577 361.145 255.467 361.753 255.467C362.842 255.467 363.685 255.755 364.281 256.331C364.878 256.896 365.177 257.671 365.177 258.655V263.446H363.732L363.59 262.111C363.371 262.54 363.051 262.901 362.632 263.194C362.214 263.488 361.664 263.634 360.983 263.634ZM361.313 262.283C361.763 262.283 362.14 262.179 362.444 261.969C362.758 261.749 362.999 261.461 363.166 261.105C363.344 260.749 363.454 260.357 363.496 259.927H361.643C360.983 259.927 360.512 260.043 360.229 260.273C359.957 260.503 359.821 260.791 359.821 261.137C359.821 261.493 359.952 261.776 360.214 261.985C360.486 262.184 360.852 262.283 361.313 262.283ZM367.118 263.446V255.655H368.594L368.72 257.022C368.961 256.54 369.312 256.163 369.772 255.891C370.243 255.608 370.783 255.467 371.39 255.467C372.332 255.467 373.07 255.76 373.604 256.346C374.149 256.933 374.421 257.807 374.421 258.969V263.446H372.772V259.142C372.772 257.634 372.154 256.88 370.919 256.88C370.301 256.88 369.788 257.1 369.38 257.54C368.982 257.98 368.783 258.608 368.783 259.425V263.446H367.118ZM380.073 263.634C379.309 263.634 378.623 263.461 378.015 263.116C377.419 262.77 376.947 262.294 376.602 261.687C376.267 261.069 376.099 260.357 376.099 259.551C376.099 258.744 376.267 258.038 376.602 257.43C376.947 256.812 377.419 256.331 378.015 255.985C378.623 255.64 379.309 255.467 380.073 255.467C381.036 255.467 381.842 255.718 382.492 256.221C383.151 256.723 383.575 257.404 383.764 258.263H382.02C381.916 257.833 381.685 257.498 381.329 257.257C380.973 257.017 380.555 256.896 380.073 256.896C379.665 256.896 379.288 257.001 378.942 257.21C378.597 257.409 378.319 257.708 378.11 258.106C377.9 258.493 377.796 258.975 377.796 259.551C377.796 260.126 377.9 260.613 378.11 261.011C378.319 261.399 378.597 261.697 378.942 261.906C379.288 262.116 379.665 262.221 380.073 262.221C380.555 262.221 380.973 262.1 381.329 261.859C381.685 261.618 381.916 261.278 382.02 260.838H383.764C383.586 261.676 383.167 262.351 382.507 262.865C381.848 263.378 381.036 263.634 380.073 263.634ZM389.213 263.634C388.449 263.634 387.768 263.467 387.171 263.132C386.585 262.786 386.124 262.31 385.789 261.702C385.454 261.095 385.287 260.388 385.287 259.582C385.287 258.765 385.449 258.048 385.774 257.43C386.109 256.812 386.569 256.331 387.156 255.985C387.753 255.64 388.444 255.467 389.229 255.467C389.993 255.467 390.658 255.64 391.224 255.985C391.789 256.32 392.229 256.771 392.543 257.336C392.857 257.901 393.014 258.524 393.014 259.205C393.014 259.31 393.009 259.425 392.998 259.551C392.998 259.666 392.993 259.797 392.983 259.943H386.92C386.973 260.697 387.219 261.273 387.658 261.671C388.109 262.058 388.627 262.252 389.213 262.252C389.684 262.252 390.077 262.147 390.391 261.938C390.716 261.718 390.957 261.425 391.114 261.058H392.779C392.569 261.791 392.15 262.404 391.522 262.896C390.904 263.388 390.135 263.634 389.213 263.634ZM389.213 256.833C388.658 256.833 388.166 257.001 387.737 257.336C387.308 257.661 387.046 258.153 386.952 258.812H391.349C391.318 258.205 391.103 257.723 390.705 257.367C390.307 257.011 389.81 256.833 389.213 256.833ZM395.401 263.54C395.087 263.54 394.825 263.44 394.616 263.241C394.417 263.032 394.317 262.786 394.317 262.503C394.317 262.21 394.417 261.964 394.616 261.765C394.825 261.556 395.087 261.451 395.401 261.451C395.715 261.451 395.972 261.556 396.171 261.765C396.37 261.964 396.469 262.21 396.469 262.503C396.469 262.786 396.37 263.032 396.171 263.241C395.972 263.44 395.715 263.54 395.401 263.54ZM395.401 257.556C395.087 257.556 394.825 257.456 394.616 257.257C394.417 257.048 394.317 256.802 394.317 256.519C394.317 256.226 394.417 255.98 394.616 255.781C394.825 255.572 395.087 255.467 395.401 255.467C395.715 255.467 395.972 255.572 396.171 255.781C396.37 255.98 396.469 256.226 396.469 256.519C396.469 256.802 396.37 257.048 396.171 257.257C395.972 257.456 395.715 257.556 395.401 257.556ZM401.993 263.446V262.252C402.705 261.687 403.385 261.116 404.034 260.54C404.684 259.964 405.26 259.399 405.762 258.844C406.275 258.278 406.678 257.729 406.972 257.195C407.265 256.65 407.411 256.127 407.411 255.624C407.411 255.289 407.354 254.975 407.239 254.682C407.123 254.378 406.935 254.137 406.673 253.959C406.411 253.771 406.061 253.676 405.621 253.676C404.961 253.676 404.464 253.886 404.129 254.305C403.804 254.724 403.647 255.226 403.658 255.812H402.04C402.05 255.038 402.213 254.388 402.527 253.865C402.851 253.341 403.281 252.944 403.815 252.671C404.359 252.399 404.972 252.263 405.652 252.263C406.689 252.263 407.516 252.556 408.134 253.142C408.762 253.718 409.076 254.525 409.076 255.561C409.076 256.179 408.924 256.791 408.621 257.399C408.327 258.006 407.94 258.592 407.458 259.158C406.987 259.713 406.479 260.236 405.935 260.728C405.39 261.221 404.872 261.666 404.38 262.063H409.406V263.446H401.993ZM416.011 263.446V261.247H410.499V259.927L415.744 252.451H417.661V259.802H419.2V261.247H417.661V263.446H416.011ZM412.305 259.802H416.106V254.289L412.305 259.802Z" fill="#5F6B7C"/>
<rect x="229.731" y="127.99" width="44.4554" height="44.4554" rx="22.2277" fill="#2F373F"/>
<g clip-path="url(#clip2_38_4001)">
<path d="M249.736 145.772L246.402 142.438L243.068 145.772" stroke="#FBFBFB" stroke-width="1.66708" stroke-linecap="round" stroke-linejoin="round"/>
<path d="M246.402 157.997V142.438" stroke="#FBFBFB" stroke-width="1.66708" stroke-linecap="round" stroke-linejoin="round"/>
<path d="M254.182 154.663L257.516 157.997L260.85 154.663" stroke="#FBFBFB" stroke-width="1.66708" stroke-linecap="round" stroke-linejoin="round"/>
<path d="M257.516 142.438V157.997" stroke="#FBFBFB" stroke-width="1.66708" stroke-linecap="round" stroke-linejoin="round"/>
</g>
</g>
<defs>
<linearGradient id="paint0_linear_38_4001" x1="368.667" y1="201.846" x2="358.828" y2="220.691" gradientUnits="userSpaceOnUse">
<stop stop-color="#00FFA3"/>
<stop offset="1" stop-color="#DC1FFF"/>
</linearGradient>
<linearGradient id="paint1_linear_38_4001" x1="364.364" y1="199.6" x2="354.526" y2="218.446" gradientUnits="userSpaceOnUse">
<stop stop-color="#00FFA3"/>
<stop offset="1" stop-color="#DC1FFF"/>
</linearGradient>
<linearGradient id="paint2_linear_38_4001" x1="366.502" y1="200.716" x2="356.664" y2="219.562" gradientUnits="userSpaceOnUse">
<stop stop-color="#00FFA3"/>
<stop offset="1" stop-color="#DC1FFF"/>
</linearGradient>
<clipPath id="clip0_38_4001">
<rect x="0.390625" y="0.149658" width="502.966" height="300" rx="10.4707" fill="white"/>
</clipPath>
<clipPath id="clip1_38_4001">
<rect width="17.8129" height="13.9609" fill="white" transform="translate(352.503 203.524)"/>
</clipPath>
<clipPath id="clip2_38_4001">
<rect width="26.6732" height="26.6732" fill="white" transform="translate(238.623 136.881)"/>
</clipPath>
</defs>
</svg>
