<svg width="22" height="18" viewBox="0 0 22 18" fill="none" xmlns="http://www.w3.org/2000/svg">
<path d="M19.7097 0.171707C19.7097 0.171707 21.6523 -0.585793 21.4904 1.25385C21.4365 2.01136 20.9508 4.66261 20.573 7.53031L19.278 16.0252C19.278 16.0252 19.17 17.2696 18.1987 17.4861C17.2274 17.7025 15.7704 16.7286 15.5005 16.5121C15.2847 16.3498 11.4534 13.915 10.1043 12.7246C9.72655 12.4 9.29485 11.7507 10.1582 10.9932L15.8244 5.58246C16.4719 4.93316 17.1194 3.41816 14.4213 5.25781L6.86655 10.398C6.86655 10.398 6.00315 10.9391 4.3843 10.4521L0.87671 9.36996C0.87671 9.36996 -0.418395 8.55836 1.79408 7.74671C7.19035 5.20366 13.8278 2.60651 19.7097 0.171707Z" fill="#FCFCFC"/>
</svg>
