<svg width="16" height="19" viewBox="0 0 16 19" fill="none" xmlns="http://www.w3.org/2000/svg">
<path d="M12.6002 3.33721C12.6002 3.33721 13.1102 3.83721 12.6002 3.33721C11.9166 2.55683 11.5399 1.55464 11.5402 0.517212H8.45016V12.9172C8.42632 13.5882 8.14303 14.2238 7.65992 14.6901C7.17682 15.1565 6.5316 15.4171 5.86016 15.4172C4.44016 15.4172 3.26016 14.2572 3.26016 12.8172C3.26016 11.0972 4.92016 9.80721 6.63016 10.3372V7.17721C3.18016 6.71721 0.160156 9.39721 0.160156 12.8172C0.160156 16.1472 2.92016 18.5172 5.85016 18.5172C8.99016 18.5172 11.5402 15.9672 11.5402 12.8172V6.52721C12.7932 7.42706 14.2975 7.90986 15.8402 7.90721V4.81721C15.8402 4.81721 13.9602 4.90721 12.6002 3.33721Z" fill="#FCFCFC"/>
</svg>
