<svg width="18" height="15" viewBox="0 0 18 15" fill="none" xmlns="http://www.w3.org/2000/svg">
<path d="M5.96653 14.2276C11.2561 14.2756 15.5761 10.0324 15.6241 4.74281V4.10921C16.2673 3.61961 16.8337 3.03401 17.2849 2.36201C16.6705 2.63081 16.0177 2.81321 15.3553 2.91881C16.0369 2.48681 16.5649 1.84361 16.8337 1.08521C16.1617 1.45961 15.4513 1.73801 14.7121 1.91081C14.0881 1.20041 13.1761 0.797208 12.2257 0.806808C10.3537 0.835608 8.84653 2.34281 8.82733 4.20521C8.80813 4.45481 8.82733 4.70441 8.91373 4.94441C6.17773 4.81001 3.62413 3.50441 1.92493 1.35401C1.61773 1.89161 1.45453 2.49641 1.46413 3.10121C1.48333 4.22441 2.03053 5.28041 2.93293 5.95241C2.38573 5.94281 1.83853 5.77961 1.36813 5.49161C1.36813 7.11401 2.52973 8.51561 4.12333 8.80361C3.82573 8.88041 3.51853 8.90921 3.20173 8.89001C2.98093 8.90921 2.76013 8.88041 2.55853 8.80361C3.01933 10.1956 4.30573 11.1652 5.77453 11.194C4.56493 12.1444 3.08653 12.6628 1.54093 12.6724C1.26253 12.6916 0.984132 12.6628 0.715332 12.586C2.24173 13.69 4.07533 14.2756 5.95693 14.2468L5.96653 14.2276Z" fill="#FBFBFB"/>
</svg>
